G75*
%MOIN*%
%OFA0B0*%
%FSLAX25Y25*%
%IPPOS*%
%LPD*%
%AMOC8*
5,1,8,0,0,1.08239X$1,22.5*
%
%ADD10C,0.00000*%
%ADD11C,0.05150*%
%ADD12R,0.06000X0.06000*%
%ADD13OC8,0.06000*%
%ADD14C,0.08600*%
%ADD15C,0.05200*%
%ADD16C,0.01600*%
%ADD17C,0.03175*%
%ADD18C,0.02400*%
%ADD19C,0.01000*%
D10*
X0008397Y0003099D02*
X0322069Y0003099D01*
X0322069Y0268050D01*
X0008397Y0268050D01*
X0008397Y0003099D01*
X0074096Y0035362D02*
X0074098Y0035520D01*
X0074104Y0035678D01*
X0074114Y0035836D01*
X0074128Y0035994D01*
X0074146Y0036151D01*
X0074167Y0036308D01*
X0074193Y0036464D01*
X0074223Y0036620D01*
X0074256Y0036775D01*
X0074294Y0036928D01*
X0074335Y0037081D01*
X0074380Y0037233D01*
X0074429Y0037384D01*
X0074482Y0037533D01*
X0074538Y0037681D01*
X0074598Y0037827D01*
X0074662Y0037972D01*
X0074730Y0038115D01*
X0074801Y0038257D01*
X0074875Y0038397D01*
X0074953Y0038534D01*
X0075035Y0038670D01*
X0075119Y0038804D01*
X0075208Y0038935D01*
X0075299Y0039064D01*
X0075394Y0039191D01*
X0075491Y0039316D01*
X0075592Y0039438D01*
X0075696Y0039557D01*
X0075803Y0039674D01*
X0075913Y0039788D01*
X0076026Y0039899D01*
X0076141Y0040008D01*
X0076259Y0040113D01*
X0076380Y0040215D01*
X0076503Y0040315D01*
X0076629Y0040411D01*
X0076757Y0040504D01*
X0076887Y0040594D01*
X0077020Y0040680D01*
X0077155Y0040764D01*
X0077291Y0040843D01*
X0077430Y0040920D01*
X0077571Y0040992D01*
X0077713Y0041062D01*
X0077857Y0041127D01*
X0078003Y0041189D01*
X0078150Y0041247D01*
X0078299Y0041302D01*
X0078449Y0041353D01*
X0078600Y0041400D01*
X0078752Y0041443D01*
X0078905Y0041482D01*
X0079060Y0041518D01*
X0079215Y0041549D01*
X0079371Y0041577D01*
X0079527Y0041601D01*
X0079684Y0041621D01*
X0079842Y0041637D01*
X0079999Y0041649D01*
X0080158Y0041657D01*
X0080316Y0041661D01*
X0080474Y0041661D01*
X0080632Y0041657D01*
X0080791Y0041649D01*
X0080948Y0041637D01*
X0081106Y0041621D01*
X0081263Y0041601D01*
X0081419Y0041577D01*
X0081575Y0041549D01*
X0081730Y0041518D01*
X0081885Y0041482D01*
X0082038Y0041443D01*
X0082190Y0041400D01*
X0082341Y0041353D01*
X0082491Y0041302D01*
X0082640Y0041247D01*
X0082787Y0041189D01*
X0082933Y0041127D01*
X0083077Y0041062D01*
X0083219Y0040992D01*
X0083360Y0040920D01*
X0083499Y0040843D01*
X0083635Y0040764D01*
X0083770Y0040680D01*
X0083903Y0040594D01*
X0084033Y0040504D01*
X0084161Y0040411D01*
X0084287Y0040315D01*
X0084410Y0040215D01*
X0084531Y0040113D01*
X0084649Y0040008D01*
X0084764Y0039899D01*
X0084877Y0039788D01*
X0084987Y0039674D01*
X0085094Y0039557D01*
X0085198Y0039438D01*
X0085299Y0039316D01*
X0085396Y0039191D01*
X0085491Y0039064D01*
X0085582Y0038935D01*
X0085671Y0038804D01*
X0085755Y0038670D01*
X0085837Y0038534D01*
X0085915Y0038397D01*
X0085989Y0038257D01*
X0086060Y0038115D01*
X0086128Y0037972D01*
X0086192Y0037827D01*
X0086252Y0037681D01*
X0086308Y0037533D01*
X0086361Y0037384D01*
X0086410Y0037233D01*
X0086455Y0037081D01*
X0086496Y0036928D01*
X0086534Y0036775D01*
X0086567Y0036620D01*
X0086597Y0036464D01*
X0086623Y0036308D01*
X0086644Y0036151D01*
X0086662Y0035994D01*
X0086676Y0035836D01*
X0086686Y0035678D01*
X0086692Y0035520D01*
X0086694Y0035362D01*
X0086692Y0035204D01*
X0086686Y0035046D01*
X0086676Y0034888D01*
X0086662Y0034730D01*
X0086644Y0034573D01*
X0086623Y0034416D01*
X0086597Y0034260D01*
X0086567Y0034104D01*
X0086534Y0033949D01*
X0086496Y0033796D01*
X0086455Y0033643D01*
X0086410Y0033491D01*
X0086361Y0033340D01*
X0086308Y0033191D01*
X0086252Y0033043D01*
X0086192Y0032897D01*
X0086128Y0032752D01*
X0086060Y0032609D01*
X0085989Y0032467D01*
X0085915Y0032327D01*
X0085837Y0032190D01*
X0085755Y0032054D01*
X0085671Y0031920D01*
X0085582Y0031789D01*
X0085491Y0031660D01*
X0085396Y0031533D01*
X0085299Y0031408D01*
X0085198Y0031286D01*
X0085094Y0031167D01*
X0084987Y0031050D01*
X0084877Y0030936D01*
X0084764Y0030825D01*
X0084649Y0030716D01*
X0084531Y0030611D01*
X0084410Y0030509D01*
X0084287Y0030409D01*
X0084161Y0030313D01*
X0084033Y0030220D01*
X0083903Y0030130D01*
X0083770Y0030044D01*
X0083635Y0029960D01*
X0083499Y0029881D01*
X0083360Y0029804D01*
X0083219Y0029732D01*
X0083077Y0029662D01*
X0082933Y0029597D01*
X0082787Y0029535D01*
X0082640Y0029477D01*
X0082491Y0029422D01*
X0082341Y0029371D01*
X0082190Y0029324D01*
X0082038Y0029281D01*
X0081885Y0029242D01*
X0081730Y0029206D01*
X0081575Y0029175D01*
X0081419Y0029147D01*
X0081263Y0029123D01*
X0081106Y0029103D01*
X0080948Y0029087D01*
X0080791Y0029075D01*
X0080632Y0029067D01*
X0080474Y0029063D01*
X0080316Y0029063D01*
X0080158Y0029067D01*
X0079999Y0029075D01*
X0079842Y0029087D01*
X0079684Y0029103D01*
X0079527Y0029123D01*
X0079371Y0029147D01*
X0079215Y0029175D01*
X0079060Y0029206D01*
X0078905Y0029242D01*
X0078752Y0029281D01*
X0078600Y0029324D01*
X0078449Y0029371D01*
X0078299Y0029422D01*
X0078150Y0029477D01*
X0078003Y0029535D01*
X0077857Y0029597D01*
X0077713Y0029662D01*
X0077571Y0029732D01*
X0077430Y0029804D01*
X0077291Y0029881D01*
X0077155Y0029960D01*
X0077020Y0030044D01*
X0076887Y0030130D01*
X0076757Y0030220D01*
X0076629Y0030313D01*
X0076503Y0030409D01*
X0076380Y0030509D01*
X0076259Y0030611D01*
X0076141Y0030716D01*
X0076026Y0030825D01*
X0075913Y0030936D01*
X0075803Y0031050D01*
X0075696Y0031167D01*
X0075592Y0031286D01*
X0075491Y0031408D01*
X0075394Y0031533D01*
X0075299Y0031660D01*
X0075208Y0031789D01*
X0075119Y0031920D01*
X0075035Y0032054D01*
X0074953Y0032190D01*
X0074875Y0032327D01*
X0074801Y0032467D01*
X0074730Y0032609D01*
X0074662Y0032752D01*
X0074598Y0032897D01*
X0074538Y0033043D01*
X0074482Y0033191D01*
X0074429Y0033340D01*
X0074380Y0033491D01*
X0074335Y0033643D01*
X0074294Y0033796D01*
X0074256Y0033949D01*
X0074223Y0034104D01*
X0074193Y0034260D01*
X0074167Y0034416D01*
X0074146Y0034573D01*
X0074128Y0034730D01*
X0074114Y0034888D01*
X0074104Y0035046D01*
X0074098Y0035204D01*
X0074096Y0035362D01*
X0074096Y0228275D02*
X0074098Y0228433D01*
X0074104Y0228591D01*
X0074114Y0228749D01*
X0074128Y0228907D01*
X0074146Y0229064D01*
X0074167Y0229221D01*
X0074193Y0229377D01*
X0074223Y0229533D01*
X0074256Y0229688D01*
X0074294Y0229841D01*
X0074335Y0229994D01*
X0074380Y0230146D01*
X0074429Y0230297D01*
X0074482Y0230446D01*
X0074538Y0230594D01*
X0074598Y0230740D01*
X0074662Y0230885D01*
X0074730Y0231028D01*
X0074801Y0231170D01*
X0074875Y0231310D01*
X0074953Y0231447D01*
X0075035Y0231583D01*
X0075119Y0231717D01*
X0075208Y0231848D01*
X0075299Y0231977D01*
X0075394Y0232104D01*
X0075491Y0232229D01*
X0075592Y0232351D01*
X0075696Y0232470D01*
X0075803Y0232587D01*
X0075913Y0232701D01*
X0076026Y0232812D01*
X0076141Y0232921D01*
X0076259Y0233026D01*
X0076380Y0233128D01*
X0076503Y0233228D01*
X0076629Y0233324D01*
X0076757Y0233417D01*
X0076887Y0233507D01*
X0077020Y0233593D01*
X0077155Y0233677D01*
X0077291Y0233756D01*
X0077430Y0233833D01*
X0077571Y0233905D01*
X0077713Y0233975D01*
X0077857Y0234040D01*
X0078003Y0234102D01*
X0078150Y0234160D01*
X0078299Y0234215D01*
X0078449Y0234266D01*
X0078600Y0234313D01*
X0078752Y0234356D01*
X0078905Y0234395D01*
X0079060Y0234431D01*
X0079215Y0234462D01*
X0079371Y0234490D01*
X0079527Y0234514D01*
X0079684Y0234534D01*
X0079842Y0234550D01*
X0079999Y0234562D01*
X0080158Y0234570D01*
X0080316Y0234574D01*
X0080474Y0234574D01*
X0080632Y0234570D01*
X0080791Y0234562D01*
X0080948Y0234550D01*
X0081106Y0234534D01*
X0081263Y0234514D01*
X0081419Y0234490D01*
X0081575Y0234462D01*
X0081730Y0234431D01*
X0081885Y0234395D01*
X0082038Y0234356D01*
X0082190Y0234313D01*
X0082341Y0234266D01*
X0082491Y0234215D01*
X0082640Y0234160D01*
X0082787Y0234102D01*
X0082933Y0234040D01*
X0083077Y0233975D01*
X0083219Y0233905D01*
X0083360Y0233833D01*
X0083499Y0233756D01*
X0083635Y0233677D01*
X0083770Y0233593D01*
X0083903Y0233507D01*
X0084033Y0233417D01*
X0084161Y0233324D01*
X0084287Y0233228D01*
X0084410Y0233128D01*
X0084531Y0233026D01*
X0084649Y0232921D01*
X0084764Y0232812D01*
X0084877Y0232701D01*
X0084987Y0232587D01*
X0085094Y0232470D01*
X0085198Y0232351D01*
X0085299Y0232229D01*
X0085396Y0232104D01*
X0085491Y0231977D01*
X0085582Y0231848D01*
X0085671Y0231717D01*
X0085755Y0231583D01*
X0085837Y0231447D01*
X0085915Y0231310D01*
X0085989Y0231170D01*
X0086060Y0231028D01*
X0086128Y0230885D01*
X0086192Y0230740D01*
X0086252Y0230594D01*
X0086308Y0230446D01*
X0086361Y0230297D01*
X0086410Y0230146D01*
X0086455Y0229994D01*
X0086496Y0229841D01*
X0086534Y0229688D01*
X0086567Y0229533D01*
X0086597Y0229377D01*
X0086623Y0229221D01*
X0086644Y0229064D01*
X0086662Y0228907D01*
X0086676Y0228749D01*
X0086686Y0228591D01*
X0086692Y0228433D01*
X0086694Y0228275D01*
X0086692Y0228117D01*
X0086686Y0227959D01*
X0086676Y0227801D01*
X0086662Y0227643D01*
X0086644Y0227486D01*
X0086623Y0227329D01*
X0086597Y0227173D01*
X0086567Y0227017D01*
X0086534Y0226862D01*
X0086496Y0226709D01*
X0086455Y0226556D01*
X0086410Y0226404D01*
X0086361Y0226253D01*
X0086308Y0226104D01*
X0086252Y0225956D01*
X0086192Y0225810D01*
X0086128Y0225665D01*
X0086060Y0225522D01*
X0085989Y0225380D01*
X0085915Y0225240D01*
X0085837Y0225103D01*
X0085755Y0224967D01*
X0085671Y0224833D01*
X0085582Y0224702D01*
X0085491Y0224573D01*
X0085396Y0224446D01*
X0085299Y0224321D01*
X0085198Y0224199D01*
X0085094Y0224080D01*
X0084987Y0223963D01*
X0084877Y0223849D01*
X0084764Y0223738D01*
X0084649Y0223629D01*
X0084531Y0223524D01*
X0084410Y0223422D01*
X0084287Y0223322D01*
X0084161Y0223226D01*
X0084033Y0223133D01*
X0083903Y0223043D01*
X0083770Y0222957D01*
X0083635Y0222873D01*
X0083499Y0222794D01*
X0083360Y0222717D01*
X0083219Y0222645D01*
X0083077Y0222575D01*
X0082933Y0222510D01*
X0082787Y0222448D01*
X0082640Y0222390D01*
X0082491Y0222335D01*
X0082341Y0222284D01*
X0082190Y0222237D01*
X0082038Y0222194D01*
X0081885Y0222155D01*
X0081730Y0222119D01*
X0081575Y0222088D01*
X0081419Y0222060D01*
X0081263Y0222036D01*
X0081106Y0222016D01*
X0080948Y0222000D01*
X0080791Y0221988D01*
X0080632Y0221980D01*
X0080474Y0221976D01*
X0080316Y0221976D01*
X0080158Y0221980D01*
X0079999Y0221988D01*
X0079842Y0222000D01*
X0079684Y0222016D01*
X0079527Y0222036D01*
X0079371Y0222060D01*
X0079215Y0222088D01*
X0079060Y0222119D01*
X0078905Y0222155D01*
X0078752Y0222194D01*
X0078600Y0222237D01*
X0078449Y0222284D01*
X0078299Y0222335D01*
X0078150Y0222390D01*
X0078003Y0222448D01*
X0077857Y0222510D01*
X0077713Y0222575D01*
X0077571Y0222645D01*
X0077430Y0222717D01*
X0077291Y0222794D01*
X0077155Y0222873D01*
X0077020Y0222957D01*
X0076887Y0223043D01*
X0076757Y0223133D01*
X0076629Y0223226D01*
X0076503Y0223322D01*
X0076380Y0223422D01*
X0076259Y0223524D01*
X0076141Y0223629D01*
X0076026Y0223738D01*
X0075913Y0223849D01*
X0075803Y0223963D01*
X0075696Y0224080D01*
X0075592Y0224199D01*
X0075491Y0224321D01*
X0075394Y0224446D01*
X0075299Y0224573D01*
X0075208Y0224702D01*
X0075119Y0224833D01*
X0075035Y0224967D01*
X0074953Y0225103D01*
X0074875Y0225240D01*
X0074801Y0225380D01*
X0074730Y0225522D01*
X0074662Y0225665D01*
X0074598Y0225810D01*
X0074538Y0225956D01*
X0074482Y0226104D01*
X0074429Y0226253D01*
X0074380Y0226404D01*
X0074335Y0226556D01*
X0074294Y0226709D01*
X0074256Y0226862D01*
X0074223Y0227017D01*
X0074193Y0227173D01*
X0074167Y0227329D01*
X0074146Y0227486D01*
X0074128Y0227643D01*
X0074114Y0227801D01*
X0074104Y0227959D01*
X0074098Y0228117D01*
X0074096Y0228275D01*
X0013850Y0243818D02*
X0013852Y0243976D01*
X0013858Y0244134D01*
X0013868Y0244292D01*
X0013882Y0244450D01*
X0013900Y0244607D01*
X0013921Y0244764D01*
X0013947Y0244920D01*
X0013977Y0245076D01*
X0014010Y0245231D01*
X0014048Y0245384D01*
X0014089Y0245537D01*
X0014134Y0245689D01*
X0014183Y0245840D01*
X0014236Y0245989D01*
X0014292Y0246137D01*
X0014352Y0246283D01*
X0014416Y0246428D01*
X0014484Y0246571D01*
X0014555Y0246713D01*
X0014629Y0246853D01*
X0014707Y0246990D01*
X0014789Y0247126D01*
X0014873Y0247260D01*
X0014962Y0247391D01*
X0015053Y0247520D01*
X0015148Y0247647D01*
X0015245Y0247772D01*
X0015346Y0247894D01*
X0015450Y0248013D01*
X0015557Y0248130D01*
X0015667Y0248244D01*
X0015780Y0248355D01*
X0015895Y0248464D01*
X0016013Y0248569D01*
X0016134Y0248671D01*
X0016257Y0248771D01*
X0016383Y0248867D01*
X0016511Y0248960D01*
X0016641Y0249050D01*
X0016774Y0249136D01*
X0016909Y0249220D01*
X0017045Y0249299D01*
X0017184Y0249376D01*
X0017325Y0249448D01*
X0017467Y0249518D01*
X0017611Y0249583D01*
X0017757Y0249645D01*
X0017904Y0249703D01*
X0018053Y0249758D01*
X0018203Y0249809D01*
X0018354Y0249856D01*
X0018506Y0249899D01*
X0018659Y0249938D01*
X0018814Y0249974D01*
X0018969Y0250005D01*
X0019125Y0250033D01*
X0019281Y0250057D01*
X0019438Y0250077D01*
X0019596Y0250093D01*
X0019753Y0250105D01*
X0019912Y0250113D01*
X0020070Y0250117D01*
X0020228Y0250117D01*
X0020386Y0250113D01*
X0020545Y0250105D01*
X0020702Y0250093D01*
X0020860Y0250077D01*
X0021017Y0250057D01*
X0021173Y0250033D01*
X0021329Y0250005D01*
X0021484Y0249974D01*
X0021639Y0249938D01*
X0021792Y0249899D01*
X0021944Y0249856D01*
X0022095Y0249809D01*
X0022245Y0249758D01*
X0022394Y0249703D01*
X0022541Y0249645D01*
X0022687Y0249583D01*
X0022831Y0249518D01*
X0022973Y0249448D01*
X0023114Y0249376D01*
X0023253Y0249299D01*
X0023389Y0249220D01*
X0023524Y0249136D01*
X0023657Y0249050D01*
X0023787Y0248960D01*
X0023915Y0248867D01*
X0024041Y0248771D01*
X0024164Y0248671D01*
X0024285Y0248569D01*
X0024403Y0248464D01*
X0024518Y0248355D01*
X0024631Y0248244D01*
X0024741Y0248130D01*
X0024848Y0248013D01*
X0024952Y0247894D01*
X0025053Y0247772D01*
X0025150Y0247647D01*
X0025245Y0247520D01*
X0025336Y0247391D01*
X0025425Y0247260D01*
X0025509Y0247126D01*
X0025591Y0246990D01*
X0025669Y0246853D01*
X0025743Y0246713D01*
X0025814Y0246571D01*
X0025882Y0246428D01*
X0025946Y0246283D01*
X0026006Y0246137D01*
X0026062Y0245989D01*
X0026115Y0245840D01*
X0026164Y0245689D01*
X0026209Y0245537D01*
X0026250Y0245384D01*
X0026288Y0245231D01*
X0026321Y0245076D01*
X0026351Y0244920D01*
X0026377Y0244764D01*
X0026398Y0244607D01*
X0026416Y0244450D01*
X0026430Y0244292D01*
X0026440Y0244134D01*
X0026446Y0243976D01*
X0026448Y0243818D01*
X0026446Y0243660D01*
X0026440Y0243502D01*
X0026430Y0243344D01*
X0026416Y0243186D01*
X0026398Y0243029D01*
X0026377Y0242872D01*
X0026351Y0242716D01*
X0026321Y0242560D01*
X0026288Y0242405D01*
X0026250Y0242252D01*
X0026209Y0242099D01*
X0026164Y0241947D01*
X0026115Y0241796D01*
X0026062Y0241647D01*
X0026006Y0241499D01*
X0025946Y0241353D01*
X0025882Y0241208D01*
X0025814Y0241065D01*
X0025743Y0240923D01*
X0025669Y0240783D01*
X0025591Y0240646D01*
X0025509Y0240510D01*
X0025425Y0240376D01*
X0025336Y0240245D01*
X0025245Y0240116D01*
X0025150Y0239989D01*
X0025053Y0239864D01*
X0024952Y0239742D01*
X0024848Y0239623D01*
X0024741Y0239506D01*
X0024631Y0239392D01*
X0024518Y0239281D01*
X0024403Y0239172D01*
X0024285Y0239067D01*
X0024164Y0238965D01*
X0024041Y0238865D01*
X0023915Y0238769D01*
X0023787Y0238676D01*
X0023657Y0238586D01*
X0023524Y0238500D01*
X0023389Y0238416D01*
X0023253Y0238337D01*
X0023114Y0238260D01*
X0022973Y0238188D01*
X0022831Y0238118D01*
X0022687Y0238053D01*
X0022541Y0237991D01*
X0022394Y0237933D01*
X0022245Y0237878D01*
X0022095Y0237827D01*
X0021944Y0237780D01*
X0021792Y0237737D01*
X0021639Y0237698D01*
X0021484Y0237662D01*
X0021329Y0237631D01*
X0021173Y0237603D01*
X0021017Y0237579D01*
X0020860Y0237559D01*
X0020702Y0237543D01*
X0020545Y0237531D01*
X0020386Y0237523D01*
X0020228Y0237519D01*
X0020070Y0237519D01*
X0019912Y0237523D01*
X0019753Y0237531D01*
X0019596Y0237543D01*
X0019438Y0237559D01*
X0019281Y0237579D01*
X0019125Y0237603D01*
X0018969Y0237631D01*
X0018814Y0237662D01*
X0018659Y0237698D01*
X0018506Y0237737D01*
X0018354Y0237780D01*
X0018203Y0237827D01*
X0018053Y0237878D01*
X0017904Y0237933D01*
X0017757Y0237991D01*
X0017611Y0238053D01*
X0017467Y0238118D01*
X0017325Y0238188D01*
X0017184Y0238260D01*
X0017045Y0238337D01*
X0016909Y0238416D01*
X0016774Y0238500D01*
X0016641Y0238586D01*
X0016511Y0238676D01*
X0016383Y0238769D01*
X0016257Y0238865D01*
X0016134Y0238965D01*
X0016013Y0239067D01*
X0015895Y0239172D01*
X0015780Y0239281D01*
X0015667Y0239392D01*
X0015557Y0239506D01*
X0015450Y0239623D01*
X0015346Y0239742D01*
X0015245Y0239864D01*
X0015148Y0239989D01*
X0015053Y0240116D01*
X0014962Y0240245D01*
X0014873Y0240376D01*
X0014789Y0240510D01*
X0014707Y0240646D01*
X0014629Y0240783D01*
X0014555Y0240923D01*
X0014484Y0241065D01*
X0014416Y0241208D01*
X0014352Y0241353D01*
X0014292Y0241499D01*
X0014236Y0241647D01*
X0014183Y0241796D01*
X0014134Y0241947D01*
X0014089Y0242099D01*
X0014048Y0242252D01*
X0014010Y0242405D01*
X0013977Y0242560D01*
X0013947Y0242716D01*
X0013921Y0242872D01*
X0013900Y0243029D01*
X0013882Y0243186D01*
X0013868Y0243344D01*
X0013858Y0243502D01*
X0013852Y0243660D01*
X0013850Y0243818D01*
X0302443Y0228275D02*
X0302445Y0228433D01*
X0302451Y0228591D01*
X0302461Y0228749D01*
X0302475Y0228907D01*
X0302493Y0229064D01*
X0302514Y0229221D01*
X0302540Y0229377D01*
X0302570Y0229533D01*
X0302603Y0229688D01*
X0302641Y0229841D01*
X0302682Y0229994D01*
X0302727Y0230146D01*
X0302776Y0230297D01*
X0302829Y0230446D01*
X0302885Y0230594D01*
X0302945Y0230740D01*
X0303009Y0230885D01*
X0303077Y0231028D01*
X0303148Y0231170D01*
X0303222Y0231310D01*
X0303300Y0231447D01*
X0303382Y0231583D01*
X0303466Y0231717D01*
X0303555Y0231848D01*
X0303646Y0231977D01*
X0303741Y0232104D01*
X0303838Y0232229D01*
X0303939Y0232351D01*
X0304043Y0232470D01*
X0304150Y0232587D01*
X0304260Y0232701D01*
X0304373Y0232812D01*
X0304488Y0232921D01*
X0304606Y0233026D01*
X0304727Y0233128D01*
X0304850Y0233228D01*
X0304976Y0233324D01*
X0305104Y0233417D01*
X0305234Y0233507D01*
X0305367Y0233593D01*
X0305502Y0233677D01*
X0305638Y0233756D01*
X0305777Y0233833D01*
X0305918Y0233905D01*
X0306060Y0233975D01*
X0306204Y0234040D01*
X0306350Y0234102D01*
X0306497Y0234160D01*
X0306646Y0234215D01*
X0306796Y0234266D01*
X0306947Y0234313D01*
X0307099Y0234356D01*
X0307252Y0234395D01*
X0307407Y0234431D01*
X0307562Y0234462D01*
X0307718Y0234490D01*
X0307874Y0234514D01*
X0308031Y0234534D01*
X0308189Y0234550D01*
X0308346Y0234562D01*
X0308505Y0234570D01*
X0308663Y0234574D01*
X0308821Y0234574D01*
X0308979Y0234570D01*
X0309138Y0234562D01*
X0309295Y0234550D01*
X0309453Y0234534D01*
X0309610Y0234514D01*
X0309766Y0234490D01*
X0309922Y0234462D01*
X0310077Y0234431D01*
X0310232Y0234395D01*
X0310385Y0234356D01*
X0310537Y0234313D01*
X0310688Y0234266D01*
X0310838Y0234215D01*
X0310987Y0234160D01*
X0311134Y0234102D01*
X0311280Y0234040D01*
X0311424Y0233975D01*
X0311566Y0233905D01*
X0311707Y0233833D01*
X0311846Y0233756D01*
X0311982Y0233677D01*
X0312117Y0233593D01*
X0312250Y0233507D01*
X0312380Y0233417D01*
X0312508Y0233324D01*
X0312634Y0233228D01*
X0312757Y0233128D01*
X0312878Y0233026D01*
X0312996Y0232921D01*
X0313111Y0232812D01*
X0313224Y0232701D01*
X0313334Y0232587D01*
X0313441Y0232470D01*
X0313545Y0232351D01*
X0313646Y0232229D01*
X0313743Y0232104D01*
X0313838Y0231977D01*
X0313929Y0231848D01*
X0314018Y0231717D01*
X0314102Y0231583D01*
X0314184Y0231447D01*
X0314262Y0231310D01*
X0314336Y0231170D01*
X0314407Y0231028D01*
X0314475Y0230885D01*
X0314539Y0230740D01*
X0314599Y0230594D01*
X0314655Y0230446D01*
X0314708Y0230297D01*
X0314757Y0230146D01*
X0314802Y0229994D01*
X0314843Y0229841D01*
X0314881Y0229688D01*
X0314914Y0229533D01*
X0314944Y0229377D01*
X0314970Y0229221D01*
X0314991Y0229064D01*
X0315009Y0228907D01*
X0315023Y0228749D01*
X0315033Y0228591D01*
X0315039Y0228433D01*
X0315041Y0228275D01*
X0315039Y0228117D01*
X0315033Y0227959D01*
X0315023Y0227801D01*
X0315009Y0227643D01*
X0314991Y0227486D01*
X0314970Y0227329D01*
X0314944Y0227173D01*
X0314914Y0227017D01*
X0314881Y0226862D01*
X0314843Y0226709D01*
X0314802Y0226556D01*
X0314757Y0226404D01*
X0314708Y0226253D01*
X0314655Y0226104D01*
X0314599Y0225956D01*
X0314539Y0225810D01*
X0314475Y0225665D01*
X0314407Y0225522D01*
X0314336Y0225380D01*
X0314262Y0225240D01*
X0314184Y0225103D01*
X0314102Y0224967D01*
X0314018Y0224833D01*
X0313929Y0224702D01*
X0313838Y0224573D01*
X0313743Y0224446D01*
X0313646Y0224321D01*
X0313545Y0224199D01*
X0313441Y0224080D01*
X0313334Y0223963D01*
X0313224Y0223849D01*
X0313111Y0223738D01*
X0312996Y0223629D01*
X0312878Y0223524D01*
X0312757Y0223422D01*
X0312634Y0223322D01*
X0312508Y0223226D01*
X0312380Y0223133D01*
X0312250Y0223043D01*
X0312117Y0222957D01*
X0311982Y0222873D01*
X0311846Y0222794D01*
X0311707Y0222717D01*
X0311566Y0222645D01*
X0311424Y0222575D01*
X0311280Y0222510D01*
X0311134Y0222448D01*
X0310987Y0222390D01*
X0310838Y0222335D01*
X0310688Y0222284D01*
X0310537Y0222237D01*
X0310385Y0222194D01*
X0310232Y0222155D01*
X0310077Y0222119D01*
X0309922Y0222088D01*
X0309766Y0222060D01*
X0309610Y0222036D01*
X0309453Y0222016D01*
X0309295Y0222000D01*
X0309138Y0221988D01*
X0308979Y0221980D01*
X0308821Y0221976D01*
X0308663Y0221976D01*
X0308505Y0221980D01*
X0308346Y0221988D01*
X0308189Y0222000D01*
X0308031Y0222016D01*
X0307874Y0222036D01*
X0307718Y0222060D01*
X0307562Y0222088D01*
X0307407Y0222119D01*
X0307252Y0222155D01*
X0307099Y0222194D01*
X0306947Y0222237D01*
X0306796Y0222284D01*
X0306646Y0222335D01*
X0306497Y0222390D01*
X0306350Y0222448D01*
X0306204Y0222510D01*
X0306060Y0222575D01*
X0305918Y0222645D01*
X0305777Y0222717D01*
X0305638Y0222794D01*
X0305502Y0222873D01*
X0305367Y0222957D01*
X0305234Y0223043D01*
X0305104Y0223133D01*
X0304976Y0223226D01*
X0304850Y0223322D01*
X0304727Y0223422D01*
X0304606Y0223524D01*
X0304488Y0223629D01*
X0304373Y0223738D01*
X0304260Y0223849D01*
X0304150Y0223963D01*
X0304043Y0224080D01*
X0303939Y0224199D01*
X0303838Y0224321D01*
X0303741Y0224446D01*
X0303646Y0224573D01*
X0303555Y0224702D01*
X0303466Y0224833D01*
X0303382Y0224967D01*
X0303300Y0225103D01*
X0303222Y0225240D01*
X0303148Y0225380D01*
X0303077Y0225522D01*
X0303009Y0225665D01*
X0302945Y0225810D01*
X0302885Y0225956D01*
X0302829Y0226104D01*
X0302776Y0226253D01*
X0302727Y0226404D01*
X0302682Y0226556D01*
X0302641Y0226709D01*
X0302603Y0226862D01*
X0302570Y0227017D01*
X0302540Y0227173D01*
X0302514Y0227329D01*
X0302493Y0227486D01*
X0302475Y0227643D01*
X0302461Y0227801D01*
X0302451Y0227959D01*
X0302445Y0228117D01*
X0302443Y0228275D01*
X0302443Y0035362D02*
X0302445Y0035520D01*
X0302451Y0035678D01*
X0302461Y0035836D01*
X0302475Y0035994D01*
X0302493Y0036151D01*
X0302514Y0036308D01*
X0302540Y0036464D01*
X0302570Y0036620D01*
X0302603Y0036775D01*
X0302641Y0036928D01*
X0302682Y0037081D01*
X0302727Y0037233D01*
X0302776Y0037384D01*
X0302829Y0037533D01*
X0302885Y0037681D01*
X0302945Y0037827D01*
X0303009Y0037972D01*
X0303077Y0038115D01*
X0303148Y0038257D01*
X0303222Y0038397D01*
X0303300Y0038534D01*
X0303382Y0038670D01*
X0303466Y0038804D01*
X0303555Y0038935D01*
X0303646Y0039064D01*
X0303741Y0039191D01*
X0303838Y0039316D01*
X0303939Y0039438D01*
X0304043Y0039557D01*
X0304150Y0039674D01*
X0304260Y0039788D01*
X0304373Y0039899D01*
X0304488Y0040008D01*
X0304606Y0040113D01*
X0304727Y0040215D01*
X0304850Y0040315D01*
X0304976Y0040411D01*
X0305104Y0040504D01*
X0305234Y0040594D01*
X0305367Y0040680D01*
X0305502Y0040764D01*
X0305638Y0040843D01*
X0305777Y0040920D01*
X0305918Y0040992D01*
X0306060Y0041062D01*
X0306204Y0041127D01*
X0306350Y0041189D01*
X0306497Y0041247D01*
X0306646Y0041302D01*
X0306796Y0041353D01*
X0306947Y0041400D01*
X0307099Y0041443D01*
X0307252Y0041482D01*
X0307407Y0041518D01*
X0307562Y0041549D01*
X0307718Y0041577D01*
X0307874Y0041601D01*
X0308031Y0041621D01*
X0308189Y0041637D01*
X0308346Y0041649D01*
X0308505Y0041657D01*
X0308663Y0041661D01*
X0308821Y0041661D01*
X0308979Y0041657D01*
X0309138Y0041649D01*
X0309295Y0041637D01*
X0309453Y0041621D01*
X0309610Y0041601D01*
X0309766Y0041577D01*
X0309922Y0041549D01*
X0310077Y0041518D01*
X0310232Y0041482D01*
X0310385Y0041443D01*
X0310537Y0041400D01*
X0310688Y0041353D01*
X0310838Y0041302D01*
X0310987Y0041247D01*
X0311134Y0041189D01*
X0311280Y0041127D01*
X0311424Y0041062D01*
X0311566Y0040992D01*
X0311707Y0040920D01*
X0311846Y0040843D01*
X0311982Y0040764D01*
X0312117Y0040680D01*
X0312250Y0040594D01*
X0312380Y0040504D01*
X0312508Y0040411D01*
X0312634Y0040315D01*
X0312757Y0040215D01*
X0312878Y0040113D01*
X0312996Y0040008D01*
X0313111Y0039899D01*
X0313224Y0039788D01*
X0313334Y0039674D01*
X0313441Y0039557D01*
X0313545Y0039438D01*
X0313646Y0039316D01*
X0313743Y0039191D01*
X0313838Y0039064D01*
X0313929Y0038935D01*
X0314018Y0038804D01*
X0314102Y0038670D01*
X0314184Y0038534D01*
X0314262Y0038397D01*
X0314336Y0038257D01*
X0314407Y0038115D01*
X0314475Y0037972D01*
X0314539Y0037827D01*
X0314599Y0037681D01*
X0314655Y0037533D01*
X0314708Y0037384D01*
X0314757Y0037233D01*
X0314802Y0037081D01*
X0314843Y0036928D01*
X0314881Y0036775D01*
X0314914Y0036620D01*
X0314944Y0036464D01*
X0314970Y0036308D01*
X0314991Y0036151D01*
X0315009Y0035994D01*
X0315023Y0035836D01*
X0315033Y0035678D01*
X0315039Y0035520D01*
X0315041Y0035362D01*
X0315039Y0035204D01*
X0315033Y0035046D01*
X0315023Y0034888D01*
X0315009Y0034730D01*
X0314991Y0034573D01*
X0314970Y0034416D01*
X0314944Y0034260D01*
X0314914Y0034104D01*
X0314881Y0033949D01*
X0314843Y0033796D01*
X0314802Y0033643D01*
X0314757Y0033491D01*
X0314708Y0033340D01*
X0314655Y0033191D01*
X0314599Y0033043D01*
X0314539Y0032897D01*
X0314475Y0032752D01*
X0314407Y0032609D01*
X0314336Y0032467D01*
X0314262Y0032327D01*
X0314184Y0032190D01*
X0314102Y0032054D01*
X0314018Y0031920D01*
X0313929Y0031789D01*
X0313838Y0031660D01*
X0313743Y0031533D01*
X0313646Y0031408D01*
X0313545Y0031286D01*
X0313441Y0031167D01*
X0313334Y0031050D01*
X0313224Y0030936D01*
X0313111Y0030825D01*
X0312996Y0030716D01*
X0312878Y0030611D01*
X0312757Y0030509D01*
X0312634Y0030409D01*
X0312508Y0030313D01*
X0312380Y0030220D01*
X0312250Y0030130D01*
X0312117Y0030044D01*
X0311982Y0029960D01*
X0311846Y0029881D01*
X0311707Y0029804D01*
X0311566Y0029732D01*
X0311424Y0029662D01*
X0311280Y0029597D01*
X0311134Y0029535D01*
X0310987Y0029477D01*
X0310838Y0029422D01*
X0310688Y0029371D01*
X0310537Y0029324D01*
X0310385Y0029281D01*
X0310232Y0029242D01*
X0310077Y0029206D01*
X0309922Y0029175D01*
X0309766Y0029147D01*
X0309610Y0029123D01*
X0309453Y0029103D01*
X0309295Y0029087D01*
X0309138Y0029075D01*
X0308979Y0029067D01*
X0308821Y0029063D01*
X0308663Y0029063D01*
X0308505Y0029067D01*
X0308346Y0029075D01*
X0308189Y0029087D01*
X0308031Y0029103D01*
X0307874Y0029123D01*
X0307718Y0029147D01*
X0307562Y0029175D01*
X0307407Y0029206D01*
X0307252Y0029242D01*
X0307099Y0029281D01*
X0306947Y0029324D01*
X0306796Y0029371D01*
X0306646Y0029422D01*
X0306497Y0029477D01*
X0306350Y0029535D01*
X0306204Y0029597D01*
X0306060Y0029662D01*
X0305918Y0029732D01*
X0305777Y0029804D01*
X0305638Y0029881D01*
X0305502Y0029960D01*
X0305367Y0030044D01*
X0305234Y0030130D01*
X0305104Y0030220D01*
X0304976Y0030313D01*
X0304850Y0030409D01*
X0304727Y0030509D01*
X0304606Y0030611D01*
X0304488Y0030716D01*
X0304373Y0030825D01*
X0304260Y0030936D01*
X0304150Y0031050D01*
X0304043Y0031167D01*
X0303939Y0031286D01*
X0303838Y0031408D01*
X0303741Y0031533D01*
X0303646Y0031660D01*
X0303555Y0031789D01*
X0303466Y0031920D01*
X0303382Y0032054D01*
X0303300Y0032190D01*
X0303222Y0032327D01*
X0303148Y0032467D01*
X0303077Y0032609D01*
X0303009Y0032752D01*
X0302945Y0032897D01*
X0302885Y0033043D01*
X0302829Y0033191D01*
X0302776Y0033340D01*
X0302727Y0033491D01*
X0302682Y0033643D01*
X0302641Y0033796D01*
X0302603Y0033949D01*
X0302570Y0034104D01*
X0302540Y0034260D01*
X0302514Y0034416D01*
X0302493Y0034573D01*
X0302475Y0034730D01*
X0302461Y0034888D01*
X0302451Y0035046D01*
X0302445Y0035204D01*
X0302443Y0035362D01*
D11*
X0251645Y0014881D03*
X0241645Y0014881D03*
X0231645Y0014881D03*
X0081567Y0014881D03*
X0071567Y0014881D03*
X0061567Y0014881D03*
X0071488Y0256219D03*
X0081488Y0256219D03*
X0091488Y0256219D03*
X0101488Y0256219D03*
X0111488Y0256219D03*
X0121488Y0256219D03*
X0131488Y0256219D03*
X0141488Y0256219D03*
X0151488Y0256219D03*
X0161488Y0256219D03*
X0171488Y0256219D03*
X0181488Y0256219D03*
X0191488Y0256219D03*
X0201488Y0256219D03*
X0211488Y0256219D03*
X0221488Y0256219D03*
X0231488Y0256219D03*
X0241488Y0256219D03*
X0251488Y0256219D03*
X0261488Y0256219D03*
D12*
X0099569Y0223275D03*
D13*
X0109569Y0223275D03*
X0119569Y0223275D03*
X0129569Y0223275D03*
X0139569Y0223275D03*
X0149569Y0223275D03*
X0159569Y0223275D03*
X0169569Y0223275D03*
X0179569Y0223275D03*
X0189569Y0223275D03*
X0199569Y0223275D03*
X0209569Y0223275D03*
X0219569Y0223275D03*
X0229569Y0223275D03*
X0239569Y0223275D03*
X0249569Y0223275D03*
X0259569Y0223275D03*
X0269569Y0223275D03*
X0279569Y0223275D03*
X0289569Y0223275D03*
X0289569Y0233275D03*
X0279569Y0233275D03*
X0269569Y0233275D03*
X0259569Y0233275D03*
X0249569Y0233275D03*
X0239569Y0233275D03*
X0229569Y0233275D03*
X0219569Y0233275D03*
X0209569Y0233275D03*
X0199569Y0233275D03*
X0189569Y0233275D03*
X0179569Y0233275D03*
X0169569Y0233275D03*
X0159569Y0233275D03*
X0149569Y0233275D03*
X0139569Y0233275D03*
X0129569Y0233275D03*
X0119569Y0233275D03*
X0109569Y0233275D03*
X0099569Y0233275D03*
D14*
X0045119Y0202361D02*
X0036519Y0202361D01*
X0021921Y0194850D02*
X0021921Y0186250D01*
X0036519Y0178739D02*
X0045119Y0178739D01*
D15*
X0045719Y0228050D02*
X0050919Y0228050D01*
X0050919Y0238050D02*
X0045719Y0238050D01*
X0045719Y0248050D02*
X0050919Y0248050D01*
D16*
X0048319Y0248050D02*
X0055319Y0248050D01*
X0055319Y0248396D01*
X0055210Y0249080D01*
X0054996Y0249739D01*
X0054682Y0250356D01*
X0054275Y0250916D01*
X0053785Y0251406D01*
X0053225Y0251813D01*
X0052608Y0252128D01*
X0051949Y0252342D01*
X0051265Y0252450D01*
X0048319Y0252450D01*
X0048319Y0248050D01*
X0048319Y0248050D01*
X0055319Y0248050D01*
X0055319Y0247704D01*
X0055210Y0247020D01*
X0054996Y0246361D01*
X0054682Y0245744D01*
X0054275Y0245184D01*
X0053785Y0244694D01*
X0053225Y0244287D01*
X0052608Y0243972D01*
X0051949Y0243758D01*
X0051265Y0243650D01*
X0048319Y0243650D01*
X0048319Y0248050D01*
X0048318Y0248050D01*
X0041319Y0248050D01*
X0048318Y0248050D01*
X0048318Y0248050D01*
X0048318Y0243650D01*
X0045372Y0243650D01*
X0044688Y0243758D01*
X0044030Y0243972D01*
X0043412Y0244287D01*
X0042852Y0244694D01*
X0042362Y0245184D01*
X0041955Y0245744D01*
X0041641Y0246361D01*
X0041427Y0247020D01*
X0041319Y0247704D01*
X0041319Y0248050D01*
X0041319Y0248396D01*
X0041427Y0249080D01*
X0041641Y0249739D01*
X0041955Y0250356D01*
X0042362Y0250916D01*
X0042852Y0251406D01*
X0043412Y0251813D01*
X0044030Y0252128D01*
X0044688Y0252342D01*
X0045372Y0252450D01*
X0048318Y0252450D01*
X0048318Y0248050D01*
X0048319Y0248050D01*
X0048318Y0247649D02*
X0048319Y0247649D01*
X0048318Y0249247D02*
X0048319Y0249247D01*
X0048318Y0250846D02*
X0048319Y0250846D01*
X0048318Y0252444D02*
X0048319Y0252444D01*
X0051301Y0252444D02*
X0069692Y0252444D01*
X0069123Y0252680D02*
X0070657Y0252044D01*
X0072318Y0252044D01*
X0073853Y0252680D01*
X0075027Y0253854D01*
X0075663Y0255389D01*
X0075663Y0257050D01*
X0075027Y0258584D01*
X0073853Y0259759D01*
X0072318Y0260394D01*
X0070657Y0260394D01*
X0069123Y0259759D01*
X0067949Y0258584D01*
X0067313Y0257050D01*
X0067313Y0255389D01*
X0067949Y0253854D01*
X0069123Y0252680D01*
X0067871Y0254043D02*
X0024637Y0254043D01*
X0024433Y0254161D02*
X0021610Y0254917D01*
X0018688Y0254917D01*
X0015865Y0254161D01*
X0013334Y0252699D01*
X0013197Y0252562D01*
X0013197Y0263250D01*
X0317269Y0263250D01*
X0317269Y0238027D01*
X0313966Y0240184D01*
X0309816Y0241235D01*
X0305549Y0240882D01*
X0301629Y0239162D01*
X0298479Y0236263D01*
X0296442Y0232498D01*
X0295737Y0228275D01*
X0296442Y0224052D01*
X0298479Y0220287D01*
X0301629Y0217388D01*
X0305549Y0215668D01*
X0309816Y0215315D01*
X0313966Y0216366D01*
X0317269Y0218523D01*
X0317269Y0045113D01*
X0313966Y0047271D01*
X0309816Y0048322D01*
X0305549Y0047968D01*
X0301629Y0046249D01*
X0298479Y0043349D01*
X0296442Y0039584D01*
X0295737Y0035362D01*
X0296442Y0031139D01*
X0298479Y0027374D01*
X0301629Y0024474D01*
X0305549Y0022755D01*
X0309816Y0022401D01*
X0313966Y0023452D01*
X0317269Y0025610D01*
X0317269Y0007899D01*
X0013197Y0007899D01*
X0013197Y0235073D01*
X0013334Y0234936D01*
X0015865Y0233475D01*
X0018688Y0232719D01*
X0021610Y0232719D01*
X0024433Y0233475D01*
X0026964Y0234936D01*
X0029031Y0237003D01*
X0030492Y0239534D01*
X0031248Y0242356D01*
X0031248Y0245279D01*
X0030492Y0248102D01*
X0029031Y0250633D01*
X0026964Y0252699D01*
X0024433Y0254161D01*
X0027219Y0252444D02*
X0045336Y0252444D01*
X0042311Y0250846D02*
X0028818Y0250846D01*
X0029831Y0249247D02*
X0041481Y0249247D01*
X0041327Y0247649D02*
X0030613Y0247649D01*
X0031042Y0246050D02*
X0041799Y0246050D01*
X0043186Y0244452D02*
X0031248Y0244452D01*
X0031248Y0242853D02*
X0101554Y0242853D01*
X0102057Y0242645D02*
X0103325Y0242645D01*
X0104496Y0243130D01*
X0105098Y0243732D01*
X0115796Y0243732D01*
X0122366Y0237162D01*
X0122366Y0236983D01*
X0121474Y0237875D01*
X0117663Y0237875D01*
X0114969Y0235180D01*
X0114969Y0231370D01*
X0117663Y0228675D01*
X0121474Y0228675D01*
X0122366Y0229567D01*
X0122366Y0227508D01*
X0123596Y0226278D01*
X0124969Y0224905D01*
X0124969Y0221370D01*
X0127663Y0218675D01*
X0131474Y0218675D01*
X0132441Y0219642D01*
X0132441Y0146602D01*
X0048633Y0062794D01*
X0047782Y0062794D01*
X0046610Y0062309D01*
X0045714Y0061413D01*
X0045228Y0060241D01*
X0045228Y0058973D01*
X0045714Y0057802D01*
X0046610Y0056905D01*
X0047782Y0056420D01*
X0049050Y0056420D01*
X0050221Y0056905D01*
X0051118Y0057802D01*
X0051603Y0058973D01*
X0051603Y0059825D01*
X0136641Y0144862D01*
X0136641Y0219697D01*
X0137663Y0218675D01*
X0141474Y0218675D01*
X0142516Y0219717D01*
X0142516Y0146602D01*
X0058536Y0062622D01*
X0057685Y0062622D01*
X0056513Y0062137D01*
X0055616Y0061240D01*
X0055131Y0060069D01*
X0055131Y0058801D01*
X0055616Y0057629D01*
X0056513Y0056733D01*
X0057685Y0056247D01*
X0058953Y0056247D01*
X0060124Y0056733D01*
X0061021Y0057629D01*
X0061506Y0058801D01*
X0061506Y0059652D01*
X0146716Y0144862D01*
X0146716Y0219622D01*
X0147663Y0218675D01*
X0151474Y0218675D01*
X0154169Y0221370D01*
X0154169Y0225180D01*
X0151474Y0227875D01*
X0147663Y0227875D01*
X0146716Y0226928D01*
X0146716Y0229098D01*
X0145486Y0230328D01*
X0144169Y0231645D01*
X0144169Y0235180D01*
X0141474Y0237875D01*
X0137663Y0237875D01*
X0134969Y0235180D01*
X0134969Y0231370D01*
X0137663Y0228675D01*
X0141199Y0228675D01*
X0142516Y0227358D01*
X0142516Y0226833D01*
X0141474Y0227875D01*
X0137663Y0227875D01*
X0136641Y0226853D01*
X0136641Y0229173D01*
X0135411Y0230403D01*
X0134169Y0231645D01*
X0134169Y0235180D01*
X0131474Y0237875D01*
X0127663Y0237875D01*
X0126566Y0236778D01*
X0126566Y0238207D01*
X0169746Y0238207D01*
X0170078Y0237875D01*
X0167663Y0237875D01*
X0164969Y0235180D01*
X0164969Y0231370D01*
X0167663Y0228675D01*
X0171474Y0228675D01*
X0172613Y0229815D01*
X0176108Y0226320D01*
X0174969Y0225180D01*
X0174969Y0221370D01*
X0177663Y0218675D01*
X0181474Y0218675D01*
X0184169Y0221370D01*
X0184169Y0225084D01*
X0184969Y0224284D01*
X0184969Y0221370D01*
X0187663Y0218675D01*
X0191474Y0218675D01*
X0194169Y0221370D01*
X0194169Y0225159D01*
X0194969Y0224359D01*
X0194969Y0221370D01*
X0197663Y0218675D01*
X0201474Y0218675D01*
X0204169Y0221370D01*
X0204169Y0225180D01*
X0203167Y0226182D01*
X0203692Y0226182D01*
X0204969Y0224905D01*
X0204969Y0221370D01*
X0207663Y0218675D01*
X0211474Y0218675D01*
X0214169Y0221370D01*
X0214169Y0225180D01*
X0211474Y0227875D01*
X0207938Y0227875D01*
X0206661Y0229152D01*
X0205431Y0230382D01*
X0203181Y0230382D01*
X0204169Y0231370D01*
X0204169Y0235180D01*
X0201669Y0237680D01*
X0201669Y0245049D01*
X0195211Y0251507D01*
X0149170Y0251507D01*
X0145553Y0255124D01*
X0145663Y0255389D01*
X0145663Y0257050D01*
X0145121Y0258357D01*
X0147855Y0258357D01*
X0147313Y0257050D01*
X0147313Y0255389D01*
X0147949Y0253854D01*
X0149123Y0252680D01*
X0150657Y0252044D01*
X0152318Y0252044D01*
X0153853Y0252680D01*
X0155027Y0253854D01*
X0155663Y0255389D01*
X0155663Y0257050D01*
X0155121Y0258357D01*
X0157855Y0258357D01*
X0157313Y0257050D01*
X0157313Y0255389D01*
X0157949Y0253854D01*
X0159123Y0252680D01*
X0160657Y0252044D01*
X0162318Y0252044D01*
X0163853Y0252680D01*
X0165027Y0253854D01*
X0165663Y0255389D01*
X0165663Y0257050D01*
X0165121Y0258357D01*
X0167855Y0258357D01*
X0167313Y0257050D01*
X0167313Y0255389D01*
X0167949Y0253854D01*
X0169123Y0252680D01*
X0170657Y0252044D01*
X0172318Y0252044D01*
X0173853Y0252680D01*
X0175027Y0253854D01*
X0175663Y0255389D01*
X0175663Y0257050D01*
X0175121Y0258357D01*
X0177855Y0258357D01*
X0177313Y0257050D01*
X0177313Y0255389D01*
X0177949Y0253854D01*
X0179123Y0252680D01*
X0180657Y0252044D01*
X0182318Y0252044D01*
X0183853Y0252680D01*
X0185027Y0253854D01*
X0185663Y0255389D01*
X0185663Y0257050D01*
X0185121Y0258357D01*
X0187855Y0258357D01*
X0187313Y0257050D01*
X0187313Y0255389D01*
X0187949Y0253854D01*
X0189123Y0252680D01*
X0190657Y0252044D01*
X0192318Y0252044D01*
X0193853Y0252680D01*
X0194388Y0253215D01*
X0207469Y0240134D01*
X0207469Y0237680D01*
X0204969Y0235180D01*
X0204969Y0231370D01*
X0207663Y0228675D01*
X0211474Y0228675D01*
X0214169Y0231370D01*
X0214169Y0235180D01*
X0211669Y0237680D01*
X0211669Y0241874D01*
X0201498Y0252044D01*
X0202318Y0252044D01*
X0203853Y0252680D01*
X0205027Y0253854D01*
X0205663Y0255389D01*
X0205663Y0257050D01*
X0205027Y0258584D01*
X0203853Y0259759D01*
X0202318Y0260394D01*
X0200657Y0260394D01*
X0199123Y0259759D01*
X0198391Y0259026D01*
X0198391Y0259052D01*
X0197161Y0260282D01*
X0194886Y0262557D01*
X0104856Y0262557D01*
X0103626Y0261327D01*
X0102583Y0260284D01*
X0102318Y0260394D01*
X0100657Y0260394D01*
X0099123Y0259759D01*
X0097949Y0258584D01*
X0097313Y0257050D01*
X0097313Y0255389D01*
X0097949Y0253854D01*
X0099123Y0252680D01*
X0100657Y0252044D01*
X0102318Y0252044D01*
X0103853Y0252680D01*
X0105027Y0253854D01*
X0105663Y0255389D01*
X0105663Y0257050D01*
X0105553Y0257315D01*
X0106595Y0258357D01*
X0107855Y0258357D01*
X0107313Y0257050D01*
X0107313Y0255389D01*
X0107949Y0253854D01*
X0109123Y0252680D01*
X0110657Y0252044D01*
X0112318Y0252044D01*
X0112583Y0252154D01*
X0116805Y0247932D01*
X0105098Y0247932D01*
X0104496Y0248534D01*
X0103325Y0249019D01*
X0102057Y0249019D01*
X0100885Y0248534D01*
X0099989Y0247638D01*
X0099503Y0246466D01*
X0099503Y0245198D01*
X0099989Y0244027D01*
X0100885Y0243130D01*
X0102057Y0242645D01*
X0103828Y0242853D02*
X0116675Y0242853D01*
X0118273Y0241255D02*
X0053654Y0241255D01*
X0053298Y0241611D02*
X0051754Y0242250D01*
X0044883Y0242250D01*
X0043339Y0241611D01*
X0042158Y0240429D01*
X0041519Y0238885D01*
X0041519Y0237215D01*
X0042158Y0235671D01*
X0043339Y0234489D01*
X0044883Y0233850D01*
X0051754Y0233850D01*
X0053298Y0234489D01*
X0054479Y0235671D01*
X0055119Y0237215D01*
X0055119Y0238885D01*
X0054479Y0240429D01*
X0053298Y0241611D01*
X0054799Y0239656D02*
X0074409Y0239656D01*
X0073282Y0239162D02*
X0070133Y0236263D01*
X0068095Y0232498D01*
X0067391Y0228275D01*
X0068095Y0224052D01*
X0070133Y0220287D01*
X0073282Y0217388D01*
X0077203Y0215668D01*
X0081469Y0215315D01*
X0085619Y0216366D01*
X0089203Y0218707D01*
X0091833Y0222085D01*
X0093223Y0226134D01*
X0093223Y0230416D01*
X0091833Y0234465D01*
X0089203Y0237843D01*
X0085619Y0240184D01*
X0081469Y0241235D01*
X0077203Y0240882D01*
X0073282Y0239162D01*
X0072083Y0238058D02*
X0055119Y0238058D01*
X0054806Y0236459D02*
X0070346Y0236459D01*
X0069374Y0234861D02*
X0053669Y0234861D01*
X0053170Y0231664D02*
X0067956Y0231664D01*
X0067689Y0230065D02*
X0054630Y0230065D01*
X0054479Y0230429D02*
X0053298Y0231611D01*
X0051754Y0232250D01*
X0044883Y0232250D01*
X0043339Y0231611D01*
X0042158Y0230429D01*
X0041519Y0228885D01*
X0041519Y0227215D01*
X0042158Y0225671D01*
X0043339Y0224489D01*
X0044883Y0223850D01*
X0051754Y0223850D01*
X0053298Y0224489D01*
X0054479Y0225671D01*
X0055119Y0227215D01*
X0055119Y0228885D01*
X0054479Y0230429D01*
X0055119Y0228467D02*
X0067423Y0228467D01*
X0067625Y0226868D02*
X0054975Y0226868D01*
X0054078Y0225270D02*
X0067892Y0225270D01*
X0068302Y0223671D02*
X0013197Y0223671D01*
X0013197Y0222072D02*
X0069167Y0222072D01*
X0070032Y0220474D02*
X0013197Y0220474D01*
X0013197Y0218875D02*
X0071666Y0218875D01*
X0073535Y0217277D02*
X0013197Y0217277D01*
X0013197Y0215678D02*
X0077180Y0215678D01*
X0082906Y0215678D02*
X0132441Y0215678D01*
X0132441Y0214080D02*
X0013197Y0214080D01*
X0013197Y0212481D02*
X0132441Y0212481D01*
X0132441Y0210883D02*
X0013197Y0210883D01*
X0013197Y0209284D02*
X0132441Y0209284D01*
X0132441Y0207686D02*
X0047681Y0207686D01*
X0048461Y0207363D02*
X0046292Y0208261D01*
X0035345Y0208261D01*
X0033176Y0207363D01*
X0031517Y0205703D01*
X0030619Y0203535D01*
X0030619Y0201187D01*
X0031517Y0199019D01*
X0033176Y0197359D01*
X0035345Y0196461D01*
X0046292Y0196461D01*
X0048461Y0197359D01*
X0050120Y0199019D01*
X0051019Y0201187D01*
X0051019Y0203535D01*
X0050120Y0205703D01*
X0048461Y0207363D01*
X0049736Y0206087D02*
X0132441Y0206087D01*
X0132441Y0204489D02*
X0050623Y0204489D01*
X0051019Y0202890D02*
X0132441Y0202890D01*
X0132441Y0201292D02*
X0051019Y0201292D01*
X0050400Y0199693D02*
X0132441Y0199693D01*
X0132441Y0198095D02*
X0049196Y0198095D01*
X0046377Y0196496D02*
X0132441Y0196496D01*
X0132441Y0194898D02*
X0027821Y0194898D01*
X0027821Y0196024D02*
X0026923Y0198192D01*
X0025263Y0199852D01*
X0023095Y0200750D01*
X0020747Y0200750D01*
X0018579Y0199852D01*
X0016919Y0198192D01*
X0016021Y0196024D01*
X0016021Y0185076D01*
X0016919Y0182908D01*
X0018579Y0181248D01*
X0020747Y0180350D01*
X0023095Y0180350D01*
X0025263Y0181248D01*
X0026923Y0182908D01*
X0027821Y0185076D01*
X0027821Y0196024D01*
X0027625Y0196496D02*
X0035260Y0196496D01*
X0032441Y0198095D02*
X0026963Y0198095D01*
X0025421Y0199693D02*
X0031237Y0199693D01*
X0030619Y0201292D02*
X0013197Y0201292D01*
X0013197Y0202890D02*
X0030619Y0202890D01*
X0031014Y0204489D02*
X0013197Y0204489D01*
X0013197Y0206087D02*
X0031901Y0206087D01*
X0033956Y0207686D02*
X0013197Y0207686D01*
X0013197Y0199693D02*
X0018420Y0199693D01*
X0016879Y0198095D02*
X0013197Y0198095D01*
X0013197Y0196496D02*
X0016217Y0196496D01*
X0016021Y0194898D02*
X0013197Y0194898D01*
X0013197Y0193299D02*
X0016021Y0193299D01*
X0016021Y0191701D02*
X0013197Y0191701D01*
X0013197Y0190102D02*
X0016021Y0190102D01*
X0016021Y0188504D02*
X0013197Y0188504D01*
X0013197Y0186905D02*
X0016021Y0186905D01*
X0016021Y0185307D02*
X0013197Y0185307D01*
X0013197Y0183708D02*
X0016588Y0183708D01*
X0017717Y0182110D02*
X0013197Y0182110D01*
X0013197Y0180511D02*
X0020358Y0180511D01*
X0023484Y0180511D02*
X0030867Y0180511D01*
X0030619Y0179913D02*
X0030619Y0177565D01*
X0031517Y0175397D01*
X0033176Y0173737D01*
X0035345Y0172839D01*
X0046292Y0172839D01*
X0048461Y0173737D01*
X0050120Y0175397D01*
X0051019Y0177565D01*
X0051019Y0179913D01*
X0050120Y0182081D01*
X0048461Y0183741D01*
X0046292Y0184639D01*
X0035345Y0184639D01*
X0033176Y0183741D01*
X0031517Y0182081D01*
X0030619Y0179913D01*
X0030619Y0178913D02*
X0013197Y0178913D01*
X0013197Y0177314D02*
X0030723Y0177314D01*
X0031385Y0175716D02*
X0013197Y0175716D01*
X0013197Y0174117D02*
X0032797Y0174117D01*
X0031545Y0182110D02*
X0026124Y0182110D01*
X0027254Y0183708D02*
X0033144Y0183708D01*
X0027821Y0185307D02*
X0132441Y0185307D01*
X0132441Y0186905D02*
X0027821Y0186905D01*
X0027821Y0188504D02*
X0132441Y0188504D01*
X0132441Y0190102D02*
X0027821Y0190102D01*
X0027821Y0191701D02*
X0132441Y0191701D01*
X0132441Y0193299D02*
X0027821Y0193299D01*
X0048493Y0183708D02*
X0132441Y0183708D01*
X0132441Y0182110D02*
X0050092Y0182110D01*
X0050771Y0180511D02*
X0132441Y0180511D01*
X0132441Y0178913D02*
X0051019Y0178913D01*
X0050914Y0177314D02*
X0132441Y0177314D01*
X0132441Y0175716D02*
X0050252Y0175716D01*
X0048841Y0174117D02*
X0132441Y0174117D01*
X0132441Y0172519D02*
X0013197Y0172519D01*
X0013197Y0170920D02*
X0132441Y0170920D01*
X0132441Y0169322D02*
X0013197Y0169322D01*
X0013197Y0167723D02*
X0132441Y0167723D01*
X0132441Y0166125D02*
X0013197Y0166125D01*
X0013197Y0164526D02*
X0132441Y0164526D01*
X0132441Y0162928D02*
X0013197Y0162928D01*
X0013197Y0161329D02*
X0132441Y0161329D01*
X0132441Y0159731D02*
X0013197Y0159731D01*
X0013197Y0158132D02*
X0132441Y0158132D01*
X0132441Y0156534D02*
X0013197Y0156534D01*
X0013197Y0154935D02*
X0132441Y0154935D01*
X0132441Y0153337D02*
X0013197Y0153337D01*
X0013197Y0151738D02*
X0132441Y0151738D01*
X0132441Y0150139D02*
X0013197Y0150139D01*
X0013197Y0148541D02*
X0132441Y0148541D01*
X0132441Y0146942D02*
X0013197Y0146942D01*
X0013197Y0145344D02*
X0131183Y0145344D01*
X0129584Y0143745D02*
X0013197Y0143745D01*
X0013197Y0142147D02*
X0127986Y0142147D01*
X0126387Y0140548D02*
X0013197Y0140548D01*
X0013197Y0138950D02*
X0124789Y0138950D01*
X0123190Y0137351D02*
X0013197Y0137351D01*
X0013197Y0135753D02*
X0121592Y0135753D01*
X0119993Y0134154D02*
X0013197Y0134154D01*
X0013197Y0132556D02*
X0118395Y0132556D01*
X0116796Y0130957D02*
X0013197Y0130957D01*
X0013197Y0129359D02*
X0115198Y0129359D01*
X0113599Y0127760D02*
X0013197Y0127760D01*
X0013197Y0126162D02*
X0112001Y0126162D01*
X0110402Y0124563D02*
X0013197Y0124563D01*
X0013197Y0122965D02*
X0108804Y0122965D01*
X0107205Y0121366D02*
X0013197Y0121366D01*
X0013197Y0119768D02*
X0105607Y0119768D01*
X0104008Y0118169D02*
X0013197Y0118169D01*
X0013197Y0116571D02*
X0102410Y0116571D01*
X0100811Y0114972D02*
X0013197Y0114972D01*
X0013197Y0113374D02*
X0099213Y0113374D01*
X0097614Y0111775D02*
X0013197Y0111775D01*
X0013197Y0110177D02*
X0096016Y0110177D01*
X0094417Y0108578D02*
X0013197Y0108578D01*
X0013197Y0106980D02*
X0092819Y0106980D01*
X0091220Y0105381D02*
X0013197Y0105381D01*
X0013197Y0103783D02*
X0089622Y0103783D01*
X0088023Y0102184D02*
X0013197Y0102184D01*
X0013197Y0100586D02*
X0086424Y0100586D01*
X0084826Y0098987D02*
X0013197Y0098987D01*
X0013197Y0097389D02*
X0083227Y0097389D01*
X0081629Y0095790D02*
X0013197Y0095790D01*
X0013197Y0094192D02*
X0080030Y0094192D01*
X0078432Y0092593D02*
X0013197Y0092593D01*
X0013197Y0090995D02*
X0076833Y0090995D01*
X0075235Y0089396D02*
X0013197Y0089396D01*
X0013197Y0087798D02*
X0073636Y0087798D01*
X0072038Y0086199D02*
X0013197Y0086199D01*
X0013197Y0084601D02*
X0070439Y0084601D01*
X0068841Y0083002D02*
X0013197Y0083002D01*
X0013197Y0081403D02*
X0067242Y0081403D01*
X0065644Y0079805D02*
X0013197Y0079805D01*
X0013197Y0078206D02*
X0064045Y0078206D01*
X0062447Y0076608D02*
X0013197Y0076608D01*
X0013197Y0075009D02*
X0060848Y0075009D01*
X0059250Y0073411D02*
X0013197Y0073411D01*
X0013197Y0071812D02*
X0057651Y0071812D01*
X0056053Y0070214D02*
X0013197Y0070214D01*
X0013197Y0068615D02*
X0054454Y0068615D01*
X0052856Y0067017D02*
X0013197Y0067017D01*
X0013197Y0065418D02*
X0051257Y0065418D01*
X0049659Y0063820D02*
X0013197Y0063820D01*
X0013197Y0062221D02*
X0046522Y0062221D01*
X0045387Y0060623D02*
X0013197Y0060623D01*
X0013197Y0059024D02*
X0045228Y0059024D01*
X0046089Y0057426D02*
X0013197Y0057426D01*
X0013197Y0055827D02*
X0317269Y0055827D01*
X0317269Y0054229D02*
X0013197Y0054229D01*
X0013197Y0052630D02*
X0317269Y0052630D01*
X0317269Y0051032D02*
X0013197Y0051032D01*
X0013197Y0049433D02*
X0317269Y0049433D01*
X0317269Y0047835D02*
X0311739Y0047835D01*
X0315549Y0046236D02*
X0317269Y0046236D01*
X0305245Y0047835D02*
X0083393Y0047835D01*
X0081469Y0048322D02*
X0077203Y0047968D01*
X0073282Y0046249D01*
X0070133Y0043349D01*
X0068095Y0039584D01*
X0067391Y0035362D01*
X0068095Y0031139D01*
X0070133Y0027374D01*
X0073282Y0024474D01*
X0077203Y0022755D01*
X0081469Y0022401D01*
X0085619Y0023452D01*
X0089203Y0025794D01*
X0091833Y0029172D01*
X0093223Y0033221D01*
X0093223Y0037502D01*
X0091833Y0041551D01*
X0089203Y0044929D01*
X0085619Y0047271D01*
X0081469Y0048322D01*
X0087203Y0046236D02*
X0301615Y0046236D01*
X0299879Y0044638D02*
X0089430Y0044638D01*
X0090674Y0043039D02*
X0298311Y0043039D01*
X0297446Y0041441D02*
X0091871Y0041441D01*
X0092419Y0039842D02*
X0296581Y0039842D01*
X0296218Y0038244D02*
X0092968Y0038244D01*
X0093223Y0036645D02*
X0295951Y0036645D01*
X0295790Y0035047D02*
X0093223Y0035047D01*
X0093223Y0033448D02*
X0296056Y0033448D01*
X0296323Y0031850D02*
X0092752Y0031850D01*
X0092203Y0030251D02*
X0296922Y0030251D01*
X0297787Y0028653D02*
X0091428Y0028653D01*
X0090184Y0027054D02*
X0298827Y0027054D01*
X0300563Y0025456D02*
X0088686Y0025456D01*
X0086239Y0023857D02*
X0303036Y0023857D01*
X0314585Y0023857D02*
X0317269Y0023857D01*
X0317269Y0022259D02*
X0013197Y0022259D01*
X0013197Y0023857D02*
X0074690Y0023857D01*
X0072217Y0025456D02*
X0013197Y0025456D01*
X0013197Y0027054D02*
X0070480Y0027054D01*
X0069441Y0028653D02*
X0013197Y0028653D01*
X0013197Y0030251D02*
X0068576Y0030251D01*
X0067977Y0031850D02*
X0013197Y0031850D01*
X0013197Y0033448D02*
X0067710Y0033448D01*
X0067443Y0035047D02*
X0013197Y0035047D01*
X0013197Y0036645D02*
X0067605Y0036645D01*
X0067872Y0038244D02*
X0013197Y0038244D01*
X0013197Y0039842D02*
X0068235Y0039842D01*
X0069100Y0041441D02*
X0013197Y0041441D01*
X0013197Y0043039D02*
X0069965Y0043039D01*
X0071532Y0044638D02*
X0013197Y0044638D01*
X0013197Y0046236D02*
X0073269Y0046236D01*
X0076898Y0047835D02*
X0013197Y0047835D01*
X0013197Y0020660D02*
X0317269Y0020660D01*
X0317269Y0019062D02*
X0252935Y0019062D01*
X0252670Y0019148D02*
X0253325Y0018935D01*
X0253938Y0018622D01*
X0254495Y0018218D01*
X0254982Y0017731D01*
X0255387Y0017174D01*
X0255700Y0016560D01*
X0255912Y0015905D01*
X0256020Y0015225D01*
X0256020Y0014881D01*
X0251645Y0014881D01*
X0251645Y0019255D01*
X0251301Y0019255D01*
X0250621Y0019148D01*
X0249966Y0018935D01*
X0249352Y0018622D01*
X0248795Y0018218D01*
X0248308Y0017731D01*
X0247904Y0017174D01*
X0247591Y0016560D01*
X0247378Y0015905D01*
X0247271Y0015225D01*
X0247271Y0014881D01*
X0251645Y0014881D01*
X0251645Y0014881D01*
X0251645Y0014881D01*
X0247271Y0014881D01*
X0247271Y0014536D01*
X0247378Y0013856D01*
X0247591Y0013201D01*
X0247904Y0012588D01*
X0248308Y0012031D01*
X0248795Y0011544D01*
X0249352Y0011139D01*
X0249966Y0010826D01*
X0250621Y0010614D01*
X0251301Y0010506D01*
X0251645Y0010506D01*
X0251645Y0014881D01*
X0251645Y0019255D01*
X0251990Y0019255D01*
X0252670Y0019148D01*
X0251645Y0019062D02*
X0251645Y0019062D01*
X0250356Y0019062D02*
X0013197Y0019062D01*
X0013197Y0017463D02*
X0058245Y0017463D01*
X0058027Y0017246D02*
X0057392Y0015711D01*
X0057392Y0014050D01*
X0058027Y0012516D01*
X0059202Y0011341D01*
X0060736Y0010706D01*
X0062397Y0010706D01*
X0063931Y0011341D01*
X0065106Y0012516D01*
X0065741Y0014050D01*
X0065741Y0015711D01*
X0065106Y0017246D01*
X0063931Y0018420D01*
X0062397Y0019055D01*
X0060736Y0019055D01*
X0059202Y0018420D01*
X0058027Y0017246D01*
X0057455Y0015865D02*
X0013197Y0015865D01*
X0013197Y0014266D02*
X0057392Y0014266D01*
X0057965Y0012668D02*
X0013197Y0012668D01*
X0013197Y0011069D02*
X0059860Y0011069D01*
X0063274Y0011069D02*
X0069860Y0011069D01*
X0069202Y0011341D02*
X0070736Y0010706D01*
X0072397Y0010706D01*
X0073931Y0011341D01*
X0075106Y0012516D01*
X0075741Y0014050D01*
X0075741Y0015711D01*
X0075106Y0017246D01*
X0073931Y0018420D01*
X0072397Y0019055D01*
X0070736Y0019055D01*
X0069202Y0018420D01*
X0068027Y0017246D01*
X0067392Y0015711D01*
X0067392Y0014050D01*
X0068027Y0012516D01*
X0069202Y0011341D01*
X0067965Y0012668D02*
X0065169Y0012668D01*
X0065741Y0014266D02*
X0067392Y0014266D01*
X0067455Y0015865D02*
X0065678Y0015865D01*
X0064888Y0017463D02*
X0068245Y0017463D01*
X0074888Y0017463D02*
X0078245Y0017463D01*
X0078027Y0017246D02*
X0077392Y0015711D01*
X0077392Y0014050D01*
X0078027Y0012516D01*
X0079202Y0011341D01*
X0080736Y0010706D01*
X0082397Y0010706D01*
X0083931Y0011341D01*
X0085106Y0012516D01*
X0085741Y0014050D01*
X0085741Y0015711D01*
X0085106Y0017246D01*
X0083931Y0018420D01*
X0082397Y0019055D01*
X0080736Y0019055D01*
X0079202Y0018420D01*
X0078027Y0017246D01*
X0077455Y0015865D02*
X0075678Y0015865D01*
X0075741Y0014266D02*
X0077392Y0014266D01*
X0077965Y0012668D02*
X0075169Y0012668D01*
X0073274Y0011069D02*
X0079860Y0011069D01*
X0083274Y0011069D02*
X0229938Y0011069D01*
X0229280Y0011341D02*
X0230815Y0010706D01*
X0232476Y0010706D01*
X0234010Y0011341D01*
X0235185Y0012516D01*
X0235820Y0014050D01*
X0235820Y0015711D01*
X0235185Y0017246D01*
X0234010Y0018420D01*
X0232476Y0019055D01*
X0230815Y0019055D01*
X0229280Y0018420D01*
X0228106Y0017246D01*
X0227471Y0015711D01*
X0227471Y0014050D01*
X0228106Y0012516D01*
X0229280Y0011341D01*
X0228043Y0012668D02*
X0085169Y0012668D01*
X0085741Y0014266D02*
X0227471Y0014266D01*
X0227534Y0015865D02*
X0085678Y0015865D01*
X0084888Y0017463D02*
X0228324Y0017463D01*
X0234967Y0017463D02*
X0238324Y0017463D01*
X0238106Y0017246D02*
X0237471Y0015711D01*
X0237471Y0014050D01*
X0238106Y0012516D01*
X0239280Y0011341D01*
X0240815Y0010706D01*
X0242476Y0010706D01*
X0244010Y0011341D01*
X0245185Y0012516D01*
X0245820Y0014050D01*
X0245820Y0015711D01*
X0245185Y0017246D01*
X0244010Y0018420D01*
X0242476Y0019055D01*
X0240815Y0019055D01*
X0239280Y0018420D01*
X0238106Y0017246D01*
X0237534Y0015865D02*
X0235757Y0015865D01*
X0235820Y0014266D02*
X0237471Y0014266D01*
X0238043Y0012668D02*
X0235247Y0012668D01*
X0233352Y0011069D02*
X0239938Y0011069D01*
X0243352Y0011069D02*
X0249490Y0011069D01*
X0251645Y0011069D02*
X0251645Y0011069D01*
X0251645Y0010506D02*
X0251990Y0010506D01*
X0252670Y0010614D01*
X0253325Y0010826D01*
X0253938Y0011139D01*
X0254495Y0011544D01*
X0254982Y0012031D01*
X0255387Y0012588D01*
X0255700Y0013201D01*
X0255912Y0013856D01*
X0256020Y0014536D01*
X0256020Y0014881D01*
X0251645Y0014881D01*
X0251645Y0014881D01*
X0251645Y0014881D01*
X0251645Y0010506D01*
X0251645Y0012668D02*
X0251645Y0012668D01*
X0251645Y0014266D02*
X0251645Y0014266D01*
X0251645Y0015865D02*
X0251645Y0015865D01*
X0251645Y0017463D02*
X0251645Y0017463D01*
X0248114Y0017463D02*
X0244967Y0017463D01*
X0245757Y0015865D02*
X0247372Y0015865D01*
X0247313Y0014266D02*
X0245820Y0014266D01*
X0245247Y0012668D02*
X0247863Y0012668D01*
X0253801Y0011069D02*
X0317269Y0011069D01*
X0317269Y0009470D02*
X0013197Y0009470D01*
X0050742Y0057426D02*
X0055820Y0057426D01*
X0055131Y0059024D02*
X0051603Y0059024D01*
X0052401Y0060623D02*
X0055361Y0060623D01*
X0056717Y0062221D02*
X0054000Y0062221D01*
X0055598Y0063820D02*
X0059734Y0063820D01*
X0061332Y0065418D02*
X0057197Y0065418D01*
X0058795Y0067017D02*
X0062931Y0067017D01*
X0064529Y0068615D02*
X0060394Y0068615D01*
X0061992Y0070214D02*
X0066128Y0070214D01*
X0067726Y0071812D02*
X0063591Y0071812D01*
X0065189Y0073411D02*
X0069325Y0073411D01*
X0070923Y0075009D02*
X0066788Y0075009D01*
X0068387Y0076608D02*
X0072522Y0076608D01*
X0074120Y0078206D02*
X0069985Y0078206D01*
X0071584Y0079805D02*
X0075719Y0079805D01*
X0077317Y0081403D02*
X0073182Y0081403D01*
X0074781Y0083002D02*
X0078916Y0083002D01*
X0080514Y0084601D02*
X0076379Y0084601D01*
X0077978Y0086199D02*
X0082113Y0086199D01*
X0083711Y0087798D02*
X0079576Y0087798D01*
X0081175Y0089396D02*
X0085310Y0089396D01*
X0086908Y0090995D02*
X0082773Y0090995D01*
X0084372Y0092593D02*
X0088507Y0092593D01*
X0090105Y0094192D02*
X0085970Y0094192D01*
X0087569Y0095790D02*
X0091704Y0095790D01*
X0093302Y0097389D02*
X0089167Y0097389D01*
X0090766Y0098987D02*
X0094901Y0098987D01*
X0096499Y0100586D02*
X0092364Y0100586D01*
X0093963Y0102184D02*
X0098098Y0102184D01*
X0099697Y0103783D02*
X0095561Y0103783D01*
X0097160Y0105381D02*
X0101295Y0105381D01*
X0102894Y0106980D02*
X0098758Y0106980D01*
X0100357Y0108578D02*
X0104492Y0108578D01*
X0106091Y0110177D02*
X0101955Y0110177D01*
X0103554Y0111775D02*
X0107689Y0111775D01*
X0109288Y0113374D02*
X0105152Y0113374D01*
X0106751Y0114972D02*
X0110886Y0114972D01*
X0112485Y0116571D02*
X0108349Y0116571D01*
X0109948Y0118169D02*
X0114083Y0118169D01*
X0115682Y0119768D02*
X0111546Y0119768D01*
X0113145Y0121366D02*
X0117280Y0121366D01*
X0118879Y0122965D02*
X0114743Y0122965D01*
X0116342Y0124563D02*
X0120477Y0124563D01*
X0122076Y0126162D02*
X0117940Y0126162D01*
X0119539Y0127760D02*
X0123674Y0127760D01*
X0125273Y0129359D02*
X0121137Y0129359D01*
X0122736Y0130957D02*
X0126871Y0130957D01*
X0128470Y0132556D02*
X0124334Y0132556D01*
X0125933Y0134154D02*
X0130068Y0134154D01*
X0131667Y0135753D02*
X0127531Y0135753D01*
X0129130Y0137351D02*
X0133265Y0137351D01*
X0134864Y0138950D02*
X0130728Y0138950D01*
X0132327Y0140548D02*
X0136462Y0140548D01*
X0138061Y0142147D02*
X0133925Y0142147D01*
X0135524Y0143745D02*
X0139659Y0143745D01*
X0141258Y0145344D02*
X0136641Y0145344D01*
X0136641Y0146942D02*
X0142516Y0146942D01*
X0142516Y0148541D02*
X0136641Y0148541D01*
X0136641Y0150139D02*
X0142516Y0150139D01*
X0142516Y0151738D02*
X0136641Y0151738D01*
X0136641Y0153337D02*
X0142516Y0153337D01*
X0142516Y0154935D02*
X0136641Y0154935D01*
X0136641Y0156534D02*
X0142516Y0156534D01*
X0142516Y0158132D02*
X0136641Y0158132D01*
X0136641Y0159731D02*
X0142516Y0159731D01*
X0142516Y0161329D02*
X0136641Y0161329D01*
X0136641Y0162928D02*
X0142516Y0162928D01*
X0142516Y0164526D02*
X0136641Y0164526D01*
X0136641Y0166125D02*
X0142516Y0166125D01*
X0142516Y0167723D02*
X0136641Y0167723D01*
X0136641Y0169322D02*
X0142516Y0169322D01*
X0142516Y0170920D02*
X0136641Y0170920D01*
X0136641Y0172519D02*
X0142516Y0172519D01*
X0142516Y0174117D02*
X0136641Y0174117D01*
X0136641Y0175716D02*
X0142516Y0175716D01*
X0142516Y0177314D02*
X0136641Y0177314D01*
X0136641Y0178913D02*
X0142516Y0178913D01*
X0142516Y0180511D02*
X0136641Y0180511D01*
X0136641Y0182110D02*
X0142516Y0182110D01*
X0142516Y0183708D02*
X0136641Y0183708D01*
X0136641Y0185307D02*
X0142516Y0185307D01*
X0142516Y0186905D02*
X0136641Y0186905D01*
X0136641Y0188504D02*
X0142516Y0188504D01*
X0142516Y0190102D02*
X0136641Y0190102D01*
X0136641Y0191701D02*
X0142516Y0191701D01*
X0142516Y0193299D02*
X0136641Y0193299D01*
X0136641Y0194898D02*
X0142516Y0194898D01*
X0142516Y0196496D02*
X0136641Y0196496D01*
X0136641Y0198095D02*
X0142516Y0198095D01*
X0142516Y0199693D02*
X0136641Y0199693D01*
X0136641Y0201292D02*
X0142516Y0201292D01*
X0142516Y0202890D02*
X0136641Y0202890D01*
X0136641Y0204489D02*
X0142516Y0204489D01*
X0142516Y0206087D02*
X0136641Y0206087D01*
X0136641Y0207686D02*
X0142516Y0207686D01*
X0142516Y0209284D02*
X0136641Y0209284D01*
X0136641Y0210883D02*
X0142516Y0210883D01*
X0142516Y0212481D02*
X0136641Y0212481D01*
X0136641Y0214080D02*
X0142516Y0214080D01*
X0142516Y0215678D02*
X0136641Y0215678D01*
X0136641Y0217277D02*
X0142516Y0217277D01*
X0142516Y0218875D02*
X0141674Y0218875D01*
X0137463Y0218875D02*
X0136641Y0218875D01*
X0132441Y0218875D02*
X0131674Y0218875D01*
X0132441Y0217277D02*
X0087014Y0217277D01*
X0089334Y0218875D02*
X0095705Y0218875D01*
X0095906Y0218675D02*
X0103231Y0218675D01*
X0104169Y0219612D01*
X0104169Y0226938D01*
X0103231Y0227875D01*
X0095906Y0227875D01*
X0094969Y0226938D01*
X0094969Y0219612D01*
X0095906Y0218675D01*
X0094969Y0220474D02*
X0090578Y0220474D01*
X0091823Y0222072D02*
X0094969Y0222072D01*
X0094969Y0223671D02*
X0092377Y0223671D01*
X0092926Y0225270D02*
X0094969Y0225270D01*
X0094969Y0226868D02*
X0093223Y0226868D01*
X0093223Y0228467D02*
X0122366Y0228467D01*
X0121474Y0227875D02*
X0117663Y0227875D01*
X0114969Y0225180D01*
X0114969Y0221370D01*
X0117663Y0218675D01*
X0121474Y0218675D01*
X0124169Y0221370D01*
X0124169Y0225180D01*
X0121474Y0227875D01*
X0122481Y0226868D02*
X0123006Y0226868D01*
X0124079Y0225270D02*
X0124604Y0225270D01*
X0124969Y0223671D02*
X0124169Y0223671D01*
X0124169Y0222072D02*
X0124969Y0222072D01*
X0125864Y0220474D02*
X0123273Y0220474D01*
X0121674Y0218875D02*
X0127463Y0218875D01*
X0117463Y0218875D02*
X0111674Y0218875D01*
X0111474Y0218675D02*
X0114169Y0221370D01*
X0114169Y0225180D01*
X0111474Y0227875D01*
X0107663Y0227875D01*
X0104969Y0225180D01*
X0104969Y0221370D01*
X0107663Y0218675D01*
X0111474Y0218675D01*
X0113273Y0220474D02*
X0115864Y0220474D01*
X0114969Y0222072D02*
X0114169Y0222072D01*
X0114169Y0223671D02*
X0114969Y0223671D01*
X0115058Y0225270D02*
X0114079Y0225270D01*
X0112481Y0226868D02*
X0116656Y0226868D01*
X0114369Y0231287D02*
X0111557Y0228475D01*
X0109769Y0228475D01*
X0109769Y0233075D01*
X0109769Y0233475D01*
X0114369Y0233475D01*
X0114369Y0235263D01*
X0111557Y0238075D01*
X0109769Y0238075D01*
X0109769Y0233475D01*
X0109369Y0233475D01*
X0109369Y0238075D01*
X0107580Y0238075D01*
X0104769Y0235263D01*
X0104769Y0233475D01*
X0109368Y0233475D01*
X0109368Y0233075D01*
X0104769Y0233075D01*
X0104769Y0231287D01*
X0107580Y0228475D01*
X0109369Y0228475D01*
X0109369Y0233075D01*
X0109769Y0233075D01*
X0114369Y0233075D01*
X0114369Y0231287D01*
X0114369Y0231664D02*
X0114969Y0231664D01*
X0114969Y0233262D02*
X0109769Y0233262D01*
X0109368Y0233262D02*
X0099769Y0233262D01*
X0099769Y0233075D02*
X0099769Y0233475D01*
X0104369Y0233475D01*
X0104369Y0235263D01*
X0101557Y0238075D01*
X0099769Y0238075D01*
X0099769Y0233475D01*
X0099369Y0233475D01*
X0099369Y0238075D01*
X0097580Y0238075D01*
X0094769Y0235263D01*
X0094769Y0233475D01*
X0099368Y0233475D01*
X0099368Y0233075D01*
X0094769Y0233075D01*
X0094769Y0231287D01*
X0097580Y0228475D01*
X0099369Y0228475D01*
X0099369Y0233075D01*
X0099769Y0233075D01*
X0104369Y0233075D01*
X0104369Y0231287D01*
X0101557Y0228475D01*
X0099769Y0228475D01*
X0099769Y0233075D01*
X0099368Y0233262D02*
X0092245Y0233262D01*
X0092794Y0231664D02*
X0094769Y0231664D01*
X0095990Y0230065D02*
X0093223Y0230065D01*
X0094769Y0234861D02*
X0091524Y0234861D01*
X0090280Y0236459D02*
X0095964Y0236459D01*
X0097563Y0238058D02*
X0088875Y0238058D01*
X0086428Y0239656D02*
X0119872Y0239656D01*
X0121470Y0238058D02*
X0111574Y0238058D01*
X0109769Y0238058D02*
X0109369Y0238058D01*
X0109369Y0236459D02*
X0109769Y0236459D01*
X0109769Y0234861D02*
X0109369Y0234861D01*
X0109369Y0231664D02*
X0109769Y0231664D01*
X0109769Y0230065D02*
X0109369Y0230065D01*
X0105990Y0230065D02*
X0103147Y0230065D01*
X0104369Y0231664D02*
X0104769Y0231664D01*
X0104769Y0234861D02*
X0104369Y0234861D01*
X0103173Y0236459D02*
X0105964Y0236459D01*
X0107563Y0238058D02*
X0101574Y0238058D01*
X0099769Y0238058D02*
X0099369Y0238058D01*
X0099369Y0236459D02*
X0099769Y0236459D01*
X0099769Y0234861D02*
X0099369Y0234861D01*
X0099369Y0231664D02*
X0099769Y0231664D01*
X0099769Y0230065D02*
X0099369Y0230065D01*
X0104169Y0226868D02*
X0106656Y0226868D01*
X0105058Y0225270D02*
X0104169Y0225270D01*
X0104169Y0223671D02*
X0104969Y0223671D01*
X0104969Y0222072D02*
X0104169Y0222072D01*
X0104169Y0220474D02*
X0105864Y0220474D01*
X0107463Y0218875D02*
X0103432Y0218875D01*
X0113147Y0230065D02*
X0116273Y0230065D01*
X0114969Y0234861D02*
X0114369Y0234861D01*
X0113173Y0236459D02*
X0116247Y0236459D01*
X0126566Y0238058D02*
X0169895Y0238058D01*
X0166247Y0236459D02*
X0162890Y0236459D01*
X0164169Y0235180D02*
X0161474Y0237875D01*
X0157663Y0237875D01*
X0154969Y0235180D01*
X0154969Y0231370D01*
X0157663Y0228675D01*
X0161474Y0228675D01*
X0164169Y0231370D01*
X0164169Y0235180D01*
X0164169Y0234861D02*
X0164969Y0234861D01*
X0164969Y0233262D02*
X0164169Y0233262D01*
X0164169Y0231664D02*
X0164969Y0231664D01*
X0166273Y0230065D02*
X0162864Y0230065D01*
X0161474Y0227875D02*
X0157663Y0227875D01*
X0154969Y0225180D01*
X0154969Y0221370D01*
X0157663Y0218675D01*
X0161474Y0218675D01*
X0164169Y0221370D01*
X0164169Y0225180D01*
X0161474Y0227875D01*
X0162481Y0226868D02*
X0166656Y0226868D01*
X0167663Y0227875D02*
X0164969Y0225180D01*
X0164969Y0221370D01*
X0167663Y0218675D01*
X0171474Y0218675D01*
X0174169Y0221370D01*
X0174169Y0225180D01*
X0171474Y0227875D01*
X0167663Y0227875D01*
X0165058Y0225270D02*
X0164079Y0225270D01*
X0164169Y0223671D02*
X0164969Y0223671D01*
X0164969Y0222072D02*
X0164169Y0222072D01*
X0163273Y0220474D02*
X0165864Y0220474D01*
X0167463Y0218875D02*
X0161674Y0218875D01*
X0157463Y0218875D02*
X0151674Y0218875D01*
X0153273Y0220474D02*
X0155864Y0220474D01*
X0154969Y0222072D02*
X0154169Y0222072D01*
X0154169Y0223671D02*
X0154969Y0223671D01*
X0155058Y0225270D02*
X0154079Y0225270D01*
X0152481Y0226868D02*
X0156656Y0226868D01*
X0156273Y0230065D02*
X0152864Y0230065D01*
X0154169Y0231370D02*
X0151474Y0228675D01*
X0147663Y0228675D01*
X0144969Y0231370D01*
X0144969Y0235180D01*
X0147663Y0237875D01*
X0151474Y0237875D01*
X0154169Y0235180D01*
X0154169Y0231370D01*
X0154169Y0231664D02*
X0154969Y0231664D01*
X0154969Y0233262D02*
X0154169Y0233262D01*
X0154169Y0234861D02*
X0154969Y0234861D01*
X0156247Y0236459D02*
X0152890Y0236459D01*
X0146247Y0236459D02*
X0142890Y0236459D01*
X0144169Y0234861D02*
X0144969Y0234861D01*
X0144969Y0233262D02*
X0144169Y0233262D01*
X0144169Y0231664D02*
X0144969Y0231664D01*
X0145748Y0230065D02*
X0146273Y0230065D01*
X0146716Y0228467D02*
X0173961Y0228467D01*
X0172481Y0226868D02*
X0175560Y0226868D01*
X0175058Y0225270D02*
X0174079Y0225270D01*
X0174169Y0223671D02*
X0174969Y0223671D01*
X0174969Y0222072D02*
X0174169Y0222072D01*
X0173273Y0220474D02*
X0175864Y0220474D01*
X0177463Y0218875D02*
X0171674Y0218875D01*
X0181674Y0218875D02*
X0187463Y0218875D01*
X0185864Y0220474D02*
X0183273Y0220474D01*
X0184169Y0222072D02*
X0184969Y0222072D01*
X0184969Y0223671D02*
X0184169Y0223671D01*
X0191674Y0218875D02*
X0197463Y0218875D01*
X0195864Y0220474D02*
X0193273Y0220474D01*
X0194169Y0222072D02*
X0194969Y0222072D01*
X0194969Y0223671D02*
X0194169Y0223671D01*
X0201674Y0218875D02*
X0207463Y0218875D01*
X0205864Y0220474D02*
X0203273Y0220474D01*
X0204169Y0222072D02*
X0204969Y0222072D01*
X0204969Y0223671D02*
X0204169Y0223671D01*
X0204079Y0225270D02*
X0204604Y0225270D01*
X0207347Y0228467D02*
X0295769Y0228467D01*
X0295972Y0226868D02*
X0292481Y0226868D01*
X0291474Y0227875D02*
X0294169Y0225180D01*
X0294169Y0221370D01*
X0291474Y0218675D01*
X0287663Y0218675D01*
X0284969Y0221370D01*
X0284969Y0225180D01*
X0287663Y0227875D01*
X0291474Y0227875D01*
X0291474Y0228675D02*
X0294169Y0231370D01*
X0294169Y0235180D01*
X0291474Y0237875D01*
X0287663Y0237875D01*
X0284969Y0235180D01*
X0284969Y0231370D01*
X0287663Y0228675D01*
X0291474Y0228675D01*
X0292864Y0230065D02*
X0296036Y0230065D01*
X0296303Y0231664D02*
X0294169Y0231664D01*
X0294169Y0233262D02*
X0296855Y0233262D01*
X0297720Y0234861D02*
X0294169Y0234861D01*
X0292890Y0236459D02*
X0298693Y0236459D01*
X0300429Y0238058D02*
X0247756Y0238058D01*
X0247938Y0237875D02*
X0240103Y0245710D01*
X0240103Y0246141D01*
X0239618Y0247313D01*
X0238721Y0248209D01*
X0237550Y0248694D01*
X0236282Y0248694D01*
X0235110Y0248209D01*
X0234214Y0247313D01*
X0233728Y0246141D01*
X0233728Y0244873D01*
X0234214Y0243702D01*
X0235110Y0242805D01*
X0236282Y0242320D01*
X0237550Y0242320D01*
X0237553Y0242321D01*
X0244969Y0234905D01*
X0244969Y0231370D01*
X0247663Y0228675D01*
X0251474Y0228675D01*
X0254169Y0231370D01*
X0254169Y0235180D01*
X0251474Y0237875D01*
X0247938Y0237875D01*
X0246157Y0239656D02*
X0302755Y0239656D01*
X0314774Y0239656D02*
X0317269Y0239656D01*
X0317221Y0238058D02*
X0317269Y0238058D01*
X0317269Y0241255D02*
X0244559Y0241255D01*
X0242960Y0242853D02*
X0317269Y0242853D01*
X0317269Y0244452D02*
X0241362Y0244452D01*
X0240103Y0246050D02*
X0317269Y0246050D01*
X0317269Y0247649D02*
X0268590Y0247649D01*
X0268868Y0247927D02*
X0269353Y0249098D01*
X0269353Y0250366D01*
X0268868Y0251538D01*
X0267971Y0252434D01*
X0266800Y0252919D01*
X0265532Y0252919D01*
X0264360Y0252434D01*
X0263758Y0251832D01*
X0248845Y0251832D01*
X0245553Y0255124D01*
X0245663Y0255389D01*
X0245663Y0257050D01*
X0245027Y0258584D01*
X0243853Y0259759D01*
X0242318Y0260394D01*
X0240657Y0260394D01*
X0239123Y0259759D01*
X0237949Y0258584D01*
X0237313Y0257050D01*
X0237313Y0255389D01*
X0237949Y0253854D01*
X0239123Y0252680D01*
X0240657Y0252044D01*
X0242318Y0252044D01*
X0242583Y0252154D01*
X0247105Y0247632D01*
X0263758Y0247632D01*
X0264360Y0247030D01*
X0265532Y0246545D01*
X0266800Y0246545D01*
X0267971Y0247030D01*
X0268868Y0247927D01*
X0269353Y0249247D02*
X0317269Y0249247D01*
X0317269Y0250846D02*
X0269155Y0250846D01*
X0267947Y0252444D02*
X0317269Y0252444D01*
X0317269Y0254043D02*
X0265105Y0254043D01*
X0265027Y0253854D02*
X0265663Y0255389D01*
X0265663Y0257050D01*
X0265027Y0258584D01*
X0263853Y0259759D01*
X0262318Y0260394D01*
X0260657Y0260394D01*
X0259123Y0259759D01*
X0257949Y0258584D01*
X0257313Y0257050D01*
X0257313Y0255389D01*
X0257949Y0253854D01*
X0259123Y0252680D01*
X0260657Y0252044D01*
X0262318Y0252044D01*
X0263853Y0252680D01*
X0265027Y0253854D01*
X0264384Y0252444D02*
X0263283Y0252444D01*
X0259692Y0252444D02*
X0253283Y0252444D01*
X0253853Y0252680D02*
X0255027Y0253854D01*
X0255663Y0255389D01*
X0255663Y0257050D01*
X0255027Y0258584D01*
X0253853Y0259759D01*
X0252318Y0260394D01*
X0250657Y0260394D01*
X0249123Y0259759D01*
X0247949Y0258584D01*
X0247313Y0257050D01*
X0247313Y0255389D01*
X0247949Y0253854D01*
X0249123Y0252680D01*
X0250657Y0252044D01*
X0252318Y0252044D01*
X0253853Y0252680D01*
X0255105Y0254043D02*
X0257871Y0254043D01*
X0257313Y0255641D02*
X0255663Y0255641D01*
X0255584Y0257240D02*
X0257392Y0257240D01*
X0258203Y0258838D02*
X0254773Y0258838D01*
X0248203Y0258838D02*
X0244773Y0258838D01*
X0245584Y0257240D02*
X0247392Y0257240D01*
X0247313Y0255641D02*
X0245663Y0255641D01*
X0246634Y0254043D02*
X0247871Y0254043D01*
X0248233Y0252444D02*
X0249692Y0252444D01*
X0247089Y0247649D02*
X0239282Y0247649D01*
X0234550Y0247649D02*
X0205894Y0247649D01*
X0204296Y0249247D02*
X0245490Y0249247D01*
X0243892Y0250846D02*
X0202697Y0250846D01*
X0203283Y0252444D02*
X0209692Y0252444D01*
X0209123Y0252680D02*
X0210657Y0252044D01*
X0212318Y0252044D01*
X0213853Y0252680D01*
X0215027Y0253854D01*
X0215663Y0255389D01*
X0215663Y0257050D01*
X0215027Y0258584D01*
X0213853Y0259759D01*
X0212318Y0260394D01*
X0210657Y0260394D01*
X0209123Y0259759D01*
X0207949Y0258584D01*
X0207313Y0257050D01*
X0207313Y0255389D01*
X0207949Y0253854D01*
X0209123Y0252680D01*
X0207871Y0254043D02*
X0205105Y0254043D01*
X0205663Y0255641D02*
X0207313Y0255641D01*
X0207392Y0257240D02*
X0205584Y0257240D01*
X0204773Y0258838D02*
X0208203Y0258838D01*
X0214773Y0258838D02*
X0218203Y0258838D01*
X0217949Y0258584D02*
X0217313Y0257050D01*
X0217313Y0255389D01*
X0217949Y0253854D01*
X0219123Y0252680D01*
X0220657Y0252044D01*
X0222318Y0252044D01*
X0223853Y0252680D01*
X0225027Y0253854D01*
X0225663Y0255389D01*
X0225663Y0257050D01*
X0225027Y0258584D01*
X0223853Y0259759D01*
X0222318Y0260394D01*
X0220657Y0260394D01*
X0219123Y0259759D01*
X0217949Y0258584D01*
X0217392Y0257240D02*
X0215584Y0257240D01*
X0215663Y0255641D02*
X0217313Y0255641D01*
X0217871Y0254043D02*
X0215105Y0254043D01*
X0213283Y0252444D02*
X0219692Y0252444D01*
X0223283Y0252444D02*
X0229692Y0252444D01*
X0229123Y0252680D02*
X0230657Y0252044D01*
X0232318Y0252044D01*
X0233853Y0252680D01*
X0235027Y0253854D01*
X0235663Y0255389D01*
X0235663Y0257050D01*
X0235027Y0258584D01*
X0233853Y0259759D01*
X0232318Y0260394D01*
X0230657Y0260394D01*
X0229123Y0259759D01*
X0227949Y0258584D01*
X0227313Y0257050D01*
X0227313Y0255389D01*
X0227949Y0253854D01*
X0229123Y0252680D01*
X0227871Y0254043D02*
X0225105Y0254043D01*
X0225663Y0255641D02*
X0227313Y0255641D01*
X0227392Y0257240D02*
X0225584Y0257240D01*
X0224773Y0258838D02*
X0228203Y0258838D01*
X0234773Y0258838D02*
X0238203Y0258838D01*
X0237392Y0257240D02*
X0235584Y0257240D01*
X0235663Y0255641D02*
X0237313Y0255641D01*
X0237871Y0254043D02*
X0235105Y0254043D01*
X0233283Y0252444D02*
X0239692Y0252444D01*
X0233728Y0246050D02*
X0207493Y0246050D01*
X0209091Y0244452D02*
X0233903Y0244452D01*
X0235062Y0242853D02*
X0210690Y0242853D01*
X0211669Y0241255D02*
X0238619Y0241255D01*
X0240218Y0239656D02*
X0211669Y0239656D01*
X0211669Y0238058D02*
X0241816Y0238058D01*
X0241474Y0237875D02*
X0237663Y0237875D01*
X0234969Y0235180D01*
X0234969Y0231370D01*
X0237663Y0228675D01*
X0241474Y0228675D01*
X0244169Y0231370D01*
X0244169Y0235180D01*
X0241474Y0237875D01*
X0242890Y0236459D02*
X0243415Y0236459D01*
X0244169Y0234861D02*
X0244969Y0234861D01*
X0244969Y0233262D02*
X0244169Y0233262D01*
X0244169Y0231664D02*
X0244969Y0231664D01*
X0246273Y0230065D02*
X0242864Y0230065D01*
X0241474Y0227875D02*
X0237663Y0227875D01*
X0234969Y0225180D01*
X0234969Y0221370D01*
X0237663Y0218675D01*
X0241474Y0218675D01*
X0244169Y0221370D01*
X0244169Y0225180D01*
X0241474Y0227875D01*
X0242481Y0226868D02*
X0246656Y0226868D01*
X0247663Y0227875D02*
X0244969Y0225180D01*
X0244969Y0221370D01*
X0247663Y0218675D01*
X0251474Y0218675D01*
X0254169Y0221370D01*
X0254169Y0225180D01*
X0251474Y0227875D01*
X0247663Y0227875D01*
X0245058Y0225270D02*
X0244079Y0225270D01*
X0244169Y0223671D02*
X0244969Y0223671D01*
X0244969Y0222072D02*
X0244169Y0222072D01*
X0243273Y0220474D02*
X0245864Y0220474D01*
X0247463Y0218875D02*
X0241674Y0218875D01*
X0237463Y0218875D02*
X0231674Y0218875D01*
X0231474Y0218675D02*
X0234169Y0221370D01*
X0234169Y0225180D01*
X0231474Y0227875D01*
X0227663Y0227875D01*
X0224969Y0225180D01*
X0224969Y0221370D01*
X0227663Y0218675D01*
X0231474Y0218675D01*
X0233273Y0220474D02*
X0235864Y0220474D01*
X0234969Y0222072D02*
X0234169Y0222072D01*
X0234169Y0223671D02*
X0234969Y0223671D01*
X0235058Y0225270D02*
X0234079Y0225270D01*
X0232481Y0226868D02*
X0236656Y0226868D01*
X0236273Y0230065D02*
X0232864Y0230065D01*
X0234169Y0231370D02*
X0231474Y0228675D01*
X0227663Y0228675D01*
X0224969Y0231370D01*
X0224969Y0235180D01*
X0227663Y0237875D01*
X0231474Y0237875D01*
X0234169Y0235180D01*
X0234169Y0231370D01*
X0234169Y0231664D02*
X0234969Y0231664D01*
X0234969Y0233262D02*
X0234169Y0233262D01*
X0234169Y0234861D02*
X0234969Y0234861D01*
X0236247Y0236459D02*
X0232890Y0236459D01*
X0226247Y0236459D02*
X0222890Y0236459D01*
X0224169Y0235180D02*
X0221474Y0237875D01*
X0217663Y0237875D01*
X0214969Y0235180D01*
X0214969Y0231370D01*
X0217663Y0228675D01*
X0221474Y0228675D01*
X0224169Y0231370D01*
X0224169Y0235180D01*
X0224169Y0234861D02*
X0224969Y0234861D01*
X0224969Y0233262D02*
X0224169Y0233262D01*
X0224169Y0231664D02*
X0224969Y0231664D01*
X0226273Y0230065D02*
X0222864Y0230065D01*
X0221474Y0227875D02*
X0217663Y0227875D01*
X0214969Y0225180D01*
X0214969Y0221370D01*
X0217663Y0218675D01*
X0221474Y0218675D01*
X0224169Y0221370D01*
X0224169Y0225180D01*
X0221474Y0227875D01*
X0222481Y0226868D02*
X0226656Y0226868D01*
X0225058Y0225270D02*
X0224079Y0225270D01*
X0224169Y0223671D02*
X0224969Y0223671D01*
X0224969Y0222072D02*
X0224169Y0222072D01*
X0223273Y0220474D02*
X0225864Y0220474D01*
X0227463Y0218875D02*
X0221674Y0218875D01*
X0217463Y0218875D02*
X0211674Y0218875D01*
X0213273Y0220474D02*
X0215864Y0220474D01*
X0214969Y0222072D02*
X0214169Y0222072D01*
X0214169Y0223671D02*
X0214969Y0223671D01*
X0215058Y0225270D02*
X0214079Y0225270D01*
X0212481Y0226868D02*
X0216656Y0226868D01*
X0216273Y0230065D02*
X0212864Y0230065D01*
X0214169Y0231664D02*
X0214969Y0231664D01*
X0214969Y0233262D02*
X0214169Y0233262D01*
X0214169Y0234861D02*
X0214969Y0234861D01*
X0216247Y0236459D02*
X0212890Y0236459D01*
X0207469Y0238058D02*
X0201669Y0238058D01*
X0201669Y0239656D02*
X0207469Y0239656D01*
X0206348Y0241255D02*
X0201669Y0241255D01*
X0201669Y0242853D02*
X0204750Y0242853D01*
X0203151Y0244452D02*
X0201669Y0244452D01*
X0201553Y0246050D02*
X0200668Y0246050D01*
X0199954Y0247649D02*
X0199069Y0247649D01*
X0198356Y0249247D02*
X0197471Y0249247D01*
X0196757Y0250846D02*
X0195872Y0250846D01*
X0195159Y0252444D02*
X0193283Y0252444D01*
X0189692Y0252444D02*
X0183283Y0252444D01*
X0185105Y0254043D02*
X0187871Y0254043D01*
X0187313Y0255641D02*
X0185663Y0255641D01*
X0185584Y0257240D02*
X0187392Y0257240D01*
X0179692Y0252444D02*
X0173283Y0252444D01*
X0175105Y0254043D02*
X0177871Y0254043D01*
X0177313Y0255641D02*
X0175663Y0255641D01*
X0175584Y0257240D02*
X0177392Y0257240D01*
X0169692Y0252444D02*
X0163283Y0252444D01*
X0165105Y0254043D02*
X0167871Y0254043D01*
X0167313Y0255641D02*
X0165663Y0255641D01*
X0165584Y0257240D02*
X0167392Y0257240D01*
X0159692Y0252444D02*
X0153283Y0252444D01*
X0155105Y0254043D02*
X0157871Y0254043D01*
X0157313Y0255641D02*
X0155663Y0255641D01*
X0155584Y0257240D02*
X0157392Y0257240D01*
X0149692Y0252444D02*
X0148233Y0252444D01*
X0147871Y0254043D02*
X0146634Y0254043D01*
X0147313Y0255641D02*
X0145663Y0255641D01*
X0145584Y0257240D02*
X0147392Y0257240D01*
X0136247Y0236459D02*
X0132890Y0236459D01*
X0134169Y0234861D02*
X0134969Y0234861D01*
X0134969Y0233262D02*
X0134169Y0233262D01*
X0134169Y0231664D02*
X0134969Y0231664D01*
X0135748Y0230065D02*
X0136273Y0230065D01*
X0136641Y0228467D02*
X0141407Y0228467D01*
X0142481Y0226868D02*
X0142516Y0226868D01*
X0136656Y0226868D02*
X0136641Y0226868D01*
X0146716Y0218875D02*
X0147463Y0218875D01*
X0146716Y0217277D02*
X0301882Y0217277D01*
X0300013Y0218875D02*
X0291674Y0218875D01*
X0293273Y0220474D02*
X0298378Y0220474D01*
X0297513Y0222072D02*
X0294169Y0222072D01*
X0294169Y0223671D02*
X0296648Y0223671D01*
X0296239Y0225270D02*
X0294079Y0225270D01*
X0286656Y0226868D02*
X0282481Y0226868D01*
X0281474Y0227875D02*
X0284169Y0225180D01*
X0284169Y0221370D01*
X0281474Y0218675D01*
X0277663Y0218675D01*
X0274969Y0221370D01*
X0274969Y0225180D01*
X0277663Y0227875D01*
X0281474Y0227875D01*
X0281474Y0228675D02*
X0284169Y0231370D01*
X0284169Y0235180D01*
X0281474Y0237875D01*
X0277663Y0237875D01*
X0274969Y0235180D01*
X0274969Y0231370D01*
X0277663Y0228675D01*
X0281474Y0228675D01*
X0282864Y0230065D02*
X0286273Y0230065D01*
X0284969Y0231664D02*
X0284169Y0231664D01*
X0284169Y0233262D02*
X0284969Y0233262D01*
X0284969Y0234861D02*
X0284169Y0234861D01*
X0282890Y0236459D02*
X0286247Y0236459D01*
X0276247Y0236459D02*
X0272890Y0236459D01*
X0274169Y0235180D02*
X0271474Y0237875D01*
X0267663Y0237875D01*
X0264969Y0235180D01*
X0264969Y0231370D01*
X0267663Y0228675D01*
X0271474Y0228675D01*
X0274169Y0231370D01*
X0274169Y0235180D01*
X0274169Y0234861D02*
X0274969Y0234861D01*
X0274969Y0233262D02*
X0274169Y0233262D01*
X0274169Y0231664D02*
X0274969Y0231664D01*
X0276273Y0230065D02*
X0272864Y0230065D01*
X0271474Y0227875D02*
X0267663Y0227875D01*
X0264969Y0225180D01*
X0264969Y0221370D01*
X0267663Y0218675D01*
X0271474Y0218675D01*
X0274169Y0221370D01*
X0274169Y0225180D01*
X0271474Y0227875D01*
X0272481Y0226868D02*
X0276656Y0226868D01*
X0275058Y0225270D02*
X0274079Y0225270D01*
X0274169Y0223671D02*
X0274969Y0223671D01*
X0274969Y0222072D02*
X0274169Y0222072D01*
X0273273Y0220474D02*
X0275864Y0220474D01*
X0277463Y0218875D02*
X0271674Y0218875D01*
X0267463Y0218875D02*
X0261674Y0218875D01*
X0261474Y0218675D02*
X0264169Y0221370D01*
X0264169Y0225180D01*
X0261474Y0227875D01*
X0257663Y0227875D01*
X0254969Y0225180D01*
X0254969Y0221370D01*
X0257663Y0218675D01*
X0261474Y0218675D01*
X0263273Y0220474D02*
X0265864Y0220474D01*
X0264969Y0222072D02*
X0264169Y0222072D01*
X0264169Y0223671D02*
X0264969Y0223671D01*
X0265058Y0225270D02*
X0264079Y0225270D01*
X0262481Y0226868D02*
X0266656Y0226868D01*
X0266273Y0230065D02*
X0262864Y0230065D01*
X0264169Y0231370D02*
X0261474Y0228675D01*
X0257663Y0228675D01*
X0254969Y0231370D01*
X0254969Y0235180D01*
X0257663Y0237875D01*
X0261474Y0237875D01*
X0264169Y0235180D01*
X0264169Y0231370D01*
X0264169Y0231664D02*
X0264969Y0231664D01*
X0264969Y0233262D02*
X0264169Y0233262D01*
X0264169Y0234861D02*
X0264969Y0234861D01*
X0266247Y0236459D02*
X0262890Y0236459D01*
X0256247Y0236459D02*
X0252890Y0236459D01*
X0254169Y0234861D02*
X0254969Y0234861D01*
X0254969Y0233262D02*
X0254169Y0233262D01*
X0254169Y0231664D02*
X0254969Y0231664D01*
X0256273Y0230065D02*
X0252864Y0230065D01*
X0252481Y0226868D02*
X0256656Y0226868D01*
X0255058Y0225270D02*
X0254079Y0225270D01*
X0254169Y0223671D02*
X0254969Y0223671D01*
X0254969Y0222072D02*
X0254169Y0222072D01*
X0253273Y0220474D02*
X0255864Y0220474D01*
X0257463Y0218875D02*
X0251674Y0218875D01*
X0281674Y0218875D02*
X0287463Y0218875D01*
X0285864Y0220474D02*
X0283273Y0220474D01*
X0284169Y0222072D02*
X0284969Y0222072D01*
X0284969Y0223671D02*
X0284169Y0223671D01*
X0284079Y0225270D02*
X0285058Y0225270D01*
X0305526Y0215678D02*
X0146716Y0215678D01*
X0146716Y0214080D02*
X0317269Y0214080D01*
X0317269Y0215678D02*
X0311252Y0215678D01*
X0315361Y0217277D02*
X0317269Y0217277D01*
X0317269Y0212481D02*
X0146716Y0212481D01*
X0146716Y0210883D02*
X0317269Y0210883D01*
X0317269Y0209284D02*
X0146716Y0209284D01*
X0146716Y0207686D02*
X0317269Y0207686D01*
X0317269Y0206087D02*
X0146716Y0206087D01*
X0146716Y0204489D02*
X0317269Y0204489D01*
X0317269Y0202890D02*
X0146716Y0202890D01*
X0146716Y0201292D02*
X0317269Y0201292D01*
X0317269Y0199693D02*
X0146716Y0199693D01*
X0146716Y0198095D02*
X0317269Y0198095D01*
X0317269Y0196496D02*
X0146716Y0196496D01*
X0146716Y0194898D02*
X0317269Y0194898D01*
X0317269Y0193299D02*
X0146716Y0193299D01*
X0146716Y0191701D02*
X0317269Y0191701D01*
X0317269Y0190102D02*
X0146716Y0190102D01*
X0146716Y0188504D02*
X0317269Y0188504D01*
X0317269Y0186905D02*
X0146716Y0186905D01*
X0146716Y0185307D02*
X0317269Y0185307D01*
X0317269Y0183708D02*
X0146716Y0183708D01*
X0146716Y0182110D02*
X0317269Y0182110D01*
X0317269Y0180511D02*
X0146716Y0180511D01*
X0146716Y0178913D02*
X0317269Y0178913D01*
X0317269Y0177314D02*
X0146716Y0177314D01*
X0146716Y0175716D02*
X0317269Y0175716D01*
X0317269Y0174117D02*
X0146716Y0174117D01*
X0146716Y0172519D02*
X0317269Y0172519D01*
X0317269Y0170920D02*
X0146716Y0170920D01*
X0146716Y0169322D02*
X0317269Y0169322D01*
X0317269Y0167723D02*
X0146716Y0167723D01*
X0146716Y0166125D02*
X0317269Y0166125D01*
X0317269Y0164526D02*
X0146716Y0164526D01*
X0146716Y0162928D02*
X0317269Y0162928D01*
X0317269Y0161329D02*
X0146716Y0161329D01*
X0146716Y0159731D02*
X0317269Y0159731D01*
X0317269Y0158132D02*
X0146716Y0158132D01*
X0146716Y0156534D02*
X0317269Y0156534D01*
X0317269Y0154935D02*
X0146716Y0154935D01*
X0146716Y0153337D02*
X0317269Y0153337D01*
X0317269Y0151738D02*
X0146716Y0151738D01*
X0146716Y0150139D02*
X0317269Y0150139D01*
X0317269Y0148541D02*
X0146716Y0148541D01*
X0146716Y0146942D02*
X0317269Y0146942D01*
X0317269Y0145344D02*
X0146716Y0145344D01*
X0145599Y0143745D02*
X0317269Y0143745D01*
X0317269Y0142147D02*
X0144000Y0142147D01*
X0142402Y0140548D02*
X0317269Y0140548D01*
X0317269Y0138950D02*
X0140803Y0138950D01*
X0139205Y0137351D02*
X0317269Y0137351D01*
X0317269Y0135753D02*
X0137606Y0135753D01*
X0136008Y0134154D02*
X0317269Y0134154D01*
X0317269Y0132556D02*
X0134409Y0132556D01*
X0132811Y0130957D02*
X0317269Y0130957D01*
X0317269Y0129359D02*
X0131212Y0129359D01*
X0129614Y0127760D02*
X0317269Y0127760D01*
X0317269Y0126162D02*
X0128015Y0126162D01*
X0126417Y0124563D02*
X0317269Y0124563D01*
X0317269Y0122965D02*
X0124818Y0122965D01*
X0123220Y0121366D02*
X0317269Y0121366D01*
X0317269Y0119768D02*
X0121621Y0119768D01*
X0120023Y0118169D02*
X0317269Y0118169D01*
X0317269Y0116571D02*
X0118424Y0116571D01*
X0116826Y0114972D02*
X0317269Y0114972D01*
X0317269Y0113374D02*
X0115227Y0113374D01*
X0113629Y0111775D02*
X0317269Y0111775D01*
X0317269Y0110177D02*
X0112030Y0110177D01*
X0110432Y0108578D02*
X0317269Y0108578D01*
X0317269Y0106980D02*
X0108833Y0106980D01*
X0107235Y0105381D02*
X0317269Y0105381D01*
X0317269Y0103783D02*
X0105636Y0103783D01*
X0104038Y0102184D02*
X0317269Y0102184D01*
X0317269Y0100586D02*
X0102439Y0100586D01*
X0100841Y0098987D02*
X0317269Y0098987D01*
X0317269Y0097389D02*
X0099242Y0097389D01*
X0097644Y0095790D02*
X0317269Y0095790D01*
X0317269Y0094192D02*
X0096045Y0094192D01*
X0094447Y0092593D02*
X0317269Y0092593D01*
X0317269Y0090995D02*
X0092848Y0090995D01*
X0091250Y0089396D02*
X0317269Y0089396D01*
X0317269Y0087798D02*
X0089651Y0087798D01*
X0088053Y0086199D02*
X0317269Y0086199D01*
X0317269Y0084601D02*
X0086454Y0084601D01*
X0084856Y0083002D02*
X0317269Y0083002D01*
X0317269Y0081403D02*
X0083257Y0081403D01*
X0081659Y0079805D02*
X0317269Y0079805D01*
X0317269Y0078206D02*
X0080060Y0078206D01*
X0078462Y0076608D02*
X0317269Y0076608D01*
X0317269Y0075009D02*
X0076863Y0075009D01*
X0075264Y0073411D02*
X0317269Y0073411D01*
X0317269Y0071812D02*
X0073666Y0071812D01*
X0072067Y0070214D02*
X0317269Y0070214D01*
X0317269Y0068615D02*
X0070469Y0068615D01*
X0068870Y0067017D02*
X0317269Y0067017D01*
X0317269Y0065418D02*
X0067272Y0065418D01*
X0065673Y0063820D02*
X0317269Y0063820D01*
X0317269Y0062221D02*
X0064075Y0062221D01*
X0062476Y0060623D02*
X0317269Y0060623D01*
X0317269Y0059024D02*
X0061506Y0059024D01*
X0060817Y0057426D02*
X0317269Y0057426D01*
X0317032Y0025456D02*
X0317269Y0025456D01*
X0317269Y0017463D02*
X0255177Y0017463D01*
X0255919Y0015865D02*
X0317269Y0015865D01*
X0317269Y0014266D02*
X0255977Y0014266D01*
X0255428Y0012668D02*
X0317269Y0012668D01*
X0206273Y0230065D02*
X0205748Y0230065D01*
X0204969Y0231664D02*
X0204169Y0231664D01*
X0204169Y0233262D02*
X0204969Y0233262D01*
X0204969Y0234861D02*
X0204169Y0234861D01*
X0202890Y0236459D02*
X0206247Y0236459D01*
X0197006Y0260437D02*
X0317269Y0260437D01*
X0317269Y0262035D02*
X0195407Y0262035D01*
X0264773Y0258838D02*
X0317269Y0258838D01*
X0317269Y0257240D02*
X0265584Y0257240D01*
X0265663Y0255641D02*
X0317269Y0255641D01*
X0115490Y0249247D02*
X0055156Y0249247D01*
X0055310Y0247649D02*
X0100000Y0247649D01*
X0099503Y0246050D02*
X0054838Y0246050D01*
X0053452Y0244452D02*
X0099813Y0244452D01*
X0099692Y0252444D02*
X0093283Y0252444D01*
X0093853Y0252680D02*
X0092318Y0252044D01*
X0090657Y0252044D01*
X0089123Y0252680D01*
X0087949Y0253854D01*
X0087313Y0255389D01*
X0087313Y0257050D01*
X0087949Y0258584D01*
X0089123Y0259759D01*
X0090657Y0260394D01*
X0092318Y0260394D01*
X0093853Y0259759D01*
X0095027Y0258584D01*
X0095663Y0257050D01*
X0095663Y0255389D01*
X0095027Y0253854D01*
X0093853Y0252680D01*
X0095105Y0254043D02*
X0097871Y0254043D01*
X0097313Y0255641D02*
X0095663Y0255641D01*
X0095584Y0257240D02*
X0097392Y0257240D01*
X0098203Y0258838D02*
X0094773Y0258838D01*
X0088203Y0258838D02*
X0084773Y0258838D01*
X0085027Y0258584D02*
X0083853Y0259759D01*
X0082318Y0260394D01*
X0080657Y0260394D01*
X0079123Y0259759D01*
X0077949Y0258584D01*
X0077313Y0257050D01*
X0077313Y0255389D01*
X0077949Y0253854D01*
X0079123Y0252680D01*
X0080657Y0252044D01*
X0082318Y0252044D01*
X0083853Y0252680D01*
X0085027Y0253854D01*
X0085663Y0255389D01*
X0085663Y0257050D01*
X0085027Y0258584D01*
X0085584Y0257240D02*
X0087392Y0257240D01*
X0087313Y0255641D02*
X0085663Y0255641D01*
X0085105Y0254043D02*
X0087871Y0254043D01*
X0089692Y0252444D02*
X0083283Y0252444D01*
X0079692Y0252444D02*
X0073283Y0252444D01*
X0075105Y0254043D02*
X0077871Y0254043D01*
X0077313Y0255641D02*
X0075663Y0255641D01*
X0075584Y0257240D02*
X0077392Y0257240D01*
X0078203Y0258838D02*
X0074773Y0258838D01*
X0068203Y0258838D02*
X0013197Y0258838D01*
X0013197Y0257240D02*
X0067392Y0257240D01*
X0067313Y0255641D02*
X0013197Y0255641D01*
X0013197Y0254043D02*
X0015661Y0254043D01*
X0013197Y0260437D02*
X0102735Y0260437D01*
X0104334Y0262035D02*
X0013197Y0262035D01*
X0030953Y0241255D02*
X0042983Y0241255D01*
X0041838Y0239656D02*
X0030525Y0239656D01*
X0029640Y0238058D02*
X0041519Y0238058D01*
X0041831Y0236459D02*
X0028487Y0236459D01*
X0026833Y0234861D02*
X0042968Y0234861D01*
X0043467Y0231664D02*
X0013197Y0231664D01*
X0013197Y0233262D02*
X0016659Y0233262D01*
X0013465Y0234861D02*
X0013197Y0234861D01*
X0013197Y0230065D02*
X0042007Y0230065D01*
X0041519Y0228467D02*
X0013197Y0228467D01*
X0013197Y0226868D02*
X0041662Y0226868D01*
X0042559Y0225270D02*
X0013197Y0225270D01*
X0023639Y0233262D02*
X0068509Y0233262D01*
X0054326Y0250846D02*
X0113892Y0250846D01*
X0109692Y0252444D02*
X0103283Y0252444D01*
X0105105Y0254043D02*
X0107871Y0254043D01*
X0107313Y0255641D02*
X0105663Y0255641D01*
X0105584Y0257240D02*
X0107392Y0257240D01*
X0048319Y0246050D02*
X0048318Y0246050D01*
X0048318Y0244452D02*
X0048319Y0244452D01*
D17*
X0023319Y0216800D03*
X0102691Y0245832D03*
X0236916Y0245507D03*
X0266166Y0249732D03*
X0058319Y0059435D03*
X0048416Y0059607D03*
D18*
X0023319Y0215550D02*
X0023319Y0216800D01*
D19*
X0102691Y0245832D02*
X0116666Y0245832D01*
X0124466Y0238032D01*
X0124466Y0228378D01*
X0129569Y0223275D01*
X0134541Y0228303D02*
X0134541Y0145732D01*
X0048416Y0059607D01*
X0058319Y0059435D02*
X0144616Y0145732D01*
X0144616Y0228228D01*
X0139569Y0233275D01*
X0134541Y0228303D02*
X0129569Y0233275D01*
X0127400Y0240307D02*
X0111488Y0256219D01*
X0105726Y0260457D02*
X0194016Y0260457D01*
X0196291Y0258182D01*
X0196291Y0254282D01*
X0209569Y0241004D01*
X0209569Y0233275D01*
X0204561Y0228282D02*
X0196941Y0228282D01*
X0194666Y0230557D01*
X0194666Y0240957D01*
X0190441Y0245182D01*
X0142525Y0245182D01*
X0131488Y0256219D01*
X0141488Y0256219D02*
X0148300Y0249407D01*
X0194341Y0249407D01*
X0199569Y0244179D01*
X0199569Y0233275D01*
X0204561Y0228282D02*
X0209569Y0223275D01*
X0199569Y0223275D02*
X0199023Y0223275D01*
X0194016Y0228282D01*
X0186866Y0228282D01*
X0184591Y0230557D01*
X0184591Y0239657D01*
X0181341Y0242907D01*
X0134866Y0242907D01*
X0121488Y0256285D01*
X0121488Y0256219D01*
X0105726Y0260457D02*
X0101488Y0256219D01*
X0127400Y0240307D02*
X0170616Y0240307D01*
X0174516Y0236407D01*
X0174516Y0230882D01*
X0177116Y0228282D01*
X0183941Y0228282D01*
X0188948Y0223275D01*
X0189569Y0223275D01*
X0236916Y0245507D02*
X0237336Y0245507D01*
X0249569Y0233275D01*
X0247975Y0249732D02*
X0241488Y0256219D01*
X0247975Y0249732D02*
X0266166Y0249732D01*
M02*
