%
M48
M72
T01C0.0157
T02C0.0315
T03C0.0320
T04C0.0394
T05C0.0400
T06C0.1260
%
T01
X5832Y5943
X4842Y5961
X2332Y21680
X10269Y24583
X23692Y24551
X26617Y24973
T02
X6157Y1488
X7157Y1488
X8157Y1488
X23165Y1488
X24165Y1488
X25165Y1488
X4082Y17874
X2192Y19055
X7149Y25622
X8149Y25622
X9149Y25622
X10149Y25622
X11149Y25622
X12149Y25622
X13149Y25622
X14149Y25622
X15149Y25622
X16149Y25622
X17149Y25622
X18149Y25622
X19149Y25622
X20149Y25622
X21149Y25622
X22149Y25622
X23149Y25622
X24149Y25622
X25149Y25622
X26149Y25622
T03
X4832Y24805
X4832Y23805
X4832Y22805
T04
X4082Y20236
T05
X9957Y22328
X10957Y22328
X11957Y22328
X12957Y22328
X12957Y23328
X11957Y23328
X10957Y23328
X9957Y23328
X13957Y23328
X14957Y23328
X15957Y23328
X16957Y23328
X17957Y23328
X18957Y23328
X19957Y23328
X20957Y23328
X21957Y23328
X22957Y23328
X23957Y23328
X24957Y23328
X25957Y23328
X26957Y23328
X27957Y23328
X28957Y23328
X28957Y22328
X27957Y22328
X26957Y22328
X25957Y22328
X24957Y22328
X23957Y22328
X22957Y22328
X21957Y22328
X20957Y22328
X19957Y22328
X18957Y22328
X17957Y22328
X16957Y22328
X15957Y22328
X14957Y22328
X13957Y22328
T06
X8040Y22828
X2015Y24382
X8040Y3536
X30874Y3536
X30874Y22828
M30
