G75*
%MOIN*%
%OFA0B0*%
%FSLAX25Y25*%
%IPPOS*%
%LPD*%
%AMOC8*
5,1,8,0,0,1.08239X$1,22.5*
%
%ADD10C,0.13398*%
%ADD11C,0.12205*%
%ADD12C,0.05950*%
%ADD13R,0.06800X0.06800*%
%ADD14OC8,0.06800*%
%ADD15C,0.09400*%
%ADD16C,0.06000*%
%ADD17C,0.03975*%
D10*
X0080395Y0035362D03*
X0080395Y0228275D03*
X0020149Y0243818D03*
X0308742Y0228275D03*
X0308742Y0035362D03*
D11*
X0303242Y0035362D02*
X0303244Y0035510D01*
X0303250Y0035658D01*
X0303260Y0035806D01*
X0303274Y0035954D01*
X0303292Y0036101D01*
X0303314Y0036248D01*
X0303340Y0036394D01*
X0303369Y0036539D01*
X0303403Y0036684D01*
X0303441Y0036827D01*
X0303482Y0036970D01*
X0303527Y0037111D01*
X0303577Y0037251D01*
X0303629Y0037389D01*
X0303686Y0037527D01*
X0303746Y0037662D01*
X0303810Y0037796D01*
X0303877Y0037928D01*
X0303948Y0038058D01*
X0304023Y0038187D01*
X0304101Y0038313D01*
X0304182Y0038437D01*
X0304266Y0038559D01*
X0304354Y0038678D01*
X0304445Y0038795D01*
X0304539Y0038910D01*
X0304637Y0039022D01*
X0304737Y0039131D01*
X0304840Y0039238D01*
X0304946Y0039342D01*
X0305054Y0039443D01*
X0305166Y0039541D01*
X0305280Y0039636D01*
X0305396Y0039727D01*
X0305515Y0039816D01*
X0305636Y0039901D01*
X0305760Y0039983D01*
X0305886Y0040062D01*
X0306013Y0040137D01*
X0306143Y0040209D01*
X0306275Y0040278D01*
X0306408Y0040342D01*
X0306543Y0040403D01*
X0306680Y0040461D01*
X0306818Y0040515D01*
X0306958Y0040565D01*
X0307099Y0040611D01*
X0307241Y0040653D01*
X0307384Y0040692D01*
X0307528Y0040726D01*
X0307674Y0040757D01*
X0307819Y0040784D01*
X0307966Y0040807D01*
X0308113Y0040826D01*
X0308261Y0040841D01*
X0308408Y0040852D01*
X0308557Y0040859D01*
X0308705Y0040862D01*
X0308853Y0040861D01*
X0309001Y0040856D01*
X0309149Y0040847D01*
X0309297Y0040834D01*
X0309445Y0040817D01*
X0309591Y0040796D01*
X0309738Y0040771D01*
X0309883Y0040742D01*
X0310028Y0040710D01*
X0310171Y0040673D01*
X0310314Y0040633D01*
X0310456Y0040588D01*
X0310596Y0040540D01*
X0310735Y0040488D01*
X0310872Y0040433D01*
X0311008Y0040373D01*
X0311143Y0040310D01*
X0311275Y0040244D01*
X0311406Y0040174D01*
X0311535Y0040100D01*
X0311661Y0040023D01*
X0311786Y0039943D01*
X0311908Y0039859D01*
X0312029Y0039772D01*
X0312146Y0039682D01*
X0312262Y0039588D01*
X0312374Y0039492D01*
X0312484Y0039393D01*
X0312592Y0039290D01*
X0312696Y0039185D01*
X0312798Y0039077D01*
X0312896Y0038966D01*
X0312992Y0038853D01*
X0313085Y0038737D01*
X0313174Y0038619D01*
X0313260Y0038498D01*
X0313343Y0038375D01*
X0313423Y0038250D01*
X0313499Y0038123D01*
X0313572Y0037993D01*
X0313641Y0037862D01*
X0313706Y0037729D01*
X0313769Y0037595D01*
X0313827Y0037458D01*
X0313882Y0037320D01*
X0313932Y0037181D01*
X0313980Y0037040D01*
X0314023Y0036899D01*
X0314063Y0036756D01*
X0314098Y0036612D01*
X0314130Y0036467D01*
X0314158Y0036321D01*
X0314182Y0036175D01*
X0314202Y0036028D01*
X0314218Y0035880D01*
X0314230Y0035733D01*
X0314238Y0035584D01*
X0314242Y0035436D01*
X0314242Y0035288D01*
X0314238Y0035140D01*
X0314230Y0034991D01*
X0314218Y0034844D01*
X0314202Y0034696D01*
X0314182Y0034549D01*
X0314158Y0034403D01*
X0314130Y0034257D01*
X0314098Y0034112D01*
X0314063Y0033968D01*
X0314023Y0033825D01*
X0313980Y0033684D01*
X0313932Y0033543D01*
X0313882Y0033404D01*
X0313827Y0033266D01*
X0313769Y0033129D01*
X0313706Y0032995D01*
X0313641Y0032862D01*
X0313572Y0032731D01*
X0313499Y0032601D01*
X0313423Y0032474D01*
X0313343Y0032349D01*
X0313260Y0032226D01*
X0313174Y0032105D01*
X0313085Y0031987D01*
X0312992Y0031871D01*
X0312896Y0031758D01*
X0312798Y0031647D01*
X0312696Y0031539D01*
X0312592Y0031434D01*
X0312484Y0031331D01*
X0312374Y0031232D01*
X0312262Y0031136D01*
X0312146Y0031042D01*
X0312029Y0030952D01*
X0311908Y0030865D01*
X0311786Y0030781D01*
X0311661Y0030701D01*
X0311535Y0030624D01*
X0311406Y0030550D01*
X0311275Y0030480D01*
X0311143Y0030414D01*
X0311008Y0030351D01*
X0310872Y0030291D01*
X0310735Y0030236D01*
X0310596Y0030184D01*
X0310456Y0030136D01*
X0310314Y0030091D01*
X0310171Y0030051D01*
X0310028Y0030014D01*
X0309883Y0029982D01*
X0309738Y0029953D01*
X0309591Y0029928D01*
X0309445Y0029907D01*
X0309297Y0029890D01*
X0309149Y0029877D01*
X0309001Y0029868D01*
X0308853Y0029863D01*
X0308705Y0029862D01*
X0308557Y0029865D01*
X0308408Y0029872D01*
X0308261Y0029883D01*
X0308113Y0029898D01*
X0307966Y0029917D01*
X0307819Y0029940D01*
X0307674Y0029967D01*
X0307528Y0029998D01*
X0307384Y0030032D01*
X0307241Y0030071D01*
X0307099Y0030113D01*
X0306958Y0030159D01*
X0306818Y0030209D01*
X0306680Y0030263D01*
X0306543Y0030321D01*
X0306408Y0030382D01*
X0306275Y0030446D01*
X0306143Y0030515D01*
X0306013Y0030587D01*
X0305886Y0030662D01*
X0305760Y0030741D01*
X0305636Y0030823D01*
X0305515Y0030908D01*
X0305396Y0030997D01*
X0305280Y0031088D01*
X0305166Y0031183D01*
X0305054Y0031281D01*
X0304946Y0031382D01*
X0304840Y0031486D01*
X0304737Y0031593D01*
X0304637Y0031702D01*
X0304539Y0031814D01*
X0304445Y0031929D01*
X0304354Y0032046D01*
X0304266Y0032165D01*
X0304182Y0032287D01*
X0304101Y0032411D01*
X0304023Y0032537D01*
X0303948Y0032666D01*
X0303877Y0032796D01*
X0303810Y0032928D01*
X0303746Y0033062D01*
X0303686Y0033197D01*
X0303629Y0033335D01*
X0303577Y0033473D01*
X0303527Y0033613D01*
X0303482Y0033754D01*
X0303441Y0033897D01*
X0303403Y0034040D01*
X0303369Y0034185D01*
X0303340Y0034330D01*
X0303314Y0034476D01*
X0303292Y0034623D01*
X0303274Y0034770D01*
X0303260Y0034918D01*
X0303250Y0035066D01*
X0303244Y0035214D01*
X0303242Y0035362D01*
X0303242Y0228275D02*
X0303244Y0228423D01*
X0303250Y0228571D01*
X0303260Y0228719D01*
X0303274Y0228867D01*
X0303292Y0229014D01*
X0303314Y0229161D01*
X0303340Y0229307D01*
X0303369Y0229452D01*
X0303403Y0229597D01*
X0303441Y0229740D01*
X0303482Y0229883D01*
X0303527Y0230024D01*
X0303577Y0230164D01*
X0303629Y0230302D01*
X0303686Y0230440D01*
X0303746Y0230575D01*
X0303810Y0230709D01*
X0303877Y0230841D01*
X0303948Y0230971D01*
X0304023Y0231100D01*
X0304101Y0231226D01*
X0304182Y0231350D01*
X0304266Y0231472D01*
X0304354Y0231591D01*
X0304445Y0231708D01*
X0304539Y0231823D01*
X0304637Y0231935D01*
X0304737Y0232044D01*
X0304840Y0232151D01*
X0304946Y0232255D01*
X0305054Y0232356D01*
X0305166Y0232454D01*
X0305280Y0232549D01*
X0305396Y0232640D01*
X0305515Y0232729D01*
X0305636Y0232814D01*
X0305760Y0232896D01*
X0305886Y0232975D01*
X0306013Y0233050D01*
X0306143Y0233122D01*
X0306275Y0233191D01*
X0306408Y0233255D01*
X0306543Y0233316D01*
X0306680Y0233374D01*
X0306818Y0233428D01*
X0306958Y0233478D01*
X0307099Y0233524D01*
X0307241Y0233566D01*
X0307384Y0233605D01*
X0307528Y0233639D01*
X0307674Y0233670D01*
X0307819Y0233697D01*
X0307966Y0233720D01*
X0308113Y0233739D01*
X0308261Y0233754D01*
X0308408Y0233765D01*
X0308557Y0233772D01*
X0308705Y0233775D01*
X0308853Y0233774D01*
X0309001Y0233769D01*
X0309149Y0233760D01*
X0309297Y0233747D01*
X0309445Y0233730D01*
X0309591Y0233709D01*
X0309738Y0233684D01*
X0309883Y0233655D01*
X0310028Y0233623D01*
X0310171Y0233586D01*
X0310314Y0233546D01*
X0310456Y0233501D01*
X0310596Y0233453D01*
X0310735Y0233401D01*
X0310872Y0233346D01*
X0311008Y0233286D01*
X0311143Y0233223D01*
X0311275Y0233157D01*
X0311406Y0233087D01*
X0311535Y0233013D01*
X0311661Y0232936D01*
X0311786Y0232856D01*
X0311908Y0232772D01*
X0312029Y0232685D01*
X0312146Y0232595D01*
X0312262Y0232501D01*
X0312374Y0232405D01*
X0312484Y0232306D01*
X0312592Y0232203D01*
X0312696Y0232098D01*
X0312798Y0231990D01*
X0312896Y0231879D01*
X0312992Y0231766D01*
X0313085Y0231650D01*
X0313174Y0231532D01*
X0313260Y0231411D01*
X0313343Y0231288D01*
X0313423Y0231163D01*
X0313499Y0231036D01*
X0313572Y0230906D01*
X0313641Y0230775D01*
X0313706Y0230642D01*
X0313769Y0230508D01*
X0313827Y0230371D01*
X0313882Y0230233D01*
X0313932Y0230094D01*
X0313980Y0229953D01*
X0314023Y0229812D01*
X0314063Y0229669D01*
X0314098Y0229525D01*
X0314130Y0229380D01*
X0314158Y0229234D01*
X0314182Y0229088D01*
X0314202Y0228941D01*
X0314218Y0228793D01*
X0314230Y0228646D01*
X0314238Y0228497D01*
X0314242Y0228349D01*
X0314242Y0228201D01*
X0314238Y0228053D01*
X0314230Y0227904D01*
X0314218Y0227757D01*
X0314202Y0227609D01*
X0314182Y0227462D01*
X0314158Y0227316D01*
X0314130Y0227170D01*
X0314098Y0227025D01*
X0314063Y0226881D01*
X0314023Y0226738D01*
X0313980Y0226597D01*
X0313932Y0226456D01*
X0313882Y0226317D01*
X0313827Y0226179D01*
X0313769Y0226042D01*
X0313706Y0225908D01*
X0313641Y0225775D01*
X0313572Y0225644D01*
X0313499Y0225514D01*
X0313423Y0225387D01*
X0313343Y0225262D01*
X0313260Y0225139D01*
X0313174Y0225018D01*
X0313085Y0224900D01*
X0312992Y0224784D01*
X0312896Y0224671D01*
X0312798Y0224560D01*
X0312696Y0224452D01*
X0312592Y0224347D01*
X0312484Y0224244D01*
X0312374Y0224145D01*
X0312262Y0224049D01*
X0312146Y0223955D01*
X0312029Y0223865D01*
X0311908Y0223778D01*
X0311786Y0223694D01*
X0311661Y0223614D01*
X0311535Y0223537D01*
X0311406Y0223463D01*
X0311275Y0223393D01*
X0311143Y0223327D01*
X0311008Y0223264D01*
X0310872Y0223204D01*
X0310735Y0223149D01*
X0310596Y0223097D01*
X0310456Y0223049D01*
X0310314Y0223004D01*
X0310171Y0222964D01*
X0310028Y0222927D01*
X0309883Y0222895D01*
X0309738Y0222866D01*
X0309591Y0222841D01*
X0309445Y0222820D01*
X0309297Y0222803D01*
X0309149Y0222790D01*
X0309001Y0222781D01*
X0308853Y0222776D01*
X0308705Y0222775D01*
X0308557Y0222778D01*
X0308408Y0222785D01*
X0308261Y0222796D01*
X0308113Y0222811D01*
X0307966Y0222830D01*
X0307819Y0222853D01*
X0307674Y0222880D01*
X0307528Y0222911D01*
X0307384Y0222945D01*
X0307241Y0222984D01*
X0307099Y0223026D01*
X0306958Y0223072D01*
X0306818Y0223122D01*
X0306680Y0223176D01*
X0306543Y0223234D01*
X0306408Y0223295D01*
X0306275Y0223359D01*
X0306143Y0223428D01*
X0306013Y0223500D01*
X0305886Y0223575D01*
X0305760Y0223654D01*
X0305636Y0223736D01*
X0305515Y0223821D01*
X0305396Y0223910D01*
X0305280Y0224001D01*
X0305166Y0224096D01*
X0305054Y0224194D01*
X0304946Y0224295D01*
X0304840Y0224399D01*
X0304737Y0224506D01*
X0304637Y0224615D01*
X0304539Y0224727D01*
X0304445Y0224842D01*
X0304354Y0224959D01*
X0304266Y0225078D01*
X0304182Y0225200D01*
X0304101Y0225324D01*
X0304023Y0225450D01*
X0303948Y0225579D01*
X0303877Y0225709D01*
X0303810Y0225841D01*
X0303746Y0225975D01*
X0303686Y0226110D01*
X0303629Y0226248D01*
X0303577Y0226386D01*
X0303527Y0226526D01*
X0303482Y0226667D01*
X0303441Y0226810D01*
X0303403Y0226953D01*
X0303369Y0227098D01*
X0303340Y0227243D01*
X0303314Y0227389D01*
X0303292Y0227536D01*
X0303274Y0227683D01*
X0303260Y0227831D01*
X0303250Y0227979D01*
X0303244Y0228127D01*
X0303242Y0228275D01*
X0074895Y0228275D02*
X0074897Y0228423D01*
X0074903Y0228571D01*
X0074913Y0228719D01*
X0074927Y0228867D01*
X0074945Y0229014D01*
X0074967Y0229161D01*
X0074993Y0229307D01*
X0075022Y0229452D01*
X0075056Y0229597D01*
X0075094Y0229740D01*
X0075135Y0229883D01*
X0075180Y0230024D01*
X0075230Y0230164D01*
X0075282Y0230302D01*
X0075339Y0230440D01*
X0075399Y0230575D01*
X0075463Y0230709D01*
X0075530Y0230841D01*
X0075601Y0230971D01*
X0075676Y0231100D01*
X0075754Y0231226D01*
X0075835Y0231350D01*
X0075919Y0231472D01*
X0076007Y0231591D01*
X0076098Y0231708D01*
X0076192Y0231823D01*
X0076290Y0231935D01*
X0076390Y0232044D01*
X0076493Y0232151D01*
X0076599Y0232255D01*
X0076707Y0232356D01*
X0076819Y0232454D01*
X0076933Y0232549D01*
X0077049Y0232640D01*
X0077168Y0232729D01*
X0077289Y0232814D01*
X0077413Y0232896D01*
X0077539Y0232975D01*
X0077666Y0233050D01*
X0077796Y0233122D01*
X0077928Y0233191D01*
X0078061Y0233255D01*
X0078196Y0233316D01*
X0078333Y0233374D01*
X0078471Y0233428D01*
X0078611Y0233478D01*
X0078752Y0233524D01*
X0078894Y0233566D01*
X0079037Y0233605D01*
X0079181Y0233639D01*
X0079327Y0233670D01*
X0079472Y0233697D01*
X0079619Y0233720D01*
X0079766Y0233739D01*
X0079914Y0233754D01*
X0080061Y0233765D01*
X0080210Y0233772D01*
X0080358Y0233775D01*
X0080506Y0233774D01*
X0080654Y0233769D01*
X0080802Y0233760D01*
X0080950Y0233747D01*
X0081098Y0233730D01*
X0081244Y0233709D01*
X0081391Y0233684D01*
X0081536Y0233655D01*
X0081681Y0233623D01*
X0081824Y0233586D01*
X0081967Y0233546D01*
X0082109Y0233501D01*
X0082249Y0233453D01*
X0082388Y0233401D01*
X0082525Y0233346D01*
X0082661Y0233286D01*
X0082796Y0233223D01*
X0082928Y0233157D01*
X0083059Y0233087D01*
X0083188Y0233013D01*
X0083314Y0232936D01*
X0083439Y0232856D01*
X0083561Y0232772D01*
X0083682Y0232685D01*
X0083799Y0232595D01*
X0083915Y0232501D01*
X0084027Y0232405D01*
X0084137Y0232306D01*
X0084245Y0232203D01*
X0084349Y0232098D01*
X0084451Y0231990D01*
X0084549Y0231879D01*
X0084645Y0231766D01*
X0084738Y0231650D01*
X0084827Y0231532D01*
X0084913Y0231411D01*
X0084996Y0231288D01*
X0085076Y0231163D01*
X0085152Y0231036D01*
X0085225Y0230906D01*
X0085294Y0230775D01*
X0085359Y0230642D01*
X0085422Y0230508D01*
X0085480Y0230371D01*
X0085535Y0230233D01*
X0085585Y0230094D01*
X0085633Y0229953D01*
X0085676Y0229812D01*
X0085716Y0229669D01*
X0085751Y0229525D01*
X0085783Y0229380D01*
X0085811Y0229234D01*
X0085835Y0229088D01*
X0085855Y0228941D01*
X0085871Y0228793D01*
X0085883Y0228646D01*
X0085891Y0228497D01*
X0085895Y0228349D01*
X0085895Y0228201D01*
X0085891Y0228053D01*
X0085883Y0227904D01*
X0085871Y0227757D01*
X0085855Y0227609D01*
X0085835Y0227462D01*
X0085811Y0227316D01*
X0085783Y0227170D01*
X0085751Y0227025D01*
X0085716Y0226881D01*
X0085676Y0226738D01*
X0085633Y0226597D01*
X0085585Y0226456D01*
X0085535Y0226317D01*
X0085480Y0226179D01*
X0085422Y0226042D01*
X0085359Y0225908D01*
X0085294Y0225775D01*
X0085225Y0225644D01*
X0085152Y0225514D01*
X0085076Y0225387D01*
X0084996Y0225262D01*
X0084913Y0225139D01*
X0084827Y0225018D01*
X0084738Y0224900D01*
X0084645Y0224784D01*
X0084549Y0224671D01*
X0084451Y0224560D01*
X0084349Y0224452D01*
X0084245Y0224347D01*
X0084137Y0224244D01*
X0084027Y0224145D01*
X0083915Y0224049D01*
X0083799Y0223955D01*
X0083682Y0223865D01*
X0083561Y0223778D01*
X0083439Y0223694D01*
X0083314Y0223614D01*
X0083188Y0223537D01*
X0083059Y0223463D01*
X0082928Y0223393D01*
X0082796Y0223327D01*
X0082661Y0223264D01*
X0082525Y0223204D01*
X0082388Y0223149D01*
X0082249Y0223097D01*
X0082109Y0223049D01*
X0081967Y0223004D01*
X0081824Y0222964D01*
X0081681Y0222927D01*
X0081536Y0222895D01*
X0081391Y0222866D01*
X0081244Y0222841D01*
X0081098Y0222820D01*
X0080950Y0222803D01*
X0080802Y0222790D01*
X0080654Y0222781D01*
X0080506Y0222776D01*
X0080358Y0222775D01*
X0080210Y0222778D01*
X0080061Y0222785D01*
X0079914Y0222796D01*
X0079766Y0222811D01*
X0079619Y0222830D01*
X0079472Y0222853D01*
X0079327Y0222880D01*
X0079181Y0222911D01*
X0079037Y0222945D01*
X0078894Y0222984D01*
X0078752Y0223026D01*
X0078611Y0223072D01*
X0078471Y0223122D01*
X0078333Y0223176D01*
X0078196Y0223234D01*
X0078061Y0223295D01*
X0077928Y0223359D01*
X0077796Y0223428D01*
X0077666Y0223500D01*
X0077539Y0223575D01*
X0077413Y0223654D01*
X0077289Y0223736D01*
X0077168Y0223821D01*
X0077049Y0223910D01*
X0076933Y0224001D01*
X0076819Y0224096D01*
X0076707Y0224194D01*
X0076599Y0224295D01*
X0076493Y0224399D01*
X0076390Y0224506D01*
X0076290Y0224615D01*
X0076192Y0224727D01*
X0076098Y0224842D01*
X0076007Y0224959D01*
X0075919Y0225078D01*
X0075835Y0225200D01*
X0075754Y0225324D01*
X0075676Y0225450D01*
X0075601Y0225579D01*
X0075530Y0225709D01*
X0075463Y0225841D01*
X0075399Y0225975D01*
X0075339Y0226110D01*
X0075282Y0226248D01*
X0075230Y0226386D01*
X0075180Y0226526D01*
X0075135Y0226667D01*
X0075094Y0226810D01*
X0075056Y0226953D01*
X0075022Y0227098D01*
X0074993Y0227243D01*
X0074967Y0227389D01*
X0074945Y0227536D01*
X0074927Y0227683D01*
X0074913Y0227831D01*
X0074903Y0227979D01*
X0074897Y0228127D01*
X0074895Y0228275D01*
X0074895Y0035362D02*
X0074897Y0035510D01*
X0074903Y0035658D01*
X0074913Y0035806D01*
X0074927Y0035954D01*
X0074945Y0036101D01*
X0074967Y0036248D01*
X0074993Y0036394D01*
X0075022Y0036539D01*
X0075056Y0036684D01*
X0075094Y0036827D01*
X0075135Y0036970D01*
X0075180Y0037111D01*
X0075230Y0037251D01*
X0075282Y0037389D01*
X0075339Y0037527D01*
X0075399Y0037662D01*
X0075463Y0037796D01*
X0075530Y0037928D01*
X0075601Y0038058D01*
X0075676Y0038187D01*
X0075754Y0038313D01*
X0075835Y0038437D01*
X0075919Y0038559D01*
X0076007Y0038678D01*
X0076098Y0038795D01*
X0076192Y0038910D01*
X0076290Y0039022D01*
X0076390Y0039131D01*
X0076493Y0039238D01*
X0076599Y0039342D01*
X0076707Y0039443D01*
X0076819Y0039541D01*
X0076933Y0039636D01*
X0077049Y0039727D01*
X0077168Y0039816D01*
X0077289Y0039901D01*
X0077413Y0039983D01*
X0077539Y0040062D01*
X0077666Y0040137D01*
X0077796Y0040209D01*
X0077928Y0040278D01*
X0078061Y0040342D01*
X0078196Y0040403D01*
X0078333Y0040461D01*
X0078471Y0040515D01*
X0078611Y0040565D01*
X0078752Y0040611D01*
X0078894Y0040653D01*
X0079037Y0040692D01*
X0079181Y0040726D01*
X0079327Y0040757D01*
X0079472Y0040784D01*
X0079619Y0040807D01*
X0079766Y0040826D01*
X0079914Y0040841D01*
X0080061Y0040852D01*
X0080210Y0040859D01*
X0080358Y0040862D01*
X0080506Y0040861D01*
X0080654Y0040856D01*
X0080802Y0040847D01*
X0080950Y0040834D01*
X0081098Y0040817D01*
X0081244Y0040796D01*
X0081391Y0040771D01*
X0081536Y0040742D01*
X0081681Y0040710D01*
X0081824Y0040673D01*
X0081967Y0040633D01*
X0082109Y0040588D01*
X0082249Y0040540D01*
X0082388Y0040488D01*
X0082525Y0040433D01*
X0082661Y0040373D01*
X0082796Y0040310D01*
X0082928Y0040244D01*
X0083059Y0040174D01*
X0083188Y0040100D01*
X0083314Y0040023D01*
X0083439Y0039943D01*
X0083561Y0039859D01*
X0083682Y0039772D01*
X0083799Y0039682D01*
X0083915Y0039588D01*
X0084027Y0039492D01*
X0084137Y0039393D01*
X0084245Y0039290D01*
X0084349Y0039185D01*
X0084451Y0039077D01*
X0084549Y0038966D01*
X0084645Y0038853D01*
X0084738Y0038737D01*
X0084827Y0038619D01*
X0084913Y0038498D01*
X0084996Y0038375D01*
X0085076Y0038250D01*
X0085152Y0038123D01*
X0085225Y0037993D01*
X0085294Y0037862D01*
X0085359Y0037729D01*
X0085422Y0037595D01*
X0085480Y0037458D01*
X0085535Y0037320D01*
X0085585Y0037181D01*
X0085633Y0037040D01*
X0085676Y0036899D01*
X0085716Y0036756D01*
X0085751Y0036612D01*
X0085783Y0036467D01*
X0085811Y0036321D01*
X0085835Y0036175D01*
X0085855Y0036028D01*
X0085871Y0035880D01*
X0085883Y0035733D01*
X0085891Y0035584D01*
X0085895Y0035436D01*
X0085895Y0035288D01*
X0085891Y0035140D01*
X0085883Y0034991D01*
X0085871Y0034844D01*
X0085855Y0034696D01*
X0085835Y0034549D01*
X0085811Y0034403D01*
X0085783Y0034257D01*
X0085751Y0034112D01*
X0085716Y0033968D01*
X0085676Y0033825D01*
X0085633Y0033684D01*
X0085585Y0033543D01*
X0085535Y0033404D01*
X0085480Y0033266D01*
X0085422Y0033129D01*
X0085359Y0032995D01*
X0085294Y0032862D01*
X0085225Y0032731D01*
X0085152Y0032601D01*
X0085076Y0032474D01*
X0084996Y0032349D01*
X0084913Y0032226D01*
X0084827Y0032105D01*
X0084738Y0031987D01*
X0084645Y0031871D01*
X0084549Y0031758D01*
X0084451Y0031647D01*
X0084349Y0031539D01*
X0084245Y0031434D01*
X0084137Y0031331D01*
X0084027Y0031232D01*
X0083915Y0031136D01*
X0083799Y0031042D01*
X0083682Y0030952D01*
X0083561Y0030865D01*
X0083439Y0030781D01*
X0083314Y0030701D01*
X0083188Y0030624D01*
X0083059Y0030550D01*
X0082928Y0030480D01*
X0082796Y0030414D01*
X0082661Y0030351D01*
X0082525Y0030291D01*
X0082388Y0030236D01*
X0082249Y0030184D01*
X0082109Y0030136D01*
X0081967Y0030091D01*
X0081824Y0030051D01*
X0081681Y0030014D01*
X0081536Y0029982D01*
X0081391Y0029953D01*
X0081244Y0029928D01*
X0081098Y0029907D01*
X0080950Y0029890D01*
X0080802Y0029877D01*
X0080654Y0029868D01*
X0080506Y0029863D01*
X0080358Y0029862D01*
X0080210Y0029865D01*
X0080061Y0029872D01*
X0079914Y0029883D01*
X0079766Y0029898D01*
X0079619Y0029917D01*
X0079472Y0029940D01*
X0079327Y0029967D01*
X0079181Y0029998D01*
X0079037Y0030032D01*
X0078894Y0030071D01*
X0078752Y0030113D01*
X0078611Y0030159D01*
X0078471Y0030209D01*
X0078333Y0030263D01*
X0078196Y0030321D01*
X0078061Y0030382D01*
X0077928Y0030446D01*
X0077796Y0030515D01*
X0077666Y0030587D01*
X0077539Y0030662D01*
X0077413Y0030741D01*
X0077289Y0030823D01*
X0077168Y0030908D01*
X0077049Y0030997D01*
X0076933Y0031088D01*
X0076819Y0031183D01*
X0076707Y0031281D01*
X0076599Y0031382D01*
X0076493Y0031486D01*
X0076390Y0031593D01*
X0076290Y0031702D01*
X0076192Y0031814D01*
X0076098Y0031929D01*
X0076007Y0032046D01*
X0075919Y0032165D01*
X0075835Y0032287D01*
X0075754Y0032411D01*
X0075676Y0032537D01*
X0075601Y0032666D01*
X0075530Y0032796D01*
X0075463Y0032928D01*
X0075399Y0033062D01*
X0075339Y0033197D01*
X0075282Y0033335D01*
X0075230Y0033473D01*
X0075180Y0033613D01*
X0075135Y0033754D01*
X0075094Y0033897D01*
X0075056Y0034040D01*
X0075022Y0034185D01*
X0074993Y0034330D01*
X0074967Y0034476D01*
X0074945Y0034623D01*
X0074927Y0034770D01*
X0074913Y0034918D01*
X0074903Y0035066D01*
X0074897Y0035214D01*
X0074895Y0035362D01*
D12*
X0061567Y0014881D03*
X0071567Y0014881D03*
X0081567Y0014881D03*
X0231645Y0014881D03*
X0241645Y0014881D03*
X0251645Y0014881D03*
X0251488Y0256219D03*
X0261488Y0256219D03*
X0241488Y0256219D03*
X0231488Y0256219D03*
X0221488Y0256219D03*
X0211488Y0256219D03*
X0201488Y0256219D03*
X0191488Y0256219D03*
X0181488Y0256219D03*
X0171488Y0256219D03*
X0161488Y0256219D03*
X0151488Y0256219D03*
X0141488Y0256219D03*
X0131488Y0256219D03*
X0121488Y0256219D03*
X0111488Y0256219D03*
X0101488Y0256219D03*
X0091488Y0256219D03*
X0081488Y0256219D03*
X0071488Y0256219D03*
D13*
X0099569Y0223275D03*
D14*
X0109569Y0223275D03*
X0119569Y0223275D03*
X0129569Y0223275D03*
X0139569Y0223275D03*
X0149569Y0223275D03*
X0159569Y0223275D03*
X0169569Y0223275D03*
X0179569Y0223275D03*
X0189569Y0223275D03*
X0199569Y0223275D03*
X0209569Y0223275D03*
X0219569Y0223275D03*
X0229569Y0223275D03*
X0239569Y0223275D03*
X0249569Y0223275D03*
X0259569Y0223275D03*
X0269569Y0223275D03*
X0279569Y0223275D03*
X0289569Y0223275D03*
X0289569Y0233275D03*
X0279569Y0233275D03*
X0269569Y0233275D03*
X0259569Y0233275D03*
X0249569Y0233275D03*
X0239569Y0233275D03*
X0229569Y0233275D03*
X0219569Y0233275D03*
X0209569Y0233275D03*
X0199569Y0233275D03*
X0189569Y0233275D03*
X0179569Y0233275D03*
X0169569Y0233275D03*
X0159569Y0233275D03*
X0149569Y0233275D03*
X0139569Y0233275D03*
X0129569Y0233275D03*
X0119569Y0233275D03*
X0109569Y0233275D03*
X0099569Y0233275D03*
D15*
X0045119Y0202361D02*
X0036519Y0202361D01*
X0021921Y0194850D02*
X0021921Y0186250D01*
X0036519Y0178739D02*
X0045119Y0178739D01*
D16*
X0045719Y0228050D02*
X0050919Y0228050D01*
X0050919Y0238050D02*
X0045719Y0238050D01*
X0045719Y0248050D02*
X0050919Y0248050D01*
D17*
X0023319Y0216800D03*
X0102691Y0245832D03*
X0236916Y0245507D03*
X0266166Y0249732D03*
X0058319Y0059435D03*
X0048416Y0059607D03*
M02*
