G75*
%MOIN*%
%OFA0B0*%
%FSLAX25Y25*%
%IPPOS*%
%LPD*%
%AMOC8*
5,1,8,0,0,1.08239X$1,22.5*
%
%ADD10C,0.05150*%
%ADD11R,0.06000X0.06000*%
%ADD12OC8,0.06000*%
%ADD13R,0.06300X0.04600*%
%ADD14C,0.08600*%
%ADD15R,0.04600X0.06300*%
%ADD16C,0.05200*%
%ADD17C,0.02400*%
%ADD18C,0.03175*%
%ADD19C,0.01600*%
%ADD20C,0.01000*%
D10*
X0061567Y0014881D03*
X0071567Y0014881D03*
X0081567Y0014881D03*
X0231645Y0014881D03*
X0241645Y0014881D03*
X0251645Y0014881D03*
X0251488Y0256219D03*
X0261488Y0256219D03*
X0241488Y0256219D03*
X0231488Y0256219D03*
X0221488Y0256219D03*
X0211488Y0256219D03*
X0201488Y0256219D03*
X0191488Y0256219D03*
X0181488Y0256219D03*
X0171488Y0256219D03*
X0161488Y0256219D03*
X0151488Y0256219D03*
X0141488Y0256219D03*
X0131488Y0256219D03*
X0121488Y0256219D03*
X0111488Y0256219D03*
X0101488Y0256219D03*
X0091488Y0256219D03*
X0081488Y0256219D03*
X0071488Y0256219D03*
D11*
X0099569Y0223275D03*
D12*
X0109569Y0223275D03*
X0119569Y0223275D03*
X0129569Y0223275D03*
X0139569Y0223275D03*
X0149569Y0223275D03*
X0159569Y0223275D03*
X0169569Y0223275D03*
X0179569Y0223275D03*
X0189569Y0223275D03*
X0199569Y0223275D03*
X0209569Y0223275D03*
X0219569Y0223275D03*
X0229569Y0223275D03*
X0239569Y0223275D03*
X0249569Y0223275D03*
X0259569Y0223275D03*
X0269569Y0223275D03*
X0279569Y0223275D03*
X0289569Y0223275D03*
X0289569Y0233275D03*
X0279569Y0233275D03*
X0269569Y0233275D03*
X0259569Y0233275D03*
X0249569Y0233275D03*
X0239569Y0233275D03*
X0229569Y0233275D03*
X0219569Y0233275D03*
X0209569Y0233275D03*
X0199569Y0233275D03*
X0189569Y0233275D03*
X0179569Y0233275D03*
X0169569Y0233275D03*
X0159569Y0233275D03*
X0149569Y0233275D03*
X0139569Y0233275D03*
X0129569Y0233275D03*
X0119569Y0233275D03*
X0109569Y0233275D03*
X0099569Y0233275D03*
D13*
X0274291Y0247707D03*
X0274291Y0253707D03*
X0058319Y0049800D03*
X0058319Y0043800D03*
X0045819Y0043800D03*
X0045819Y0049800D03*
D14*
X0045119Y0178739D02*
X0036519Y0178739D01*
X0021921Y0186250D02*
X0021921Y0194850D01*
X0036519Y0202361D02*
X0045119Y0202361D01*
D15*
X0035069Y0216800D03*
X0029069Y0216800D03*
X0085391Y0246482D03*
X0091391Y0246482D03*
X0221566Y0247132D03*
X0227566Y0247132D03*
D16*
X0050919Y0248050D02*
X0045719Y0248050D01*
X0045719Y0238050D02*
X0050919Y0238050D01*
X0050919Y0228050D02*
X0045719Y0228050D01*
D17*
X0045819Y0228050D02*
X0048319Y0228050D01*
X0045819Y0228050D02*
X0035819Y0218050D01*
X0035819Y0216050D01*
X0035819Y0205550D01*
X0039008Y0202361D01*
X0040819Y0202361D01*
X0035819Y0216050D02*
X0035069Y0216800D01*
X0029069Y0216800D02*
X0023319Y0216800D01*
D18*
X0023319Y0216800D03*
X0102691Y0245832D03*
X0236916Y0245507D03*
X0266166Y0249732D03*
X0058319Y0059435D03*
X0048416Y0059607D03*
D19*
X0013197Y0007899D02*
X0317269Y0007899D01*
X0317269Y0025610D01*
X0313966Y0023452D01*
X0309816Y0022401D01*
X0305549Y0022755D01*
X0301629Y0024474D01*
X0298479Y0027374D01*
X0296442Y0031139D01*
X0295737Y0035362D01*
X0296442Y0039584D01*
X0298479Y0043349D01*
X0301629Y0046249D01*
X0305549Y0047968D01*
X0309816Y0048322D01*
X0313966Y0047271D01*
X0317269Y0045113D01*
X0317269Y0218523D01*
X0313966Y0216366D01*
X0309816Y0215315D01*
X0305549Y0215668D01*
X0301629Y0217388D01*
X0298479Y0220287D01*
X0296442Y0224052D01*
X0295737Y0228275D01*
X0296442Y0232498D01*
X0298479Y0236263D01*
X0301629Y0239162D01*
X0305549Y0240882D01*
X0309816Y0241235D01*
X0313966Y0240184D01*
X0317269Y0238027D01*
X0317269Y0263250D01*
X0013197Y0263250D01*
X0013197Y0252562D01*
X0013334Y0252699D01*
X0015865Y0254161D01*
X0018688Y0254917D01*
X0021610Y0254917D01*
X0024433Y0254161D01*
X0026964Y0252699D01*
X0029031Y0250633D01*
X0030492Y0248102D01*
X0031248Y0245279D01*
X0031248Y0242356D01*
X0030492Y0239534D01*
X0029031Y0237003D01*
X0026964Y0234936D01*
X0024433Y0233475D01*
X0021610Y0232719D01*
X0018688Y0232719D01*
X0015865Y0233475D01*
X0013334Y0234936D01*
X0013197Y0235073D01*
X0013197Y0007899D01*
X0013197Y0009470D02*
X0317269Y0009470D01*
X0317269Y0011069D02*
X0253352Y0011069D01*
X0254010Y0011341D02*
X0255185Y0012516D01*
X0255820Y0014050D01*
X0255820Y0015711D01*
X0255185Y0017246D01*
X0254010Y0018420D01*
X0252476Y0019055D01*
X0250815Y0019055D01*
X0249280Y0018420D01*
X0248106Y0017246D01*
X0247471Y0015711D01*
X0247471Y0014050D01*
X0248106Y0012516D01*
X0249280Y0011341D01*
X0250815Y0010706D01*
X0252476Y0010706D01*
X0254010Y0011341D01*
X0255247Y0012668D02*
X0317269Y0012668D01*
X0317269Y0014266D02*
X0255820Y0014266D01*
X0255757Y0015865D02*
X0317269Y0015865D01*
X0317269Y0017463D02*
X0254967Y0017463D01*
X0248324Y0017463D02*
X0245177Y0017463D01*
X0244982Y0017731D02*
X0244495Y0018218D01*
X0243938Y0018622D01*
X0243325Y0018935D01*
X0242670Y0019148D01*
X0241990Y0019255D01*
X0241645Y0019255D01*
X0241301Y0019255D01*
X0240621Y0019148D01*
X0239966Y0018935D01*
X0239352Y0018622D01*
X0238795Y0018218D01*
X0238308Y0017731D01*
X0237904Y0017174D01*
X0237591Y0016560D01*
X0237378Y0015905D01*
X0237271Y0015225D01*
X0237271Y0014881D01*
X0241645Y0014881D01*
X0241645Y0019255D01*
X0241645Y0014881D01*
X0241645Y0014881D01*
X0241645Y0014881D01*
X0237271Y0014881D01*
X0237271Y0014536D01*
X0237378Y0013856D01*
X0237591Y0013201D01*
X0237904Y0012588D01*
X0238308Y0012031D01*
X0238795Y0011544D01*
X0239352Y0011139D01*
X0239966Y0010826D01*
X0240621Y0010614D01*
X0241301Y0010506D01*
X0241645Y0010506D01*
X0241645Y0014881D01*
X0241645Y0014881D01*
X0246020Y0014881D01*
X0246020Y0015225D01*
X0245912Y0015905D01*
X0245700Y0016560D01*
X0245387Y0017174D01*
X0244982Y0017731D01*
X0245919Y0015865D02*
X0247534Y0015865D01*
X0247471Y0014266D02*
X0245977Y0014266D01*
X0246020Y0014536D02*
X0246020Y0014881D01*
X0241645Y0014881D01*
X0241645Y0014881D01*
X0241645Y0010506D01*
X0241990Y0010506D01*
X0242670Y0010614D01*
X0243325Y0010826D01*
X0243938Y0011139D01*
X0244495Y0011544D01*
X0244982Y0012031D01*
X0245387Y0012588D01*
X0245700Y0013201D01*
X0245912Y0013856D01*
X0246020Y0014536D01*
X0245428Y0012668D02*
X0248043Y0012668D01*
X0249938Y0011069D02*
X0243801Y0011069D01*
X0241645Y0011069D02*
X0241645Y0011069D01*
X0241645Y0012668D02*
X0241645Y0012668D01*
X0241645Y0014266D02*
X0241645Y0014266D01*
X0241645Y0015865D02*
X0241645Y0015865D01*
X0241645Y0017463D02*
X0241645Y0017463D01*
X0241645Y0019062D02*
X0241645Y0019062D01*
X0240356Y0019062D02*
X0082856Y0019062D01*
X0082591Y0019148D02*
X0081911Y0019255D01*
X0081567Y0019255D01*
X0081567Y0014881D01*
X0085941Y0014881D01*
X0085941Y0015225D01*
X0085834Y0015905D01*
X0085621Y0016560D01*
X0085308Y0017174D01*
X0084903Y0017731D01*
X0084417Y0018218D01*
X0083859Y0018622D01*
X0083246Y0018935D01*
X0082591Y0019148D01*
X0081567Y0019062D02*
X0081567Y0019062D01*
X0081567Y0019255D02*
X0081222Y0019255D01*
X0080542Y0019148D01*
X0079887Y0018935D01*
X0079274Y0018622D01*
X0078717Y0018218D01*
X0078230Y0017731D01*
X0077825Y0017174D01*
X0077512Y0016560D01*
X0077300Y0015905D01*
X0077192Y0015225D01*
X0077192Y0014881D01*
X0081566Y0014881D01*
X0081566Y0014881D01*
X0081567Y0014881D02*
X0081567Y0019255D01*
X0080277Y0019062D02*
X0070356Y0019062D01*
X0070471Y0018946D02*
X0060419Y0028999D01*
X0060419Y0039900D01*
X0062131Y0039900D01*
X0063069Y0040837D01*
X0063069Y0046763D01*
X0063031Y0046800D01*
X0063069Y0046837D01*
X0063069Y0052763D01*
X0062131Y0053700D01*
X0060419Y0053700D01*
X0060419Y0057027D01*
X0061021Y0057629D01*
X0061506Y0058801D01*
X0061506Y0060069D01*
X0061021Y0061240D01*
X0060124Y0062137D01*
X0058953Y0062622D01*
X0057685Y0062622D01*
X0056513Y0062137D01*
X0055616Y0061240D01*
X0055131Y0060069D01*
X0055131Y0058801D01*
X0055616Y0057629D01*
X0056219Y0057027D01*
X0056219Y0053700D01*
X0054506Y0053700D01*
X0053569Y0052763D01*
X0053569Y0046837D01*
X0053606Y0046800D01*
X0053569Y0046763D01*
X0053569Y0040837D01*
X0054506Y0039900D01*
X0056219Y0039900D01*
X0056219Y0027259D01*
X0057449Y0026029D01*
X0067501Y0015976D01*
X0067392Y0015711D01*
X0067392Y0014050D01*
X0068027Y0012516D01*
X0069202Y0011341D01*
X0070736Y0010706D01*
X0072397Y0010706D01*
X0073931Y0011341D01*
X0075106Y0012516D01*
X0075741Y0014050D01*
X0075741Y0015711D01*
X0075106Y0017246D01*
X0073931Y0018420D01*
X0072397Y0019055D01*
X0070736Y0019055D01*
X0070471Y0018946D01*
X0068757Y0020660D02*
X0317269Y0020660D01*
X0317269Y0019062D02*
X0242935Y0019062D01*
X0238114Y0017463D02*
X0234967Y0017463D01*
X0235185Y0017246D02*
X0234010Y0018420D01*
X0232476Y0019055D01*
X0230815Y0019055D01*
X0229280Y0018420D01*
X0228106Y0017246D01*
X0227471Y0015711D01*
X0227471Y0014050D01*
X0228106Y0012516D01*
X0229280Y0011341D01*
X0230815Y0010706D01*
X0232476Y0010706D01*
X0234010Y0011341D01*
X0235185Y0012516D01*
X0235820Y0014050D01*
X0235820Y0015711D01*
X0235185Y0017246D01*
X0235757Y0015865D02*
X0237372Y0015865D01*
X0237313Y0014266D02*
X0235820Y0014266D01*
X0235247Y0012668D02*
X0237863Y0012668D01*
X0239490Y0011069D02*
X0233352Y0011069D01*
X0229938Y0011069D02*
X0083722Y0011069D01*
X0083859Y0011139D02*
X0084417Y0011544D01*
X0084903Y0012031D01*
X0085308Y0012588D01*
X0085621Y0013201D01*
X0085834Y0013856D01*
X0085941Y0014536D01*
X0085941Y0014881D01*
X0081567Y0014881D01*
X0081567Y0014881D01*
X0081567Y0014881D01*
X0081567Y0010506D01*
X0081911Y0010506D01*
X0082591Y0010614D01*
X0083246Y0010826D01*
X0083859Y0011139D01*
X0085349Y0012668D02*
X0228043Y0012668D01*
X0227471Y0014266D02*
X0085899Y0014266D01*
X0085840Y0015865D02*
X0227534Y0015865D01*
X0228324Y0017463D02*
X0085098Y0017463D01*
X0081567Y0017463D02*
X0081567Y0017463D01*
X0081567Y0015865D02*
X0081567Y0015865D01*
X0081566Y0014881D02*
X0077192Y0014881D01*
X0077192Y0014536D01*
X0077300Y0013856D01*
X0077512Y0013201D01*
X0077825Y0012588D01*
X0078230Y0012031D01*
X0078717Y0011544D01*
X0079274Y0011139D01*
X0079887Y0010826D01*
X0080542Y0010614D01*
X0081222Y0010506D01*
X0081567Y0010506D01*
X0081567Y0014881D01*
X0081567Y0014881D01*
X0081567Y0014266D02*
X0081567Y0014266D01*
X0081567Y0012668D02*
X0081567Y0012668D01*
X0081567Y0011069D02*
X0081567Y0011069D01*
X0079411Y0011069D02*
X0073274Y0011069D01*
X0075169Y0012668D02*
X0077784Y0012668D01*
X0077235Y0014266D02*
X0075741Y0014266D01*
X0075678Y0015865D02*
X0077293Y0015865D01*
X0078035Y0017463D02*
X0074888Y0017463D01*
X0077203Y0022755D02*
X0073282Y0024474D01*
X0070133Y0027374D01*
X0068095Y0031139D01*
X0067391Y0035362D01*
X0068095Y0039584D01*
X0070133Y0043349D01*
X0073282Y0046249D01*
X0077203Y0047968D01*
X0081469Y0048322D01*
X0085619Y0047271D01*
X0089203Y0044929D01*
X0091833Y0041551D01*
X0093223Y0037502D01*
X0093223Y0033221D01*
X0091833Y0029172D01*
X0089203Y0025794D01*
X0085619Y0023452D01*
X0081469Y0022401D01*
X0077203Y0022755D01*
X0074690Y0023857D02*
X0065560Y0023857D01*
X0067159Y0022259D02*
X0317269Y0022259D01*
X0317269Y0023857D02*
X0314585Y0023857D01*
X0317032Y0025456D02*
X0317269Y0025456D01*
X0303036Y0023857D02*
X0086239Y0023857D01*
X0088686Y0025456D02*
X0300563Y0025456D01*
X0298827Y0027054D02*
X0090184Y0027054D01*
X0091428Y0028653D02*
X0297787Y0028653D01*
X0296922Y0030251D02*
X0092203Y0030251D01*
X0092752Y0031850D02*
X0296323Y0031850D01*
X0296056Y0033448D02*
X0093223Y0033448D01*
X0093223Y0035047D02*
X0295790Y0035047D01*
X0295951Y0036645D02*
X0093223Y0036645D01*
X0092968Y0038244D02*
X0296218Y0038244D01*
X0296581Y0039842D02*
X0092419Y0039842D01*
X0091871Y0041441D02*
X0297446Y0041441D01*
X0298311Y0043039D02*
X0090674Y0043039D01*
X0089430Y0044638D02*
X0299879Y0044638D01*
X0301615Y0046236D02*
X0087203Y0046236D01*
X0083393Y0047835D02*
X0305245Y0047835D01*
X0311739Y0047835D02*
X0317269Y0047835D01*
X0317269Y0049433D02*
X0063069Y0049433D01*
X0063069Y0047835D02*
X0076898Y0047835D01*
X0073269Y0046236D02*
X0063069Y0046236D01*
X0063069Y0044638D02*
X0071532Y0044638D01*
X0069965Y0043039D02*
X0063069Y0043039D01*
X0063069Y0041441D02*
X0069100Y0041441D01*
X0068235Y0039842D02*
X0060419Y0039842D01*
X0060419Y0038244D02*
X0067872Y0038244D01*
X0067605Y0036645D02*
X0060419Y0036645D01*
X0060419Y0035047D02*
X0067443Y0035047D01*
X0067710Y0033448D02*
X0060419Y0033448D01*
X0060419Y0031850D02*
X0067977Y0031850D01*
X0068576Y0030251D02*
X0060419Y0030251D01*
X0060765Y0028653D02*
X0069441Y0028653D01*
X0070480Y0027054D02*
X0062363Y0027054D01*
X0063962Y0025456D02*
X0072217Y0025456D01*
X0066014Y0017463D02*
X0064888Y0017463D01*
X0065106Y0017246D02*
X0063931Y0018420D01*
X0062397Y0019055D01*
X0060736Y0019055D01*
X0060471Y0018946D01*
X0047919Y0031499D01*
X0047919Y0039900D01*
X0049631Y0039900D01*
X0050569Y0040837D01*
X0050569Y0046763D01*
X0050531Y0046800D01*
X0050569Y0046837D01*
X0050569Y0052763D01*
X0050516Y0052815D01*
X0050516Y0057199D01*
X0051118Y0057802D01*
X0051603Y0058973D01*
X0051603Y0060241D01*
X0051118Y0061413D01*
X0050221Y0062309D01*
X0049050Y0062794D01*
X0047782Y0062794D01*
X0046610Y0062309D01*
X0045714Y0061413D01*
X0045228Y0060241D01*
X0045228Y0058973D01*
X0045714Y0057802D01*
X0046316Y0057199D01*
X0046316Y0053700D01*
X0042006Y0053700D01*
X0041069Y0052763D01*
X0041069Y0046837D01*
X0041106Y0046800D01*
X0041069Y0046763D01*
X0041069Y0040837D01*
X0042006Y0039900D01*
X0043719Y0039900D01*
X0043719Y0029759D01*
X0044949Y0028529D01*
X0057501Y0015976D01*
X0057392Y0015711D01*
X0057392Y0014050D01*
X0058027Y0012516D01*
X0059202Y0011341D01*
X0060736Y0010706D01*
X0062397Y0010706D01*
X0063931Y0011341D01*
X0065106Y0012516D01*
X0065741Y0014050D01*
X0065741Y0015711D01*
X0065106Y0017246D01*
X0065678Y0015865D02*
X0067455Y0015865D01*
X0067392Y0014266D02*
X0065741Y0014266D01*
X0065169Y0012668D02*
X0067965Y0012668D01*
X0069860Y0011069D02*
X0063274Y0011069D01*
X0059860Y0011069D02*
X0013197Y0011069D01*
X0013197Y0012668D02*
X0057965Y0012668D01*
X0057392Y0014266D02*
X0013197Y0014266D01*
X0013197Y0015865D02*
X0057455Y0015865D01*
X0056014Y0017463D02*
X0013197Y0017463D01*
X0013197Y0019062D02*
X0054416Y0019062D01*
X0052817Y0020660D02*
X0013197Y0020660D01*
X0013197Y0022259D02*
X0051219Y0022259D01*
X0049620Y0023857D02*
X0013197Y0023857D01*
X0013197Y0025456D02*
X0048022Y0025456D01*
X0046423Y0027054D02*
X0013197Y0027054D01*
X0013197Y0028653D02*
X0044825Y0028653D01*
X0043719Y0030251D02*
X0013197Y0030251D01*
X0013197Y0031850D02*
X0043719Y0031850D01*
X0043719Y0033448D02*
X0013197Y0033448D01*
X0013197Y0035047D02*
X0043719Y0035047D01*
X0043719Y0036645D02*
X0013197Y0036645D01*
X0013197Y0038244D02*
X0043719Y0038244D01*
X0043719Y0039842D02*
X0013197Y0039842D01*
X0013197Y0041441D02*
X0041069Y0041441D01*
X0041069Y0043039D02*
X0013197Y0043039D01*
X0013197Y0044638D02*
X0041069Y0044638D01*
X0041069Y0046236D02*
X0013197Y0046236D01*
X0013197Y0047835D02*
X0041069Y0047835D01*
X0041069Y0049433D02*
X0013197Y0049433D01*
X0013197Y0051032D02*
X0041069Y0051032D01*
X0041069Y0052630D02*
X0013197Y0052630D01*
X0013197Y0054229D02*
X0046316Y0054229D01*
X0046316Y0055827D02*
X0013197Y0055827D01*
X0013197Y0057426D02*
X0046089Y0057426D01*
X0045228Y0059024D02*
X0013197Y0059024D01*
X0013197Y0060623D02*
X0045387Y0060623D01*
X0046522Y0062221D02*
X0013197Y0062221D01*
X0013197Y0063820D02*
X0317269Y0063820D01*
X0317269Y0065418D02*
X0013197Y0065418D01*
X0013197Y0067017D02*
X0317269Y0067017D01*
X0317269Y0068615D02*
X0013197Y0068615D01*
X0013197Y0070214D02*
X0317269Y0070214D01*
X0317269Y0071812D02*
X0013197Y0071812D01*
X0013197Y0073411D02*
X0317269Y0073411D01*
X0317269Y0075009D02*
X0013197Y0075009D01*
X0013197Y0076608D02*
X0317269Y0076608D01*
X0317269Y0078206D02*
X0013197Y0078206D01*
X0013197Y0079805D02*
X0317269Y0079805D01*
X0317269Y0081403D02*
X0013197Y0081403D01*
X0013197Y0083002D02*
X0317269Y0083002D01*
X0317269Y0084601D02*
X0013197Y0084601D01*
X0013197Y0086199D02*
X0317269Y0086199D01*
X0317269Y0087798D02*
X0013197Y0087798D01*
X0013197Y0089396D02*
X0317269Y0089396D01*
X0317269Y0090995D02*
X0013197Y0090995D01*
X0013197Y0092593D02*
X0317269Y0092593D01*
X0317269Y0094192D02*
X0013197Y0094192D01*
X0013197Y0095790D02*
X0317269Y0095790D01*
X0317269Y0097389D02*
X0013197Y0097389D01*
X0013197Y0098987D02*
X0317269Y0098987D01*
X0317269Y0100586D02*
X0013197Y0100586D01*
X0013197Y0102184D02*
X0317269Y0102184D01*
X0317269Y0103783D02*
X0013197Y0103783D01*
X0013197Y0105381D02*
X0317269Y0105381D01*
X0317269Y0106980D02*
X0013197Y0106980D01*
X0013197Y0108578D02*
X0317269Y0108578D01*
X0317269Y0110177D02*
X0013197Y0110177D01*
X0013197Y0111775D02*
X0317269Y0111775D01*
X0317269Y0113374D02*
X0013197Y0113374D01*
X0013197Y0114972D02*
X0317269Y0114972D01*
X0317269Y0116571D02*
X0013197Y0116571D01*
X0013197Y0118169D02*
X0317269Y0118169D01*
X0317269Y0119768D02*
X0013197Y0119768D01*
X0013197Y0121366D02*
X0317269Y0121366D01*
X0317269Y0122965D02*
X0013197Y0122965D01*
X0013197Y0124563D02*
X0317269Y0124563D01*
X0317269Y0126162D02*
X0013197Y0126162D01*
X0013197Y0127760D02*
X0317269Y0127760D01*
X0317269Y0129359D02*
X0013197Y0129359D01*
X0013197Y0130957D02*
X0317269Y0130957D01*
X0317269Y0132556D02*
X0013197Y0132556D01*
X0013197Y0134154D02*
X0317269Y0134154D01*
X0317269Y0135753D02*
X0013197Y0135753D01*
X0013197Y0137351D02*
X0317269Y0137351D01*
X0317269Y0138950D02*
X0013197Y0138950D01*
X0013197Y0140548D02*
X0317269Y0140548D01*
X0317269Y0142147D02*
X0013197Y0142147D01*
X0013197Y0143745D02*
X0317269Y0143745D01*
X0317269Y0145344D02*
X0013197Y0145344D01*
X0013197Y0146942D02*
X0317269Y0146942D01*
X0317269Y0148541D02*
X0013197Y0148541D01*
X0013197Y0150139D02*
X0317269Y0150139D01*
X0317269Y0151738D02*
X0013197Y0151738D01*
X0013197Y0153337D02*
X0317269Y0153337D01*
X0317269Y0154935D02*
X0013197Y0154935D01*
X0013197Y0156534D02*
X0317269Y0156534D01*
X0317269Y0158132D02*
X0013197Y0158132D01*
X0013197Y0159731D02*
X0317269Y0159731D01*
X0317269Y0161329D02*
X0013197Y0161329D01*
X0013197Y0162928D02*
X0317269Y0162928D01*
X0317269Y0164526D02*
X0013197Y0164526D01*
X0013197Y0166125D02*
X0317269Y0166125D01*
X0317269Y0167723D02*
X0013197Y0167723D01*
X0013197Y0169322D02*
X0317269Y0169322D01*
X0317269Y0170920D02*
X0013197Y0170920D01*
X0013197Y0172519D02*
X0317269Y0172519D01*
X0317269Y0174117D02*
X0049123Y0174117D01*
X0049092Y0174086D02*
X0049771Y0174765D01*
X0050336Y0175542D01*
X0050772Y0176397D01*
X0051068Y0177311D01*
X0051219Y0178259D01*
X0051219Y0178739D01*
X0040819Y0178739D01*
X0051219Y0178739D01*
X0051219Y0179219D01*
X0051068Y0180167D01*
X0050772Y0181081D01*
X0050336Y0181936D01*
X0049771Y0182713D01*
X0049092Y0183392D01*
X0048316Y0183956D01*
X0047460Y0184392D01*
X0046547Y0184689D01*
X0045599Y0184839D01*
X0040819Y0184839D01*
X0040819Y0178739D01*
X0040819Y0178739D01*
X0040818Y0178739D01*
X0030419Y0178739D01*
X0030419Y0178259D01*
X0030569Y0177311D01*
X0030865Y0176397D01*
X0031301Y0175542D01*
X0031866Y0174765D01*
X0032545Y0174086D01*
X0033321Y0173522D01*
X0034177Y0173086D01*
X0035090Y0172789D01*
X0036038Y0172639D01*
X0040818Y0172639D01*
X0040818Y0178739D01*
X0040818Y0178739D01*
X0030419Y0178739D01*
X0030419Y0179219D01*
X0030569Y0180167D01*
X0030865Y0181081D01*
X0031301Y0181936D01*
X0031866Y0182713D01*
X0032545Y0183392D01*
X0033321Y0183956D01*
X0034177Y0184392D01*
X0035090Y0184689D01*
X0036038Y0184839D01*
X0040818Y0184839D01*
X0040818Y0178739D01*
X0040819Y0178739D01*
X0040819Y0172639D01*
X0045599Y0172639D01*
X0046547Y0172789D01*
X0047460Y0173086D01*
X0048316Y0173522D01*
X0049092Y0174086D01*
X0050424Y0175716D02*
X0317269Y0175716D01*
X0317269Y0177314D02*
X0051069Y0177314D01*
X0051219Y0178913D02*
X0317269Y0178913D01*
X0317269Y0180511D02*
X0050957Y0180511D01*
X0050210Y0182110D02*
X0317269Y0182110D01*
X0317269Y0183708D02*
X0048657Y0183708D01*
X0040819Y0183708D02*
X0040818Y0183708D01*
X0040818Y0182110D02*
X0040819Y0182110D01*
X0040818Y0180511D02*
X0040819Y0180511D01*
X0040818Y0178913D02*
X0040819Y0178913D01*
X0040818Y0177314D02*
X0040819Y0177314D01*
X0040818Y0175716D02*
X0040819Y0175716D01*
X0040818Y0174117D02*
X0040819Y0174117D01*
X0032514Y0174117D02*
X0013197Y0174117D01*
X0013197Y0175716D02*
X0031213Y0175716D01*
X0030568Y0177314D02*
X0013197Y0177314D01*
X0013197Y0178913D02*
X0030419Y0178913D01*
X0030680Y0180511D02*
X0023484Y0180511D01*
X0023095Y0180350D02*
X0025263Y0181248D01*
X0026923Y0182908D01*
X0027821Y0185076D01*
X0027821Y0196024D01*
X0026923Y0198192D01*
X0025263Y0199852D01*
X0023095Y0200750D01*
X0020747Y0200750D01*
X0018579Y0199852D01*
X0016919Y0198192D01*
X0016021Y0196024D01*
X0016021Y0185076D01*
X0016919Y0182908D01*
X0018579Y0181248D01*
X0020747Y0180350D01*
X0023095Y0180350D01*
X0020358Y0180511D02*
X0013197Y0180511D01*
X0013197Y0182110D02*
X0017717Y0182110D01*
X0016588Y0183708D02*
X0013197Y0183708D01*
X0013197Y0185307D02*
X0016021Y0185307D01*
X0016021Y0186905D02*
X0013197Y0186905D01*
X0013197Y0188504D02*
X0016021Y0188504D01*
X0016021Y0190102D02*
X0013197Y0190102D01*
X0013197Y0191701D02*
X0016021Y0191701D01*
X0016021Y0193299D02*
X0013197Y0193299D01*
X0013197Y0194898D02*
X0016021Y0194898D01*
X0016217Y0196496D02*
X0013197Y0196496D01*
X0013197Y0198095D02*
X0016879Y0198095D01*
X0018420Y0199693D02*
X0013197Y0199693D01*
X0013197Y0201292D02*
X0030619Y0201292D01*
X0030619Y0201187D02*
X0031517Y0199019D01*
X0033176Y0197359D01*
X0035345Y0196461D01*
X0046292Y0196461D01*
X0048461Y0197359D01*
X0050120Y0199019D01*
X0051019Y0201187D01*
X0051019Y0203535D01*
X0050120Y0205703D01*
X0048461Y0207363D01*
X0046292Y0208261D01*
X0038619Y0208261D01*
X0038619Y0212637D01*
X0038969Y0212987D01*
X0038969Y0217240D01*
X0045578Y0223850D01*
X0051754Y0223850D01*
X0053298Y0224489D01*
X0054479Y0225671D01*
X0055119Y0227215D01*
X0055119Y0228885D01*
X0054479Y0230429D01*
X0053298Y0231611D01*
X0051754Y0232250D01*
X0044883Y0232250D01*
X0043339Y0231611D01*
X0042158Y0230429D01*
X0041519Y0228885D01*
X0041519Y0227710D01*
X0035359Y0221550D01*
X0032106Y0221550D01*
X0032069Y0221513D01*
X0032031Y0221550D01*
X0026106Y0221550D01*
X0025169Y0220613D01*
X0025169Y0219600D01*
X0024888Y0219600D01*
X0023953Y0219987D01*
X0022685Y0219987D01*
X0021513Y0219502D01*
X0020616Y0218606D01*
X0020131Y0217434D01*
X0020131Y0216166D01*
X0020616Y0214994D01*
X0021513Y0214098D01*
X0022685Y0213613D01*
X0023953Y0213613D01*
X0024888Y0214000D01*
X0025169Y0214000D01*
X0025169Y0212987D01*
X0026106Y0212050D01*
X0032031Y0212050D01*
X0032069Y0212087D01*
X0032106Y0212050D01*
X0033019Y0212050D01*
X0033019Y0207205D01*
X0031517Y0205703D01*
X0030619Y0203535D01*
X0030619Y0201187D01*
X0031237Y0199693D02*
X0025421Y0199693D01*
X0026963Y0198095D02*
X0032441Y0198095D01*
X0035260Y0196496D02*
X0027625Y0196496D01*
X0027821Y0194898D02*
X0317269Y0194898D01*
X0317269Y0196496D02*
X0046377Y0196496D01*
X0049196Y0198095D02*
X0317269Y0198095D01*
X0317269Y0199693D02*
X0050400Y0199693D01*
X0051019Y0201292D02*
X0317269Y0201292D01*
X0317269Y0202890D02*
X0051019Y0202890D01*
X0050623Y0204489D02*
X0317269Y0204489D01*
X0317269Y0206087D02*
X0049736Y0206087D01*
X0047681Y0207686D02*
X0317269Y0207686D01*
X0317269Y0209284D02*
X0038619Y0209284D01*
X0038619Y0210883D02*
X0317269Y0210883D01*
X0317269Y0212481D02*
X0038619Y0212481D01*
X0038969Y0214080D02*
X0317269Y0214080D01*
X0317269Y0215678D02*
X0311252Y0215678D01*
X0315361Y0217277D02*
X0317269Y0217277D01*
X0305526Y0215678D02*
X0082906Y0215678D01*
X0081469Y0215315D02*
X0085619Y0216366D01*
X0089203Y0218707D01*
X0091833Y0222085D01*
X0093223Y0226134D01*
X0093223Y0230416D01*
X0091833Y0234465D01*
X0089203Y0237843D01*
X0085619Y0240184D01*
X0081469Y0241235D01*
X0077203Y0240882D01*
X0073282Y0239162D01*
X0070133Y0236263D01*
X0068095Y0232498D01*
X0067391Y0228275D01*
X0068095Y0224052D01*
X0070133Y0220287D01*
X0073282Y0217388D01*
X0077203Y0215668D01*
X0081469Y0215315D01*
X0087014Y0217277D02*
X0301882Y0217277D01*
X0300013Y0218875D02*
X0291957Y0218875D01*
X0291557Y0218475D02*
X0294369Y0221287D01*
X0294369Y0223075D01*
X0289769Y0223075D01*
X0289769Y0223475D01*
X0294369Y0223475D01*
X0294369Y0225263D01*
X0291557Y0228075D01*
X0289769Y0228075D01*
X0289769Y0223475D01*
X0289369Y0223475D01*
X0289369Y0228075D01*
X0287580Y0228075D01*
X0284769Y0225263D01*
X0284769Y0223475D01*
X0289368Y0223475D01*
X0289368Y0223075D01*
X0284769Y0223075D01*
X0284769Y0221287D01*
X0287580Y0218475D01*
X0289369Y0218475D01*
X0289369Y0223075D01*
X0289769Y0223075D01*
X0289769Y0218475D01*
X0291557Y0218475D01*
X0289769Y0218875D02*
X0289369Y0218875D01*
X0289369Y0220474D02*
X0289769Y0220474D01*
X0289769Y0222072D02*
X0289369Y0222072D01*
X0289369Y0223671D02*
X0289769Y0223671D01*
X0289769Y0225270D02*
X0289369Y0225270D01*
X0289369Y0226868D02*
X0289769Y0226868D01*
X0291474Y0228675D02*
X0287663Y0228675D01*
X0284969Y0231370D01*
X0284969Y0235180D01*
X0287663Y0237875D01*
X0291474Y0237875D01*
X0294169Y0235180D01*
X0294169Y0231370D01*
X0291474Y0228675D01*
X0292864Y0230065D02*
X0296036Y0230065D01*
X0295769Y0228467D02*
X0093223Y0228467D01*
X0093223Y0230065D02*
X0096273Y0230065D01*
X0094969Y0231370D02*
X0097663Y0228675D01*
X0101474Y0228675D01*
X0104169Y0231370D01*
X0104169Y0235180D01*
X0101474Y0237875D01*
X0097663Y0237875D01*
X0094969Y0235180D01*
X0094969Y0231370D01*
X0094969Y0231664D02*
X0092794Y0231664D01*
X0092245Y0233262D02*
X0094969Y0233262D01*
X0094969Y0234861D02*
X0091524Y0234861D01*
X0090280Y0236459D02*
X0096247Y0236459D01*
X0094354Y0241732D02*
X0088428Y0241732D01*
X0088391Y0241769D01*
X0088354Y0241732D01*
X0082428Y0241732D01*
X0081491Y0242669D01*
X0081491Y0250295D01*
X0082391Y0251195D01*
X0082391Y0252075D01*
X0082318Y0252044D01*
X0080657Y0252044D01*
X0079123Y0252680D01*
X0077949Y0253854D01*
X0077313Y0255389D01*
X0077313Y0257050D01*
X0077949Y0258584D01*
X0079123Y0259759D01*
X0080657Y0260394D01*
X0082318Y0260394D01*
X0083853Y0259759D01*
X0085027Y0258584D01*
X0085663Y0257050D01*
X0085663Y0255389D01*
X0085553Y0255124D01*
X0086591Y0254086D01*
X0086591Y0251232D01*
X0088354Y0251232D01*
X0088391Y0251195D01*
X0088428Y0251232D01*
X0094354Y0251232D01*
X0095291Y0250295D01*
X0095291Y0247932D01*
X0100283Y0247932D01*
X0100885Y0248534D01*
X0102057Y0249019D01*
X0103325Y0249019D01*
X0104496Y0248534D01*
X0105393Y0247638D01*
X0105878Y0246466D01*
X0105878Y0245198D01*
X0105393Y0244027D01*
X0104496Y0243130D01*
X0103325Y0242645D01*
X0102057Y0242645D01*
X0100885Y0243130D01*
X0100283Y0243732D01*
X0095291Y0243732D01*
X0095291Y0242669D01*
X0094354Y0241732D01*
X0095291Y0242853D02*
X0101554Y0242853D01*
X0103828Y0242853D02*
X0218132Y0242853D01*
X0217666Y0243319D02*
X0218603Y0242382D01*
X0224529Y0242382D01*
X0224566Y0242419D01*
X0224603Y0242382D01*
X0230529Y0242382D01*
X0231466Y0243319D01*
X0231466Y0243407D01*
X0234508Y0243407D01*
X0235110Y0242805D01*
X0236282Y0242320D01*
X0237550Y0242320D01*
X0238721Y0242805D01*
X0239618Y0243702D01*
X0240103Y0244873D01*
X0240103Y0246141D01*
X0239618Y0247313D01*
X0238721Y0248209D01*
X0237550Y0248694D01*
X0236282Y0248694D01*
X0235110Y0248209D01*
X0234508Y0247607D01*
X0231466Y0247607D01*
X0231466Y0250945D01*
X0230529Y0251882D01*
X0224603Y0251882D01*
X0224566Y0251845D01*
X0224529Y0251882D01*
X0223588Y0251882D01*
X0223588Y0252570D01*
X0223853Y0252680D01*
X0225027Y0253854D01*
X0225663Y0255389D01*
X0225663Y0257050D01*
X0225027Y0258584D01*
X0223853Y0259759D01*
X0222318Y0260394D01*
X0220657Y0260394D01*
X0219123Y0259759D01*
X0217949Y0258584D01*
X0217313Y0257050D01*
X0217313Y0255389D01*
X0217949Y0253854D01*
X0219123Y0252680D01*
X0219388Y0252570D01*
X0219388Y0251882D01*
X0218603Y0251882D01*
X0217666Y0250945D01*
X0217666Y0243319D01*
X0217666Y0244452D02*
X0105569Y0244452D01*
X0105878Y0246050D02*
X0217666Y0246050D01*
X0217666Y0247649D02*
X0105382Y0247649D01*
X0103283Y0252444D02*
X0109692Y0252444D01*
X0109123Y0252680D02*
X0110657Y0252044D01*
X0112318Y0252044D01*
X0113853Y0252680D01*
X0115027Y0253854D01*
X0115663Y0255389D01*
X0115663Y0257050D01*
X0115027Y0258584D01*
X0113853Y0259759D01*
X0112318Y0260394D01*
X0110657Y0260394D01*
X0109123Y0259759D01*
X0107949Y0258584D01*
X0107313Y0257050D01*
X0107313Y0255389D01*
X0107949Y0253854D01*
X0109123Y0252680D01*
X0107871Y0254043D02*
X0105105Y0254043D01*
X0105027Y0253854D02*
X0105663Y0255389D01*
X0105663Y0257050D01*
X0105027Y0258584D01*
X0103853Y0259759D01*
X0102318Y0260394D01*
X0100657Y0260394D01*
X0099123Y0259759D01*
X0097949Y0258584D01*
X0097313Y0257050D01*
X0097313Y0255389D01*
X0097949Y0253854D01*
X0099123Y0252680D01*
X0100657Y0252044D01*
X0102318Y0252044D01*
X0103853Y0252680D01*
X0105027Y0253854D01*
X0105663Y0255641D02*
X0107313Y0255641D01*
X0107392Y0257240D02*
X0105584Y0257240D01*
X0104773Y0258838D02*
X0108203Y0258838D01*
X0114773Y0258838D02*
X0118203Y0258838D01*
X0117949Y0258584D02*
X0117313Y0257050D01*
X0117313Y0255389D01*
X0117949Y0253854D01*
X0119123Y0252680D01*
X0120657Y0252044D01*
X0122318Y0252044D01*
X0123853Y0252680D01*
X0125027Y0253854D01*
X0125663Y0255389D01*
X0125663Y0257050D01*
X0125027Y0258584D01*
X0123853Y0259759D01*
X0122318Y0260394D01*
X0120657Y0260394D01*
X0119123Y0259759D01*
X0117949Y0258584D01*
X0117392Y0257240D02*
X0115584Y0257240D01*
X0115663Y0255641D02*
X0117313Y0255641D01*
X0117871Y0254043D02*
X0115105Y0254043D01*
X0113283Y0252444D02*
X0119692Y0252444D01*
X0123283Y0252444D02*
X0129692Y0252444D01*
X0129123Y0252680D02*
X0130657Y0252044D01*
X0132318Y0252044D01*
X0133853Y0252680D01*
X0135027Y0253854D01*
X0135663Y0255389D01*
X0135663Y0257050D01*
X0135027Y0258584D01*
X0133853Y0259759D01*
X0132318Y0260394D01*
X0130657Y0260394D01*
X0129123Y0259759D01*
X0127949Y0258584D01*
X0127313Y0257050D01*
X0127313Y0255389D01*
X0127949Y0253854D01*
X0129123Y0252680D01*
X0127871Y0254043D02*
X0125105Y0254043D01*
X0125663Y0255641D02*
X0127313Y0255641D01*
X0127392Y0257240D02*
X0125584Y0257240D01*
X0124773Y0258838D02*
X0128203Y0258838D01*
X0134773Y0258838D02*
X0138203Y0258838D01*
X0137949Y0258584D02*
X0137313Y0257050D01*
X0137313Y0255389D01*
X0137949Y0253854D01*
X0139123Y0252680D01*
X0140657Y0252044D01*
X0142318Y0252044D01*
X0143853Y0252680D01*
X0145027Y0253854D01*
X0145663Y0255389D01*
X0145663Y0257050D01*
X0145027Y0258584D01*
X0143853Y0259759D01*
X0142318Y0260394D01*
X0140657Y0260394D01*
X0139123Y0259759D01*
X0137949Y0258584D01*
X0137392Y0257240D02*
X0135584Y0257240D01*
X0135663Y0255641D02*
X0137313Y0255641D01*
X0137871Y0254043D02*
X0135105Y0254043D01*
X0133283Y0252444D02*
X0139692Y0252444D01*
X0143283Y0252444D02*
X0149261Y0252444D01*
X0149195Y0252478D02*
X0149809Y0252165D01*
X0150463Y0251952D01*
X0151144Y0251844D01*
X0151488Y0251844D01*
X0151832Y0251844D01*
X0152512Y0251952D01*
X0153167Y0252165D01*
X0153781Y0252478D01*
X0154338Y0252882D01*
X0154825Y0253369D01*
X0155230Y0253926D01*
X0155542Y0254540D01*
X0155755Y0255195D01*
X0155863Y0255875D01*
X0155863Y0256219D01*
X0151488Y0256219D01*
X0151488Y0251844D01*
X0151488Y0256219D01*
X0151488Y0256219D01*
X0151488Y0256219D01*
X0155863Y0256219D01*
X0155863Y0256564D01*
X0155755Y0257244D01*
X0155542Y0257899D01*
X0155230Y0258512D01*
X0154825Y0259069D01*
X0154338Y0259556D01*
X0153781Y0259961D01*
X0153167Y0260274D01*
X0152512Y0260486D01*
X0151832Y0260594D01*
X0151488Y0260594D01*
X0151488Y0256219D01*
X0147113Y0256219D01*
X0147113Y0255875D01*
X0147221Y0255195D01*
X0147434Y0254540D01*
X0147746Y0253926D01*
X0148151Y0253369D01*
X0148638Y0252882D01*
X0149195Y0252478D01*
X0147687Y0254043D02*
X0145105Y0254043D01*
X0145663Y0255641D02*
X0147150Y0255641D01*
X0147113Y0256219D02*
X0151488Y0256219D01*
X0151488Y0256219D01*
X0151488Y0256219D01*
X0151488Y0260594D01*
X0151144Y0260594D01*
X0150463Y0260486D01*
X0149809Y0260274D01*
X0149195Y0259961D01*
X0148638Y0259556D01*
X0148151Y0259069D01*
X0147746Y0258512D01*
X0147434Y0257899D01*
X0147221Y0257244D01*
X0147113Y0256564D01*
X0147113Y0256219D01*
X0147220Y0257240D02*
X0145584Y0257240D01*
X0144773Y0258838D02*
X0147983Y0258838D01*
X0150311Y0260437D02*
X0072665Y0260437D01*
X0072512Y0260486D02*
X0071832Y0260594D01*
X0071488Y0260594D01*
X0071488Y0256219D01*
X0071488Y0251844D01*
X0071832Y0251844D01*
X0072512Y0251952D01*
X0073167Y0252165D01*
X0073781Y0252478D01*
X0074338Y0252882D01*
X0074825Y0253369D01*
X0075230Y0253926D01*
X0075542Y0254540D01*
X0075755Y0255195D01*
X0075863Y0255875D01*
X0075863Y0256219D01*
X0071488Y0256219D01*
X0071488Y0256219D01*
X0071488Y0256219D01*
X0071488Y0251844D01*
X0071144Y0251844D01*
X0070463Y0251952D01*
X0069809Y0252165D01*
X0069195Y0252478D01*
X0068638Y0252882D01*
X0068151Y0253369D01*
X0067746Y0253926D01*
X0067434Y0254540D01*
X0067221Y0255195D01*
X0067113Y0255875D01*
X0067113Y0256219D01*
X0071488Y0256219D01*
X0075863Y0256219D01*
X0075863Y0256564D01*
X0075755Y0257244D01*
X0075542Y0257899D01*
X0075230Y0258512D01*
X0074825Y0259069D01*
X0074338Y0259556D01*
X0073781Y0259961D01*
X0073167Y0260274D01*
X0072512Y0260486D01*
X0071488Y0260437D02*
X0071488Y0260437D01*
X0071488Y0260594D02*
X0071144Y0260594D01*
X0070463Y0260486D01*
X0069809Y0260274D01*
X0069195Y0259961D01*
X0068638Y0259556D01*
X0068151Y0259069D01*
X0067746Y0258512D01*
X0067434Y0257899D01*
X0067221Y0257244D01*
X0067113Y0256564D01*
X0067113Y0256219D01*
X0071488Y0256219D01*
X0071488Y0256219D01*
X0071488Y0256219D01*
X0071488Y0260594D01*
X0070311Y0260437D02*
X0013197Y0260437D01*
X0013197Y0262035D02*
X0317269Y0262035D01*
X0317269Y0260437D02*
X0262665Y0260437D01*
X0262512Y0260486D02*
X0263167Y0260274D01*
X0263781Y0259961D01*
X0264338Y0259556D01*
X0264825Y0259069D01*
X0265230Y0258512D01*
X0265542Y0257899D01*
X0265755Y0257244D01*
X0265863Y0256564D01*
X0265863Y0256219D01*
X0261488Y0256219D01*
X0261488Y0251844D01*
X0261832Y0251844D01*
X0262512Y0251952D01*
X0263167Y0252165D01*
X0263781Y0252478D01*
X0264338Y0252882D01*
X0264825Y0253369D01*
X0265230Y0253926D01*
X0265542Y0254540D01*
X0265755Y0255195D01*
X0265863Y0255875D01*
X0265863Y0256219D01*
X0261488Y0256219D01*
X0261488Y0256219D01*
X0261488Y0256219D01*
X0261488Y0251844D01*
X0261144Y0251844D01*
X0260463Y0251952D01*
X0259809Y0252165D01*
X0259195Y0252478D01*
X0258638Y0252882D01*
X0258151Y0253369D01*
X0257746Y0253926D01*
X0257434Y0254540D01*
X0257221Y0255195D01*
X0257113Y0255875D01*
X0257113Y0256219D01*
X0261488Y0256219D01*
X0261488Y0256219D01*
X0261488Y0256219D01*
X0261488Y0260594D01*
X0261832Y0260594D01*
X0262512Y0260486D01*
X0261488Y0260437D02*
X0261488Y0260437D01*
X0261488Y0260594D02*
X0261144Y0260594D01*
X0260463Y0260486D01*
X0259809Y0260274D01*
X0259195Y0259961D01*
X0258638Y0259556D01*
X0258151Y0259069D01*
X0257746Y0258512D01*
X0257434Y0257899D01*
X0257221Y0257244D01*
X0257113Y0256564D01*
X0257113Y0256219D01*
X0261488Y0256219D01*
X0261488Y0260594D01*
X0260311Y0260437D02*
X0152665Y0260437D01*
X0151488Y0260437D02*
X0151488Y0260437D01*
X0151488Y0258838D02*
X0151488Y0258838D01*
X0151488Y0257240D02*
X0151488Y0257240D01*
X0151488Y0255641D02*
X0151488Y0255641D01*
X0151488Y0254043D02*
X0151488Y0254043D01*
X0151488Y0252444D02*
X0151488Y0252444D01*
X0153715Y0252444D02*
X0159692Y0252444D01*
X0159123Y0252680D02*
X0160657Y0252044D01*
X0162318Y0252044D01*
X0163853Y0252680D01*
X0165027Y0253854D01*
X0165663Y0255389D01*
X0165663Y0257050D01*
X0165027Y0258584D01*
X0163853Y0259759D01*
X0162318Y0260394D01*
X0160657Y0260394D01*
X0159123Y0259759D01*
X0157949Y0258584D01*
X0157313Y0257050D01*
X0157313Y0255389D01*
X0157949Y0253854D01*
X0159123Y0252680D01*
X0157871Y0254043D02*
X0155289Y0254043D01*
X0155826Y0255641D02*
X0157313Y0255641D01*
X0157392Y0257240D02*
X0155756Y0257240D01*
X0154993Y0258838D02*
X0158203Y0258838D01*
X0164773Y0258838D02*
X0168203Y0258838D01*
X0167949Y0258584D02*
X0167313Y0257050D01*
X0167313Y0255389D01*
X0167949Y0253854D01*
X0169123Y0252680D01*
X0170657Y0252044D01*
X0172318Y0252044D01*
X0173853Y0252680D01*
X0175027Y0253854D01*
X0175663Y0255389D01*
X0175663Y0257050D01*
X0175027Y0258584D01*
X0173853Y0259759D01*
X0172318Y0260394D01*
X0170657Y0260394D01*
X0169123Y0259759D01*
X0167949Y0258584D01*
X0167392Y0257240D02*
X0165584Y0257240D01*
X0165663Y0255641D02*
X0167313Y0255641D01*
X0167871Y0254043D02*
X0165105Y0254043D01*
X0163283Y0252444D02*
X0169692Y0252444D01*
X0173283Y0252444D02*
X0179692Y0252444D01*
X0179123Y0252680D02*
X0180657Y0252044D01*
X0182318Y0252044D01*
X0183853Y0252680D01*
X0185027Y0253854D01*
X0185663Y0255389D01*
X0185663Y0257050D01*
X0185027Y0258584D01*
X0183853Y0259759D01*
X0182318Y0260394D01*
X0180657Y0260394D01*
X0179123Y0259759D01*
X0177949Y0258584D01*
X0177313Y0257050D01*
X0177313Y0255389D01*
X0177949Y0253854D01*
X0179123Y0252680D01*
X0177871Y0254043D02*
X0175105Y0254043D01*
X0175663Y0255641D02*
X0177313Y0255641D01*
X0177392Y0257240D02*
X0175584Y0257240D01*
X0174773Y0258838D02*
X0178203Y0258838D01*
X0184773Y0258838D02*
X0188203Y0258838D01*
X0187949Y0258584D02*
X0189123Y0259759D01*
X0190657Y0260394D01*
X0192318Y0260394D01*
X0193853Y0259759D01*
X0195027Y0258584D01*
X0195663Y0257050D01*
X0195663Y0255389D01*
X0195027Y0253854D01*
X0193853Y0252680D01*
X0192318Y0252044D01*
X0190657Y0252044D01*
X0189123Y0252680D01*
X0187949Y0253854D01*
X0187313Y0255389D01*
X0187313Y0257050D01*
X0187949Y0258584D01*
X0187392Y0257240D02*
X0185584Y0257240D01*
X0185663Y0255641D02*
X0187313Y0255641D01*
X0187871Y0254043D02*
X0185105Y0254043D01*
X0183283Y0252444D02*
X0189692Y0252444D01*
X0193283Y0252444D02*
X0199692Y0252444D01*
X0199123Y0252680D02*
X0200657Y0252044D01*
X0202318Y0252044D01*
X0203853Y0252680D01*
X0205027Y0253854D01*
X0205663Y0255389D01*
X0205663Y0257050D01*
X0205027Y0258584D01*
X0203853Y0259759D01*
X0202318Y0260394D01*
X0200657Y0260394D01*
X0199123Y0259759D01*
X0197949Y0258584D01*
X0197313Y0257050D01*
X0197313Y0255389D01*
X0197949Y0253854D01*
X0199123Y0252680D01*
X0197871Y0254043D02*
X0195105Y0254043D01*
X0195663Y0255641D02*
X0197313Y0255641D01*
X0197392Y0257240D02*
X0195584Y0257240D01*
X0194773Y0258838D02*
X0198203Y0258838D01*
X0204773Y0258838D02*
X0208203Y0258838D01*
X0207949Y0258584D02*
X0207313Y0257050D01*
X0207313Y0255389D01*
X0207949Y0253854D01*
X0209123Y0252680D01*
X0210657Y0252044D01*
X0212318Y0252044D01*
X0213853Y0252680D01*
X0215027Y0253854D01*
X0215663Y0255389D01*
X0215663Y0257050D01*
X0215027Y0258584D01*
X0213853Y0259759D01*
X0212318Y0260394D01*
X0210657Y0260394D01*
X0209123Y0259759D01*
X0207949Y0258584D01*
X0207392Y0257240D02*
X0205584Y0257240D01*
X0205663Y0255641D02*
X0207313Y0255641D01*
X0207871Y0254043D02*
X0205105Y0254043D01*
X0203283Y0252444D02*
X0209692Y0252444D01*
X0213283Y0252444D02*
X0219388Y0252444D01*
X0217871Y0254043D02*
X0215105Y0254043D01*
X0215663Y0255641D02*
X0217313Y0255641D01*
X0217392Y0257240D02*
X0215584Y0257240D01*
X0214773Y0258838D02*
X0218203Y0258838D01*
X0224773Y0258838D02*
X0228203Y0258838D01*
X0227949Y0258584D02*
X0227313Y0257050D01*
X0227313Y0255389D01*
X0227949Y0253854D01*
X0229123Y0252680D01*
X0230657Y0252044D01*
X0232318Y0252044D01*
X0233853Y0252680D01*
X0235027Y0253854D01*
X0235663Y0255389D01*
X0235663Y0257050D01*
X0235027Y0258584D01*
X0233853Y0259759D01*
X0232318Y0260394D01*
X0230657Y0260394D01*
X0229123Y0259759D01*
X0227949Y0258584D01*
X0227392Y0257240D02*
X0225584Y0257240D01*
X0225663Y0255641D02*
X0227313Y0255641D01*
X0227871Y0254043D02*
X0225105Y0254043D01*
X0223588Y0252444D02*
X0229692Y0252444D01*
X0231466Y0250846D02*
X0263177Y0250846D01*
X0262978Y0250366D02*
X0262978Y0249098D01*
X0263464Y0247927D01*
X0264360Y0247030D01*
X0265532Y0246545D01*
X0266800Y0246545D01*
X0267971Y0247030D01*
X0268868Y0247927D01*
X0269353Y0249098D01*
X0269353Y0249950D01*
X0269541Y0250137D01*
X0269541Y0244744D01*
X0269916Y0244369D01*
X0269916Y0237875D01*
X0267663Y0237875D01*
X0264969Y0235180D01*
X0264969Y0231370D01*
X0267663Y0228675D01*
X0271474Y0228675D01*
X0274169Y0231370D01*
X0274169Y0235180D01*
X0274116Y0235233D01*
X0274116Y0243807D01*
X0278104Y0243807D01*
X0279041Y0244744D01*
X0279041Y0250670D01*
X0279004Y0250707D01*
X0279041Y0250744D01*
X0279041Y0256670D01*
X0278104Y0257607D01*
X0270478Y0257607D01*
X0269541Y0256670D01*
X0269541Y0255807D01*
X0269271Y0255807D01*
X0266383Y0252919D01*
X0265532Y0252919D01*
X0264360Y0252434D01*
X0263464Y0251538D01*
X0262978Y0250366D01*
X0262978Y0249247D02*
X0231466Y0249247D01*
X0231466Y0247649D02*
X0234550Y0247649D01*
X0239282Y0247649D02*
X0263742Y0247649D01*
X0263715Y0252444D02*
X0264384Y0252444D01*
X0265289Y0254043D02*
X0267507Y0254043D01*
X0269105Y0255641D02*
X0265826Y0255641D01*
X0265756Y0257240D02*
X0270111Y0257240D01*
X0264993Y0258838D02*
X0317269Y0258838D01*
X0317269Y0257240D02*
X0278471Y0257240D01*
X0279041Y0255641D02*
X0317269Y0255641D01*
X0317269Y0254043D02*
X0279041Y0254043D01*
X0279041Y0252444D02*
X0317269Y0252444D01*
X0317269Y0250846D02*
X0279041Y0250846D01*
X0279041Y0249247D02*
X0317269Y0249247D01*
X0317269Y0247649D02*
X0279041Y0247649D01*
X0279041Y0246050D02*
X0317269Y0246050D01*
X0317269Y0244452D02*
X0278748Y0244452D01*
X0274116Y0242853D02*
X0317269Y0242853D01*
X0317269Y0241255D02*
X0274116Y0241255D01*
X0274116Y0239656D02*
X0302755Y0239656D01*
X0300429Y0238058D02*
X0274116Y0238058D01*
X0274116Y0236459D02*
X0276247Y0236459D01*
X0274969Y0235180D02*
X0277663Y0237875D01*
X0281474Y0237875D01*
X0284169Y0235180D01*
X0284169Y0231370D01*
X0281474Y0228675D01*
X0277663Y0228675D01*
X0274969Y0231370D01*
X0274969Y0235180D01*
X0274969Y0234861D02*
X0274169Y0234861D01*
X0274169Y0233262D02*
X0274969Y0233262D01*
X0274969Y0231664D02*
X0274169Y0231664D01*
X0272864Y0230065D02*
X0276273Y0230065D01*
X0277663Y0227875D02*
X0274969Y0225180D01*
X0274969Y0221370D01*
X0277663Y0218675D01*
X0281474Y0218675D01*
X0284169Y0221370D01*
X0284169Y0225180D01*
X0281474Y0227875D01*
X0277663Y0227875D01*
X0276656Y0226868D02*
X0272481Y0226868D01*
X0271474Y0227875D02*
X0274169Y0225180D01*
X0274169Y0221370D01*
X0271474Y0218675D01*
X0267663Y0218675D01*
X0264969Y0221370D01*
X0264969Y0225180D01*
X0267663Y0227875D01*
X0271474Y0227875D01*
X0274079Y0225270D02*
X0275058Y0225270D01*
X0274969Y0223671D02*
X0274169Y0223671D01*
X0274169Y0222072D02*
X0274969Y0222072D01*
X0275864Y0220474D02*
X0273273Y0220474D01*
X0271674Y0218875D02*
X0277463Y0218875D01*
X0281674Y0218875D02*
X0287180Y0218875D01*
X0285581Y0220474D02*
X0283273Y0220474D01*
X0284169Y0222072D02*
X0284769Y0222072D01*
X0284769Y0223671D02*
X0284169Y0223671D01*
X0284079Y0225270D02*
X0284775Y0225270D01*
X0286373Y0226868D02*
X0282481Y0226868D01*
X0282864Y0230065D02*
X0286273Y0230065D01*
X0284969Y0231664D02*
X0284169Y0231664D01*
X0284169Y0233262D02*
X0284969Y0233262D01*
X0284969Y0234861D02*
X0284169Y0234861D01*
X0282890Y0236459D02*
X0286247Y0236459D01*
X0292890Y0236459D02*
X0298693Y0236459D01*
X0297720Y0234861D02*
X0294169Y0234861D01*
X0294169Y0233262D02*
X0296855Y0233262D01*
X0296303Y0231664D02*
X0294169Y0231664D01*
X0292764Y0226868D02*
X0295972Y0226868D01*
X0296239Y0225270D02*
X0294362Y0225270D01*
X0294369Y0223671D02*
X0296648Y0223671D01*
X0297513Y0222072D02*
X0294369Y0222072D01*
X0293556Y0220474D02*
X0298378Y0220474D01*
X0317221Y0238058D02*
X0317269Y0238058D01*
X0317269Y0239656D02*
X0314774Y0239656D01*
X0269916Y0239656D02*
X0086428Y0239656D01*
X0088875Y0238058D02*
X0117563Y0238058D01*
X0117580Y0238075D02*
X0114769Y0235263D01*
X0114769Y0233475D01*
X0119368Y0233475D01*
X0119368Y0233075D01*
X0114769Y0233075D01*
X0114769Y0231287D01*
X0117580Y0228475D01*
X0119369Y0228475D01*
X0119369Y0233075D01*
X0119769Y0233075D01*
X0119769Y0233475D01*
X0124369Y0233475D01*
X0124369Y0235263D01*
X0121557Y0238075D01*
X0119769Y0238075D01*
X0119769Y0233475D01*
X0119369Y0233475D01*
X0119369Y0238075D01*
X0117580Y0238075D01*
X0119369Y0238058D02*
X0119769Y0238058D01*
X0119769Y0236459D02*
X0119369Y0236459D01*
X0119369Y0234861D02*
X0119769Y0234861D01*
X0119769Y0233262D02*
X0124969Y0233262D01*
X0124369Y0233075D02*
X0119769Y0233075D01*
X0119769Y0228475D01*
X0121557Y0228475D01*
X0124369Y0231287D01*
X0124369Y0233075D01*
X0124369Y0231664D02*
X0124969Y0231664D01*
X0124969Y0231370D02*
X0127663Y0228675D01*
X0131474Y0228675D01*
X0134169Y0231370D01*
X0134169Y0235180D01*
X0131474Y0237875D01*
X0127663Y0237875D01*
X0124969Y0235180D01*
X0124969Y0231370D01*
X0126273Y0230065D02*
X0123147Y0230065D01*
X0121474Y0227875D02*
X0117663Y0227875D01*
X0114969Y0225180D01*
X0114969Y0221370D01*
X0117663Y0218675D01*
X0121474Y0218675D01*
X0124169Y0221370D01*
X0124169Y0225180D01*
X0121474Y0227875D01*
X0122481Y0226868D02*
X0126656Y0226868D01*
X0127663Y0227875D02*
X0124969Y0225180D01*
X0124969Y0221370D01*
X0127663Y0218675D01*
X0131474Y0218675D01*
X0134169Y0221370D01*
X0134169Y0225180D01*
X0131474Y0227875D01*
X0127663Y0227875D01*
X0125058Y0225270D02*
X0124079Y0225270D01*
X0124169Y0223671D02*
X0124969Y0223671D01*
X0124969Y0222072D02*
X0124169Y0222072D01*
X0123273Y0220474D02*
X0125864Y0220474D01*
X0127463Y0218875D02*
X0121674Y0218875D01*
X0117463Y0218875D02*
X0111674Y0218875D01*
X0111474Y0218675D02*
X0114169Y0221370D01*
X0114169Y0225180D01*
X0111474Y0227875D01*
X0107663Y0227875D01*
X0104969Y0225180D01*
X0104969Y0221370D01*
X0107663Y0218675D01*
X0111474Y0218675D01*
X0113273Y0220474D02*
X0115864Y0220474D01*
X0114969Y0222072D02*
X0114169Y0222072D01*
X0114169Y0223671D02*
X0114969Y0223671D01*
X0115058Y0225270D02*
X0114079Y0225270D01*
X0112481Y0226868D02*
X0116656Y0226868D01*
X0114169Y0231370D02*
X0111474Y0228675D01*
X0107663Y0228675D01*
X0104969Y0231370D01*
X0104969Y0235180D01*
X0107663Y0237875D01*
X0111474Y0237875D01*
X0114169Y0235180D01*
X0114169Y0231370D01*
X0114169Y0231664D02*
X0114769Y0231664D01*
X0114169Y0233262D02*
X0119368Y0233262D01*
X0119369Y0231664D02*
X0119769Y0231664D01*
X0119769Y0230065D02*
X0119369Y0230065D01*
X0115990Y0230065D02*
X0112864Y0230065D01*
X0114169Y0234861D02*
X0114769Y0234861D01*
X0115964Y0236459D02*
X0112890Y0236459D01*
X0106247Y0236459D02*
X0102890Y0236459D01*
X0104169Y0234861D02*
X0104969Y0234861D01*
X0104969Y0233262D02*
X0104169Y0233262D01*
X0104169Y0231664D02*
X0104969Y0231664D01*
X0106273Y0230065D02*
X0102864Y0230065D01*
X0103231Y0227875D02*
X0095906Y0227875D01*
X0094969Y0226938D01*
X0094969Y0219612D01*
X0095906Y0218675D01*
X0103231Y0218675D01*
X0104169Y0219612D01*
X0104169Y0226938D01*
X0103231Y0227875D01*
X0104169Y0226868D02*
X0106656Y0226868D01*
X0105058Y0225270D02*
X0104169Y0225270D01*
X0104169Y0223671D02*
X0104969Y0223671D01*
X0104969Y0222072D02*
X0104169Y0222072D01*
X0104169Y0220474D02*
X0105864Y0220474D01*
X0107463Y0218875D02*
X0103432Y0218875D01*
X0095705Y0218875D02*
X0089334Y0218875D01*
X0090578Y0220474D02*
X0094969Y0220474D01*
X0094969Y0222072D02*
X0091823Y0222072D01*
X0092377Y0223671D02*
X0094969Y0223671D01*
X0094969Y0225270D02*
X0092926Y0225270D01*
X0093223Y0226868D02*
X0094969Y0226868D01*
X0081491Y0242853D02*
X0031248Y0242853D01*
X0031248Y0244452D02*
X0043431Y0244452D01*
X0043339Y0244489D02*
X0044883Y0243850D01*
X0051754Y0243850D01*
X0053298Y0244489D01*
X0054479Y0245671D01*
X0055119Y0247215D01*
X0055119Y0248885D01*
X0054479Y0250429D01*
X0053298Y0251611D01*
X0051754Y0252250D01*
X0044883Y0252250D01*
X0043339Y0251611D01*
X0042158Y0250429D01*
X0041519Y0248885D01*
X0041519Y0247215D01*
X0042158Y0245671D01*
X0043339Y0244489D01*
X0042001Y0246050D02*
X0031042Y0246050D01*
X0030613Y0247649D02*
X0041519Y0247649D01*
X0041668Y0249247D02*
X0029831Y0249247D01*
X0028818Y0250846D02*
X0042575Y0250846D01*
X0044688Y0242342D02*
X0044030Y0242128D01*
X0043412Y0241813D01*
X0042852Y0241406D01*
X0042362Y0240916D01*
X0041955Y0240356D01*
X0041641Y0239739D01*
X0041427Y0239080D01*
X0041319Y0238396D01*
X0041319Y0238050D01*
X0048318Y0238050D01*
X0041319Y0238050D01*
X0041319Y0237704D01*
X0041427Y0237020D01*
X0041641Y0236361D01*
X0041955Y0235744D01*
X0042362Y0235184D01*
X0042852Y0234694D01*
X0043412Y0234287D01*
X0044030Y0233972D01*
X0044688Y0233758D01*
X0045372Y0233650D01*
X0048318Y0233650D01*
X0048318Y0238050D01*
X0048318Y0238050D01*
X0048319Y0238050D01*
X0055319Y0238050D01*
X0055319Y0238396D01*
X0055210Y0239080D01*
X0054996Y0239739D01*
X0054682Y0240356D01*
X0054275Y0240916D01*
X0053785Y0241406D01*
X0053225Y0241813D01*
X0052608Y0242128D01*
X0051949Y0242342D01*
X0051265Y0242450D01*
X0048319Y0242450D01*
X0048319Y0238050D01*
X0048319Y0238050D01*
X0055319Y0238050D01*
X0055319Y0237704D01*
X0055210Y0237020D01*
X0054996Y0236361D01*
X0054682Y0235744D01*
X0054275Y0235184D01*
X0053785Y0234694D01*
X0053225Y0234287D01*
X0052608Y0233972D01*
X0051949Y0233758D01*
X0051265Y0233650D01*
X0048319Y0233650D01*
X0048319Y0238050D01*
X0048318Y0238050D01*
X0048318Y0242450D01*
X0045372Y0242450D01*
X0044688Y0242342D01*
X0042701Y0241255D02*
X0030953Y0241255D01*
X0030525Y0239656D02*
X0041614Y0239656D01*
X0041319Y0238058D02*
X0029640Y0238058D01*
X0028487Y0236459D02*
X0041609Y0236459D01*
X0042685Y0234861D02*
X0026833Y0234861D01*
X0023639Y0233262D02*
X0068509Y0233262D01*
X0067956Y0231664D02*
X0053170Y0231664D01*
X0054630Y0230065D02*
X0067689Y0230065D01*
X0067423Y0228467D02*
X0055119Y0228467D01*
X0054975Y0226868D02*
X0067625Y0226868D01*
X0067892Y0225270D02*
X0054078Y0225270D01*
X0045399Y0223671D02*
X0068302Y0223671D01*
X0069167Y0222072D02*
X0043801Y0222072D01*
X0042202Y0220474D02*
X0070032Y0220474D01*
X0071666Y0218875D02*
X0040604Y0218875D01*
X0039005Y0217277D02*
X0073535Y0217277D01*
X0077180Y0215678D02*
X0038969Y0215678D01*
X0035881Y0222072D02*
X0013197Y0222072D01*
X0013197Y0220474D02*
X0025169Y0220474D01*
X0020886Y0218875D02*
X0013197Y0218875D01*
X0013197Y0217277D02*
X0020131Y0217277D01*
X0020333Y0215678D02*
X0013197Y0215678D01*
X0013197Y0214080D02*
X0021556Y0214080D01*
X0025674Y0212481D02*
X0013197Y0212481D01*
X0013197Y0210883D02*
X0033019Y0210883D01*
X0033019Y0209284D02*
X0013197Y0209284D01*
X0013197Y0207686D02*
X0033019Y0207686D01*
X0031901Y0206087D02*
X0013197Y0206087D01*
X0013197Y0204489D02*
X0031014Y0204489D01*
X0030619Y0202890D02*
X0013197Y0202890D01*
X0027821Y0193299D02*
X0317269Y0193299D01*
X0317269Y0191701D02*
X0027821Y0191701D01*
X0027821Y0190102D02*
X0317269Y0190102D01*
X0317269Y0188504D02*
X0027821Y0188504D01*
X0027821Y0186905D02*
X0317269Y0186905D01*
X0317269Y0185307D02*
X0027821Y0185307D01*
X0027254Y0183708D02*
X0032980Y0183708D01*
X0031428Y0182110D02*
X0026124Y0182110D01*
X0037480Y0223671D02*
X0013197Y0223671D01*
X0013197Y0225270D02*
X0039078Y0225270D01*
X0040677Y0226868D02*
X0013197Y0226868D01*
X0013197Y0228467D02*
X0041519Y0228467D01*
X0042007Y0230065D02*
X0013197Y0230065D01*
X0013197Y0231664D02*
X0043467Y0231664D01*
X0048318Y0234861D02*
X0048319Y0234861D01*
X0048318Y0236459D02*
X0048319Y0236459D01*
X0048318Y0238058D02*
X0048319Y0238058D01*
X0048318Y0239656D02*
X0048319Y0239656D01*
X0048318Y0241255D02*
X0048319Y0241255D01*
X0053936Y0241255D02*
X0269916Y0241255D01*
X0269916Y0242853D02*
X0238770Y0242853D01*
X0239929Y0244452D02*
X0269833Y0244452D01*
X0269541Y0246050D02*
X0240103Y0246050D01*
X0235062Y0242853D02*
X0231000Y0242853D01*
X0231474Y0237875D02*
X0227663Y0237875D01*
X0224969Y0235180D01*
X0224969Y0231370D01*
X0227663Y0228675D01*
X0231474Y0228675D01*
X0234169Y0231370D01*
X0234169Y0235180D01*
X0231474Y0237875D01*
X0232890Y0236459D02*
X0235964Y0236459D01*
X0234769Y0235263D02*
X0234769Y0233475D01*
X0239368Y0233475D01*
X0239368Y0233075D01*
X0234769Y0233075D01*
X0234769Y0231287D01*
X0237580Y0228475D01*
X0239369Y0228475D01*
X0239369Y0233075D01*
X0239769Y0233075D01*
X0239769Y0233475D01*
X0244369Y0233475D01*
X0244369Y0235263D01*
X0241557Y0238075D01*
X0239769Y0238075D01*
X0239769Y0233475D01*
X0239369Y0233475D01*
X0239369Y0238075D01*
X0237580Y0238075D01*
X0234769Y0235263D01*
X0234769Y0234861D02*
X0234169Y0234861D01*
X0234169Y0233262D02*
X0239368Y0233262D01*
X0239769Y0233262D02*
X0244969Y0233262D01*
X0244369Y0233075D02*
X0239769Y0233075D01*
X0239769Y0228475D01*
X0241557Y0228475D01*
X0244369Y0231287D01*
X0244369Y0233075D01*
X0244369Y0231664D02*
X0244969Y0231664D01*
X0244969Y0231370D02*
X0247663Y0228675D01*
X0251474Y0228675D01*
X0254169Y0231370D01*
X0254169Y0235180D01*
X0251474Y0237875D01*
X0247663Y0237875D01*
X0244969Y0235180D01*
X0244969Y0231370D01*
X0246273Y0230065D02*
X0243147Y0230065D01*
X0241474Y0227875D02*
X0237663Y0227875D01*
X0234969Y0225180D01*
X0234969Y0221370D01*
X0237663Y0218675D01*
X0241474Y0218675D01*
X0244169Y0221370D01*
X0244169Y0225180D01*
X0241474Y0227875D01*
X0242481Y0226868D02*
X0246656Y0226868D01*
X0247663Y0227875D02*
X0244969Y0225180D01*
X0244969Y0221370D01*
X0247663Y0218675D01*
X0251474Y0218675D01*
X0254169Y0221370D01*
X0254169Y0225180D01*
X0251474Y0227875D01*
X0247663Y0227875D01*
X0245058Y0225270D02*
X0244079Y0225270D01*
X0244169Y0223671D02*
X0244969Y0223671D01*
X0244969Y0222072D02*
X0244169Y0222072D01*
X0243273Y0220474D02*
X0245864Y0220474D01*
X0247463Y0218875D02*
X0241674Y0218875D01*
X0237463Y0218875D02*
X0231674Y0218875D01*
X0231474Y0218675D02*
X0234169Y0221370D01*
X0234169Y0225180D01*
X0231474Y0227875D01*
X0227663Y0227875D01*
X0224969Y0225180D01*
X0224969Y0221370D01*
X0227663Y0218675D01*
X0231474Y0218675D01*
X0233273Y0220474D02*
X0235864Y0220474D01*
X0234969Y0222072D02*
X0234169Y0222072D01*
X0234169Y0223671D02*
X0234969Y0223671D01*
X0235058Y0225270D02*
X0234079Y0225270D01*
X0232481Y0226868D02*
X0236656Y0226868D01*
X0235990Y0230065D02*
X0232864Y0230065D01*
X0234169Y0231664D02*
X0234769Y0231664D01*
X0239369Y0231664D02*
X0239769Y0231664D01*
X0239769Y0230065D02*
X0239369Y0230065D01*
X0239369Y0234861D02*
X0239769Y0234861D01*
X0239769Y0236459D02*
X0239369Y0236459D01*
X0239369Y0238058D02*
X0239769Y0238058D01*
X0241574Y0238058D02*
X0257563Y0238058D01*
X0257580Y0238075D02*
X0254769Y0235263D01*
X0254769Y0233475D01*
X0259368Y0233475D01*
X0259368Y0233075D01*
X0254769Y0233075D01*
X0254769Y0231287D01*
X0257580Y0228475D01*
X0259369Y0228475D01*
X0259369Y0233075D01*
X0259769Y0233075D01*
X0259769Y0233475D01*
X0264369Y0233475D01*
X0264369Y0235263D01*
X0261557Y0238075D01*
X0259769Y0238075D01*
X0259769Y0233475D01*
X0259369Y0233475D01*
X0259369Y0238075D01*
X0257580Y0238075D01*
X0259369Y0238058D02*
X0259769Y0238058D01*
X0259769Y0236459D02*
X0259369Y0236459D01*
X0259369Y0234861D02*
X0259769Y0234861D01*
X0259769Y0233262D02*
X0264969Y0233262D01*
X0264369Y0233075D02*
X0259769Y0233075D01*
X0259769Y0228475D01*
X0261557Y0228475D01*
X0264369Y0231287D01*
X0264369Y0233075D01*
X0264369Y0231664D02*
X0264969Y0231664D01*
X0266273Y0230065D02*
X0263147Y0230065D01*
X0261474Y0227875D02*
X0257663Y0227875D01*
X0254969Y0225180D01*
X0254969Y0221370D01*
X0257663Y0218675D01*
X0261474Y0218675D01*
X0264169Y0221370D01*
X0264169Y0225180D01*
X0261474Y0227875D01*
X0262481Y0226868D02*
X0266656Y0226868D01*
X0265058Y0225270D02*
X0264079Y0225270D01*
X0264169Y0223671D02*
X0264969Y0223671D01*
X0264969Y0222072D02*
X0264169Y0222072D01*
X0263273Y0220474D02*
X0265864Y0220474D01*
X0267463Y0218875D02*
X0261674Y0218875D01*
X0257463Y0218875D02*
X0251674Y0218875D01*
X0253273Y0220474D02*
X0255864Y0220474D01*
X0254969Y0222072D02*
X0254169Y0222072D01*
X0254169Y0223671D02*
X0254969Y0223671D01*
X0255058Y0225270D02*
X0254079Y0225270D01*
X0252481Y0226868D02*
X0256656Y0226868D01*
X0255990Y0230065D02*
X0252864Y0230065D01*
X0254169Y0231664D02*
X0254769Y0231664D01*
X0254169Y0233262D02*
X0259368Y0233262D01*
X0259369Y0231664D02*
X0259769Y0231664D01*
X0259769Y0230065D02*
X0259369Y0230065D01*
X0264369Y0234861D02*
X0264969Y0234861D01*
X0266247Y0236459D02*
X0263173Y0236459D01*
X0261574Y0238058D02*
X0269916Y0238058D01*
X0269541Y0247649D02*
X0268590Y0247649D01*
X0269353Y0249247D02*
X0269541Y0249247D01*
X0261488Y0252444D02*
X0261488Y0252444D01*
X0261488Y0254043D02*
X0261488Y0254043D01*
X0261488Y0255641D02*
X0261488Y0255641D01*
X0261488Y0257240D02*
X0261488Y0257240D01*
X0261488Y0258838D02*
X0261488Y0258838D01*
X0257983Y0258838D02*
X0254773Y0258838D01*
X0255027Y0258584D02*
X0253853Y0259759D01*
X0252318Y0260394D01*
X0250657Y0260394D01*
X0249123Y0259759D01*
X0247949Y0258584D01*
X0247313Y0257050D01*
X0247313Y0255389D01*
X0247949Y0253854D01*
X0249123Y0252680D01*
X0250657Y0252044D01*
X0252318Y0252044D01*
X0253853Y0252680D01*
X0255027Y0253854D01*
X0255663Y0255389D01*
X0255663Y0257050D01*
X0255027Y0258584D01*
X0255584Y0257240D02*
X0257220Y0257240D01*
X0257150Y0255641D02*
X0255663Y0255641D01*
X0255105Y0254043D02*
X0257687Y0254043D01*
X0259261Y0252444D02*
X0253283Y0252444D01*
X0249692Y0252444D02*
X0243283Y0252444D01*
X0243853Y0252680D02*
X0245027Y0253854D01*
X0245663Y0255389D01*
X0245663Y0257050D01*
X0245027Y0258584D01*
X0243853Y0259759D01*
X0242318Y0260394D01*
X0240657Y0260394D01*
X0239123Y0259759D01*
X0237949Y0258584D01*
X0237313Y0257050D01*
X0237313Y0255389D01*
X0237949Y0253854D01*
X0239123Y0252680D01*
X0240657Y0252044D01*
X0242318Y0252044D01*
X0243853Y0252680D01*
X0245105Y0254043D02*
X0247871Y0254043D01*
X0247313Y0255641D02*
X0245663Y0255641D01*
X0245584Y0257240D02*
X0247392Y0257240D01*
X0248203Y0258838D02*
X0244773Y0258838D01*
X0238203Y0258838D02*
X0234773Y0258838D01*
X0235584Y0257240D02*
X0237392Y0257240D01*
X0237313Y0255641D02*
X0235663Y0255641D01*
X0235105Y0254043D02*
X0237871Y0254043D01*
X0239692Y0252444D02*
X0233283Y0252444D01*
X0217666Y0250846D02*
X0094740Y0250846D01*
X0095291Y0249247D02*
X0217666Y0249247D01*
X0217663Y0237875D02*
X0214969Y0235180D01*
X0214969Y0231370D01*
X0217663Y0228675D01*
X0221474Y0228675D01*
X0224169Y0231370D01*
X0224169Y0235180D01*
X0221474Y0237875D01*
X0217663Y0237875D01*
X0216247Y0236459D02*
X0212890Y0236459D01*
X0214169Y0235180D02*
X0211474Y0237875D01*
X0207663Y0237875D01*
X0204969Y0235180D01*
X0204969Y0231370D01*
X0207663Y0228675D01*
X0211474Y0228675D01*
X0214169Y0231370D01*
X0214169Y0235180D01*
X0214169Y0234861D02*
X0214969Y0234861D01*
X0214969Y0233262D02*
X0214169Y0233262D01*
X0214169Y0231664D02*
X0214969Y0231664D01*
X0216273Y0230065D02*
X0212864Y0230065D01*
X0211474Y0227875D02*
X0207663Y0227875D01*
X0204969Y0225180D01*
X0204969Y0221370D01*
X0207663Y0218675D01*
X0211474Y0218675D01*
X0214169Y0221370D01*
X0214169Y0225180D01*
X0211474Y0227875D01*
X0212481Y0226868D02*
X0216373Y0226868D01*
X0217580Y0228075D02*
X0214769Y0225263D01*
X0214769Y0223475D01*
X0219368Y0223475D01*
X0219368Y0223075D01*
X0214769Y0223075D01*
X0214769Y0221287D01*
X0217580Y0218475D01*
X0219369Y0218475D01*
X0219369Y0223075D01*
X0219769Y0223075D01*
X0219769Y0223475D01*
X0224369Y0223475D01*
X0224369Y0225263D01*
X0221557Y0228075D01*
X0219769Y0228075D01*
X0219769Y0223475D01*
X0219369Y0223475D01*
X0219369Y0228075D01*
X0217580Y0228075D01*
X0219369Y0226868D02*
X0219769Y0226868D01*
X0219769Y0225270D02*
X0219369Y0225270D01*
X0219369Y0223671D02*
X0219769Y0223671D01*
X0219769Y0223075D02*
X0224369Y0223075D01*
X0224369Y0221287D01*
X0221557Y0218475D01*
X0219769Y0218475D01*
X0219769Y0223075D01*
X0219769Y0222072D02*
X0219369Y0222072D01*
X0219369Y0220474D02*
X0219769Y0220474D01*
X0219769Y0218875D02*
X0219369Y0218875D01*
X0217180Y0218875D02*
X0211674Y0218875D01*
X0213273Y0220474D02*
X0215581Y0220474D01*
X0214769Y0222072D02*
X0214169Y0222072D01*
X0214169Y0223671D02*
X0214769Y0223671D01*
X0214775Y0225270D02*
X0214079Y0225270D01*
X0222764Y0226868D02*
X0226656Y0226868D01*
X0225058Y0225270D02*
X0224362Y0225270D01*
X0224369Y0223671D02*
X0224969Y0223671D01*
X0224969Y0222072D02*
X0224369Y0222072D01*
X0223556Y0220474D02*
X0225864Y0220474D01*
X0227463Y0218875D02*
X0221957Y0218875D01*
X0222864Y0230065D02*
X0226273Y0230065D01*
X0224969Y0231664D02*
X0224169Y0231664D01*
X0224169Y0233262D02*
X0224969Y0233262D01*
X0224969Y0234861D02*
X0224169Y0234861D01*
X0222890Y0236459D02*
X0226247Y0236459D01*
X0237563Y0238058D02*
X0191574Y0238058D01*
X0191557Y0238075D02*
X0189769Y0238075D01*
X0189769Y0233475D01*
X0194369Y0233475D01*
X0194369Y0235263D01*
X0191557Y0238075D01*
X0189769Y0238058D02*
X0189369Y0238058D01*
X0189369Y0238075D02*
X0187580Y0238075D01*
X0184769Y0235263D01*
X0184769Y0233475D01*
X0189368Y0233475D01*
X0189368Y0233075D01*
X0184769Y0233075D01*
X0184769Y0231287D01*
X0187580Y0228475D01*
X0189369Y0228475D01*
X0189369Y0233075D01*
X0189769Y0233075D01*
X0189769Y0233475D01*
X0189369Y0233475D01*
X0189369Y0238075D01*
X0189369Y0236459D02*
X0189769Y0236459D01*
X0189769Y0234861D02*
X0189369Y0234861D01*
X0189368Y0233262D02*
X0184169Y0233262D01*
X0184169Y0231664D02*
X0184769Y0231664D01*
X0184169Y0231370D02*
X0184169Y0235180D01*
X0181474Y0237875D01*
X0177663Y0237875D01*
X0174969Y0235180D01*
X0174969Y0231370D01*
X0177663Y0228675D01*
X0181474Y0228675D01*
X0184169Y0231370D01*
X0182864Y0230065D02*
X0185990Y0230065D01*
X0187663Y0227875D02*
X0184969Y0225180D01*
X0184969Y0221370D01*
X0187663Y0218675D01*
X0191474Y0218675D01*
X0194169Y0221370D01*
X0194169Y0225180D01*
X0191474Y0227875D01*
X0187663Y0227875D01*
X0186656Y0226868D02*
X0182481Y0226868D01*
X0181474Y0227875D02*
X0184169Y0225180D01*
X0184169Y0221370D01*
X0181474Y0218675D01*
X0177663Y0218675D01*
X0174969Y0221370D01*
X0174969Y0225180D01*
X0177663Y0227875D01*
X0181474Y0227875D01*
X0184079Y0225270D02*
X0185058Y0225270D01*
X0184969Y0223671D02*
X0184169Y0223671D01*
X0184169Y0222072D02*
X0184969Y0222072D01*
X0185864Y0220474D02*
X0183273Y0220474D01*
X0181674Y0218875D02*
X0187463Y0218875D01*
X0191674Y0218875D02*
X0197463Y0218875D01*
X0197663Y0218675D02*
X0201474Y0218675D01*
X0204169Y0221370D01*
X0204169Y0225180D01*
X0201474Y0227875D01*
X0197663Y0227875D01*
X0194969Y0225180D01*
X0194969Y0221370D01*
X0197663Y0218675D01*
X0195864Y0220474D02*
X0193273Y0220474D01*
X0194169Y0222072D02*
X0194969Y0222072D01*
X0194969Y0223671D02*
X0194169Y0223671D01*
X0194079Y0225270D02*
X0195058Y0225270D01*
X0196656Y0226868D02*
X0192481Y0226868D01*
X0191557Y0228475D02*
X0189769Y0228475D01*
X0189769Y0233075D01*
X0194369Y0233075D01*
X0194369Y0231287D01*
X0191557Y0228475D01*
X0193147Y0230065D02*
X0196273Y0230065D01*
X0194969Y0231370D02*
X0197663Y0228675D01*
X0201474Y0228675D01*
X0204169Y0231370D01*
X0204169Y0235180D01*
X0201474Y0237875D01*
X0197663Y0237875D01*
X0194969Y0235180D01*
X0194969Y0231370D01*
X0194969Y0231664D02*
X0194369Y0231664D01*
X0194969Y0233262D02*
X0189769Y0233262D01*
X0189769Y0231664D02*
X0189369Y0231664D01*
X0189369Y0230065D02*
X0189769Y0230065D01*
X0194369Y0234861D02*
X0194969Y0234861D01*
X0196247Y0236459D02*
X0193173Y0236459D01*
X0187563Y0238058D02*
X0161574Y0238058D01*
X0161557Y0238075D02*
X0159769Y0238075D01*
X0159769Y0233475D01*
X0164369Y0233475D01*
X0164369Y0235263D01*
X0161557Y0238075D01*
X0159769Y0238058D02*
X0159369Y0238058D01*
X0159369Y0238075D02*
X0157580Y0238075D01*
X0154769Y0235263D01*
X0154769Y0233475D01*
X0159368Y0233475D01*
X0159368Y0233075D01*
X0154769Y0233075D01*
X0154769Y0231287D01*
X0157580Y0228475D01*
X0159369Y0228475D01*
X0159369Y0233075D01*
X0159769Y0233075D01*
X0159769Y0233475D01*
X0159369Y0233475D01*
X0159369Y0238075D01*
X0159369Y0236459D02*
X0159769Y0236459D01*
X0159769Y0234861D02*
X0159369Y0234861D01*
X0159368Y0233262D02*
X0154169Y0233262D01*
X0154169Y0231664D02*
X0154769Y0231664D01*
X0154169Y0231370D02*
X0151474Y0228675D01*
X0147663Y0228675D01*
X0144969Y0231370D01*
X0144969Y0235180D01*
X0147663Y0237875D01*
X0151474Y0237875D01*
X0154169Y0235180D01*
X0154169Y0231370D01*
X0152864Y0230065D02*
X0155990Y0230065D01*
X0157663Y0227875D02*
X0154969Y0225180D01*
X0154969Y0221370D01*
X0157663Y0218675D01*
X0161474Y0218675D01*
X0164169Y0221370D01*
X0164169Y0225180D01*
X0161474Y0227875D01*
X0157663Y0227875D01*
X0156656Y0226868D02*
X0152481Y0226868D01*
X0151474Y0227875D02*
X0154169Y0225180D01*
X0154169Y0221370D01*
X0151474Y0218675D01*
X0147663Y0218675D01*
X0144969Y0221370D01*
X0144969Y0225180D01*
X0147663Y0227875D01*
X0151474Y0227875D01*
X0154079Y0225270D02*
X0155058Y0225270D01*
X0154969Y0223671D02*
X0154169Y0223671D01*
X0154169Y0222072D02*
X0154969Y0222072D01*
X0155864Y0220474D02*
X0153273Y0220474D01*
X0151674Y0218875D02*
X0157463Y0218875D01*
X0161674Y0218875D02*
X0167463Y0218875D01*
X0167663Y0218675D02*
X0171474Y0218675D01*
X0174169Y0221370D01*
X0174169Y0225180D01*
X0171474Y0227875D01*
X0167663Y0227875D01*
X0164969Y0225180D01*
X0164969Y0221370D01*
X0167663Y0218675D01*
X0165864Y0220474D02*
X0163273Y0220474D01*
X0164169Y0222072D02*
X0164969Y0222072D01*
X0164969Y0223671D02*
X0164169Y0223671D01*
X0164079Y0225270D02*
X0165058Y0225270D01*
X0166656Y0226868D02*
X0162481Y0226868D01*
X0161557Y0228475D02*
X0164369Y0231287D01*
X0164369Y0233075D01*
X0159769Y0233075D01*
X0159769Y0228475D01*
X0161557Y0228475D01*
X0163147Y0230065D02*
X0166273Y0230065D01*
X0164969Y0231370D02*
X0164969Y0235180D01*
X0167663Y0237875D01*
X0171474Y0237875D01*
X0174169Y0235180D01*
X0174169Y0231370D01*
X0171474Y0228675D01*
X0167663Y0228675D01*
X0164969Y0231370D01*
X0164969Y0231664D02*
X0164369Y0231664D01*
X0164969Y0233262D02*
X0159769Y0233262D01*
X0159769Y0231664D02*
X0159369Y0231664D01*
X0159369Y0230065D02*
X0159769Y0230065D01*
X0164369Y0234861D02*
X0164969Y0234861D01*
X0166247Y0236459D02*
X0163173Y0236459D01*
X0157563Y0238058D02*
X0121574Y0238058D01*
X0123173Y0236459D02*
X0126247Y0236459D01*
X0124969Y0234861D02*
X0124369Y0234861D01*
X0132890Y0236459D02*
X0136247Y0236459D01*
X0134969Y0235180D02*
X0137663Y0237875D01*
X0141474Y0237875D01*
X0144169Y0235180D01*
X0144169Y0231370D01*
X0141474Y0228675D01*
X0137663Y0228675D01*
X0134969Y0231370D01*
X0134969Y0235180D01*
X0134969Y0234861D02*
X0134169Y0234861D01*
X0134169Y0233262D02*
X0134969Y0233262D01*
X0134969Y0231664D02*
X0134169Y0231664D01*
X0132864Y0230065D02*
X0136273Y0230065D01*
X0137580Y0228075D02*
X0134769Y0225263D01*
X0134769Y0223475D01*
X0139368Y0223475D01*
X0139368Y0223075D01*
X0134769Y0223075D01*
X0134769Y0221287D01*
X0137580Y0218475D01*
X0139369Y0218475D01*
X0139369Y0223075D01*
X0139769Y0223075D01*
X0139769Y0223475D01*
X0144369Y0223475D01*
X0144369Y0225263D01*
X0141557Y0228075D01*
X0139769Y0228075D01*
X0139769Y0223475D01*
X0139369Y0223475D01*
X0139369Y0228075D01*
X0137580Y0228075D01*
X0136373Y0226868D02*
X0132481Y0226868D01*
X0134079Y0225270D02*
X0134775Y0225270D01*
X0134769Y0223671D02*
X0134169Y0223671D01*
X0134169Y0222072D02*
X0134769Y0222072D01*
X0135581Y0220474D02*
X0133273Y0220474D01*
X0131674Y0218875D02*
X0137180Y0218875D01*
X0139369Y0218875D02*
X0139769Y0218875D01*
X0139769Y0218475D02*
X0141557Y0218475D01*
X0144369Y0221287D01*
X0144369Y0223075D01*
X0139769Y0223075D01*
X0139769Y0218475D01*
X0139769Y0220474D02*
X0139369Y0220474D01*
X0139369Y0222072D02*
X0139769Y0222072D01*
X0139769Y0223671D02*
X0139369Y0223671D01*
X0139369Y0225270D02*
X0139769Y0225270D01*
X0139769Y0226868D02*
X0139369Y0226868D01*
X0142764Y0226868D02*
X0146656Y0226868D01*
X0145058Y0225270D02*
X0144362Y0225270D01*
X0144369Y0223671D02*
X0144969Y0223671D01*
X0144969Y0222072D02*
X0144369Y0222072D01*
X0143556Y0220474D02*
X0145864Y0220474D01*
X0147463Y0218875D02*
X0141957Y0218875D01*
X0142864Y0230065D02*
X0146273Y0230065D01*
X0144969Y0231664D02*
X0144169Y0231664D01*
X0144169Y0233262D02*
X0144969Y0233262D01*
X0144969Y0234861D02*
X0144169Y0234861D01*
X0142890Y0236459D02*
X0146247Y0236459D01*
X0152890Y0236459D02*
X0155964Y0236459D01*
X0154769Y0234861D02*
X0154169Y0234861D01*
X0171674Y0218875D02*
X0177463Y0218875D01*
X0175864Y0220474D02*
X0173273Y0220474D01*
X0174169Y0222072D02*
X0174969Y0222072D01*
X0174969Y0223671D02*
X0174169Y0223671D01*
X0174079Y0225270D02*
X0175058Y0225270D01*
X0176656Y0226868D02*
X0172481Y0226868D01*
X0172864Y0230065D02*
X0176273Y0230065D01*
X0174969Y0231664D02*
X0174169Y0231664D01*
X0174169Y0233262D02*
X0174969Y0233262D01*
X0174969Y0234861D02*
X0174169Y0234861D01*
X0172890Y0236459D02*
X0176247Y0236459D01*
X0182890Y0236459D02*
X0185964Y0236459D01*
X0184769Y0234861D02*
X0184169Y0234861D01*
X0202890Y0236459D02*
X0206247Y0236459D01*
X0204969Y0234861D02*
X0204169Y0234861D01*
X0204169Y0233262D02*
X0204969Y0233262D01*
X0204969Y0231664D02*
X0204169Y0231664D01*
X0202864Y0230065D02*
X0206273Y0230065D01*
X0206656Y0226868D02*
X0202481Y0226868D01*
X0204079Y0225270D02*
X0205058Y0225270D01*
X0204969Y0223671D02*
X0204169Y0223671D01*
X0204169Y0222072D02*
X0204969Y0222072D01*
X0205864Y0220474D02*
X0203273Y0220474D01*
X0201674Y0218875D02*
X0207463Y0218875D01*
X0243173Y0236459D02*
X0246247Y0236459D01*
X0244969Y0234861D02*
X0244369Y0234861D01*
X0252890Y0236459D02*
X0255964Y0236459D01*
X0254769Y0234861D02*
X0254169Y0234861D01*
X0099692Y0252444D02*
X0093283Y0252444D01*
X0093853Y0252680D02*
X0092318Y0252044D01*
X0090657Y0252044D01*
X0089123Y0252680D01*
X0087949Y0253854D01*
X0087313Y0255389D01*
X0087313Y0257050D01*
X0087949Y0258584D01*
X0089123Y0259759D01*
X0090657Y0260394D01*
X0092318Y0260394D01*
X0093853Y0259759D01*
X0095027Y0258584D01*
X0095663Y0257050D01*
X0095663Y0255389D01*
X0095027Y0253854D01*
X0093853Y0252680D01*
X0095105Y0254043D02*
X0097871Y0254043D01*
X0097313Y0255641D02*
X0095663Y0255641D01*
X0095584Y0257240D02*
X0097392Y0257240D01*
X0098203Y0258838D02*
X0094773Y0258838D01*
X0088203Y0258838D02*
X0084773Y0258838D01*
X0085584Y0257240D02*
X0087392Y0257240D01*
X0087313Y0255641D02*
X0085663Y0255641D01*
X0086591Y0254043D02*
X0087871Y0254043D01*
X0086591Y0252444D02*
X0089692Y0252444D01*
X0082042Y0250846D02*
X0054063Y0250846D01*
X0054969Y0249247D02*
X0081491Y0249247D01*
X0081491Y0247649D02*
X0055119Y0247649D01*
X0054636Y0246050D02*
X0081491Y0246050D01*
X0081491Y0244452D02*
X0053206Y0244452D01*
X0055023Y0239656D02*
X0074409Y0239656D01*
X0072083Y0238058D02*
X0055319Y0238058D01*
X0055028Y0236459D02*
X0070346Y0236459D01*
X0069374Y0234861D02*
X0053952Y0234861D01*
X0069261Y0252444D02*
X0027219Y0252444D01*
X0024637Y0254043D02*
X0067687Y0254043D01*
X0067150Y0255641D02*
X0013197Y0255641D01*
X0013197Y0254043D02*
X0015661Y0254043D01*
X0013197Y0257240D02*
X0067220Y0257240D01*
X0067983Y0258838D02*
X0013197Y0258838D01*
X0013197Y0234861D02*
X0013465Y0234861D01*
X0013197Y0233262D02*
X0016659Y0233262D01*
X0071488Y0252444D02*
X0071488Y0252444D01*
X0071488Y0254043D02*
X0071488Y0254043D01*
X0071488Y0255641D02*
X0071488Y0255641D01*
X0071488Y0257240D02*
X0071488Y0257240D01*
X0071488Y0258838D02*
X0071488Y0258838D01*
X0074993Y0258838D02*
X0078203Y0258838D01*
X0077392Y0257240D02*
X0075756Y0257240D01*
X0075826Y0255641D02*
X0077313Y0255641D01*
X0077871Y0254043D02*
X0075289Y0254043D01*
X0073715Y0252444D02*
X0079692Y0252444D01*
X0059920Y0062221D02*
X0317269Y0062221D01*
X0317269Y0060623D02*
X0061276Y0060623D01*
X0061506Y0059024D02*
X0317269Y0059024D01*
X0317269Y0057426D02*
X0060817Y0057426D01*
X0060419Y0055827D02*
X0317269Y0055827D01*
X0317269Y0054229D02*
X0060419Y0054229D01*
X0063069Y0052630D02*
X0317269Y0052630D01*
X0317269Y0051032D02*
X0063069Y0051032D01*
X0056219Y0054229D02*
X0050516Y0054229D01*
X0050516Y0055827D02*
X0056219Y0055827D01*
X0055820Y0057426D02*
X0050742Y0057426D01*
X0051603Y0059024D02*
X0055131Y0059024D01*
X0055361Y0060623D02*
X0051445Y0060623D01*
X0050309Y0062221D02*
X0056717Y0062221D01*
X0053569Y0052630D02*
X0050569Y0052630D01*
X0050569Y0051032D02*
X0053569Y0051032D01*
X0053569Y0049433D02*
X0050569Y0049433D01*
X0050569Y0047835D02*
X0053569Y0047835D01*
X0053569Y0046236D02*
X0050569Y0046236D01*
X0050569Y0044638D02*
X0053569Y0044638D01*
X0053569Y0043039D02*
X0050569Y0043039D01*
X0050569Y0041441D02*
X0053569Y0041441D01*
X0056219Y0039842D02*
X0047919Y0039842D01*
X0047919Y0038244D02*
X0056219Y0038244D01*
X0056219Y0036645D02*
X0047919Y0036645D01*
X0047919Y0035047D02*
X0056219Y0035047D01*
X0056219Y0033448D02*
X0047919Y0033448D01*
X0047919Y0031850D02*
X0056219Y0031850D01*
X0056219Y0030251D02*
X0049166Y0030251D01*
X0050765Y0028653D02*
X0056219Y0028653D01*
X0056423Y0027054D02*
X0052363Y0027054D01*
X0053962Y0025456D02*
X0058022Y0025456D01*
X0059620Y0023857D02*
X0055560Y0023857D01*
X0057159Y0022259D02*
X0061219Y0022259D01*
X0062817Y0020660D02*
X0058757Y0020660D01*
X0060356Y0019062D02*
X0064416Y0019062D01*
X0315549Y0046236D02*
X0317269Y0046236D01*
D20*
X0269569Y0233275D02*
X0272016Y0235722D01*
X0272016Y0247457D01*
X0272266Y0247707D01*
X0274291Y0247707D01*
X0274291Y0253707D02*
X0270141Y0253707D01*
X0266166Y0249732D01*
X0236916Y0245507D02*
X0229766Y0245507D01*
X0228141Y0247132D01*
X0227566Y0247132D01*
X0221566Y0247132D02*
X0221488Y0247210D01*
X0221488Y0256219D01*
X0102691Y0245832D02*
X0092041Y0245832D01*
X0091391Y0246482D01*
X0085391Y0246482D02*
X0084491Y0247382D01*
X0084491Y0253216D01*
X0081488Y0256219D01*
X0048416Y0059607D02*
X0048416Y0051157D01*
X0047059Y0049800D01*
X0045819Y0049800D01*
X0045819Y0043800D02*
X0045819Y0030629D01*
X0061567Y0014881D01*
X0071567Y0014881D02*
X0058319Y0028129D01*
X0058319Y0043800D01*
X0058319Y0049800D02*
X0058319Y0059435D01*
M02*
